<svg width="928" height="928" viewBox="0 0 928 928" fill="none" xmlns="http://www.w3.org/2000/svg">
<g filter="url(#filter0_f_974_14993)">
<path d="M464 10L469.701 373.379L520.901 13.5799L481.014 374.808L576.905 24.2632L492.059 377.644L631.129 41.8815L502.661 381.842L682.716 66.1568L512.653 387.335L730.854 96.7063L521.878 394.037L774.784 133.048L530.19 401.843L813.813 174.609L537.459 410.629L847.325 220.735L543.569 420.257L874.792 270.696L548.424 430.574L895.78 323.706L551.947 441.419L909.958 378.929L554.084 452.62L917.104 435.493L554.8 464L917.104 492.507L554.084 475.38L909.958 549.071L551.947 486.581L895.78 604.294L548.424 497.426L874.792 657.304L543.569 507.743L847.325 707.265L537.459 517.371L813.813 753.391L530.19 526.157L774.784 794.952L521.878 533.963L730.854 831.294L512.653 540.665L682.716 861.843L502.661 546.158L631.129 886.119L492.059 550.356L576.905 903.737L481.014 553.192L520.901 914.42L469.701 554.621L464 918L458.299 554.621L407.099 914.42L446.986 553.192L351.095 903.737L435.941 550.356L296.871 886.119L425.339 546.158L245.284 861.843L415.347 540.665L197.146 831.294L406.122 533.963L153.216 794.952L397.81 526.157L114.187 753.391L390.541 517.371L80.6751 707.265L384.431 507.743L53.2085 657.304L379.576 497.426L32.2203 604.294L376.053 486.581L18.0416 549.071L373.916 475.38L10.8959 492.507L373.2 464L10.8959 435.493L373.916 452.62L18.0416 378.929L376.053 441.419L32.2203 323.706L379.576 430.574L53.2085 270.696L384.431 420.257L80.6751 220.735L390.541 410.629L114.187 174.609L397.81 401.843L153.216 133.048L406.122 394.037L197.146 96.7063L415.347 387.335L245.284 66.1568L425.339 381.842L296.871 41.8815L435.941 377.644L351.095 24.2632L446.986 374.808L407.099 13.5799L458.299 373.379L464 10Z" fill="url(#paint0_radial_974_14993)"/>
</g>
<defs>
<filter id="filter0_f_974_14993" x="0.895996" y="0" width="926.208" height="928" filterUnits="userSpaceOnUse" color-interpolation-filters="sRGB">
<feFlood flood-opacity="0" result="BackgroundImageFix"/>
<feBlend mode="normal" in="SourceGraphic" in2="BackgroundImageFix" result="shape"/>
<feGaussianBlur stdDeviation="5" result="effect1_foregroundBlur_974_14993"/>
</filter>
<radialGradient id="paint0_radial_974_14993" cx="0" cy="0" r="1" gradientUnits="userSpaceOnUse" gradientTransform="translate(464 464) rotate(90) scale(454)">
<stop stop-color="#FFF068" stop-opacity="0.5"/>
<stop offset="0.317708" stop-color="#7B61FF" stop-opacity="0.2"/>
<stop offset="1" stop-color="#7B61FF" stop-opacity="0"/>
</radialGradient>
</defs>
</svg>
