<svg width="42" height="42" viewBox="0 0 42 42" fill="none" xmlns="http://www.w3.org/2000/svg">
<path d="M7.69445 8.03462C7.69445 8.03462 8.83892 6.98061 10.0509 6.05789L16.7994 19.1868L14.1055 20.507L7.69445 8.03462Z" fill="#FBCB43"/>
<path d="M14.7492 3.65704C16.2303 3.25986 17.7796 2.99365 17.7796 2.99365L24.1907 15.4661L21.4977 16.7859L14.7492 3.65704Z" fill="#FF6854"/>
<path d="M9.96099 5.93558C9.96099 5.93558 11.0079 5.09502 12.1927 4.52005C13.3775 3.94509 14.7001 3.63573 14.7001 3.63573L21.5945 16.9158L16.8553 19.2156L9.96099 5.93558Z" fill="white"/>
<path d="M12.1037 4.39753C10.8901 4.98235 9.81782 5.83758 9.81782 5.83758C8.74557 6.69281 7.74398 7.68317 7.74398 7.68317L14.4593 20.5275L21.741 17.0186L24.1685 15.8488L17.4532 3.00445C17.4532 3.00445 16.027 3.18402 14.6723 3.49829C14.6723 3.49829 13.3173 3.81271 12.1037 4.39753Z" stroke="#1D2654" stroke-width="1.5" stroke-linejoin="round"/>
<path d="M24.2204 2.99336C24.2204 2.99336 25.768 3.25876 27.2481 3.65545L20.4996 16.7843L17.8093 15.4658L24.2204 2.99336Z" fill="#FBCB43"/>
<path d="M31.949 6.05762C33.1606 6.98018 34.3054 8.03435 34.3054 8.03435L27.8944 20.5068L25.2005 19.1865L31.949 6.05762Z" fill="#FF6854"/>
<path d="M27.2996 3.63535C27.2996 3.63535 28.6222 3.94472 29.807 4.51968C30.9918 5.09464 32.0387 5.93521 32.0387 5.93521L25.1444 19.2153L20.4052 16.9154L27.2996 3.63535Z" fill="white"/>
<path d="M29.896 4.39709C28.6824 3.81227 27.3274 3.49785 27.3274 3.49785C25.9724 3.18344 24.5468 3.00416 24.5468 3.00416L17.8315 15.8485L25.1131 19.3575L27.5407 20.5272L34.256 7.68288C34.256 7.68288 33.2538 6.69223 32.1819 5.83714C32.1819 5.83714 31.1096 4.98191 29.896 4.39709Z" stroke="#1D2654" stroke-width="1.5" stroke-linejoin="round"/>
<circle cx="21" cy="25" r="14" fill="#F0B418" stroke="#1D2654" stroke-width="1.5"/>
<path d="M21 11C13.268 11 7 17.2534 7 24.9673C7 27.9574 7.94174 30.728 9.54545 33C9.54545 33 15.2727 26.872 21 24.9673C26.7273 23.0627 35 24.9673 35 24.9673C35 17.2534 28.732 11 21 11Z" fill="#DFA100"/>
<circle cx="21" cy="25" r="14" stroke="#1D2654" stroke-width="1.5"/>
<circle cx="21" cy="26" r="11" fill="#E49A0A"/>
<circle cx="21" cy="25" r="11" fill="url(#paint0_linear_1375_8836)"/>
<path d="M21 14C14.9249 14 10 18.9249 10 25C10 27.3548 10.7399 29.5368 12 31.3262C12 31.3262 16.5 26.5 21 25C25.5 23.5 32 25 32 25C32 18.9249 27.0751 14 21 14Z" fill="#F9C93F"/>
<path d="M23.0738 30.32C23.2604 30.6533 23.3538 30.9467 23.3538 31.2C23.3538 31.4933 23.2338 31.7267 22.9938 31.9C22.8604 31.98 22.7204 32.02 22.5738 32.02C22.3738 32.02 22.1871 31.9533 22.0138 31.82C21.8538 31.6867 21.7604 31.5133 21.7338 31.3C21.5338 31.0333 21.4338 30.72 21.4338 30.36C21.4338 30.2 21.4538 30.04 21.4938 29.88C21.3871 29.6267 21.3338 29.3667 21.3338 29.1C21.3338 28.8067 21.3871 28.5733 21.4938 28.4C21.4271 28.24 21.3938 28.0867 21.3938 27.94C21.3938 27.7933 21.4138 27.66 21.4538 27.54C21.5071 27.42 21.5738 27.3333 21.6538 27.28C21.5471 27.1067 21.4938 26.94 21.4938 26.78C21.4938 26.6733 21.5204 26.5733 21.5738 26.48C21.4804 26.3867 21.4004 26.2667 21.3338 26.12C21.2804 25.96 21.2538 25.8067 21.2538 25.66C21.2538 25.4733 21.3071 25.3267 21.4138 25.22C21.4004 25.1533 21.3938 25.06 21.3938 24.94C21.3938 24.82 21.4004 24.7333 21.4138 24.68C21.3071 24.56 21.2538 24.4 21.2538 24.2C21.2538 23.96 21.3271 23.7667 21.4738 23.62C21.3804 23.54 21.3071 23.4267 21.2538 23.28C21.2004 23.12 21.1738 22.9533 21.1738 22.78C21.1738 22.46 21.2404 22.24 21.3738 22.12C21.3204 21.88 21.2938 21.72 21.2938 21.64C21.2938 21.5333 21.3204 21.3867 21.3738 21.2C21.2271 21.0133 21.1538 20.82 21.1538 20.62C21.1538 20.5133 21.1871 20.3933 21.2538 20.26C21.1871 20.1533 21.1538 20.02 21.1538 19.86C20.8738 20.0333 20.5738 20.12 20.2538 20.12C20.1071 20.12 19.9671 20.1 19.8338 20.06C19.6738 20.2867 19.4404 20.4 19.1338 20.4C19.0138 20.4 18.9204 20.3867 18.8538 20.36C18.7071 20.4667 18.5538 20.52 18.3938 20.52C18.1804 20.52 17.9871 20.44 17.8138 20.28C17.6404 20.12 17.5538 19.92 17.5538 19.68C17.5538 19.4133 17.7004 19.18 17.9938 18.98C18.2871 18.78 18.5738 18.6933 18.8538 18.72C18.9338 18.6133 19.0538 18.5333 19.2138 18.48C19.3871 18.4267 19.5738 18.4 19.7738 18.4C19.9338 18.4 20.0604 18.42 20.1538 18.46C20.3004 18.3533 20.5004 18.3 20.7538 18.3C20.7538 18.22 20.7938 18.1533 20.8738 18.1C20.9671 18.0333 21.0604 18.0067 21.1538 18.02C21.3938 17.8867 21.6271 17.82 21.8538 17.82C22.0804 17.82 22.2871 17.8867 22.4738 18.02C22.6471 18.0867 22.7871 18.22 22.8938 18.42C23.0004 18.6067 23.0538 18.8067 23.0538 19.02C23.0538 19.2733 22.9871 19.4733 22.8538 19.62C23.0404 19.7667 23.1338 19.98 23.1338 20.26C23.1338 20.4733 23.0804 20.64 22.9737 20.76C23.0538 20.96 23.0938 21.2133 23.0938 21.52C23.0938 22.0133 23.0138 22.4 22.8538 22.68C23.0938 22.84 23.2138 23.0867 23.2138 23.42C23.2138 23.6733 23.1471 23.92 23.0138 24.16C23.0804 24.32 23.1138 24.46 23.1138 24.58C23.1138 24.7133 23.0871 24.8267 23.0338 24.92C23.1138 25.04 23.1538 25.1733 23.1538 25.32C23.1538 25.4533 23.1138 25.5933 23.0338 25.74C23.2071 26.0867 23.2938 26.5267 23.2938 27.06C23.2938 27.46 23.2338 27.7933 23.1138 28.06C23.1938 28.18 23.2338 28.32 23.2338 28.48C23.2338 28.64 23.1871 28.7867 23.0938 28.92C23.1604 29.0533 23.1938 29.2467 23.1938 29.5C23.1938 29.7533 23.1538 30.0267 23.0738 30.32Z" fill="white"/>
<path d="M23.0738 30.32L22.109 30.0569L22.0013 30.4516L22.2012 30.8086L23.0738 30.32ZM22.9938 31.9L23.5082 32.7575L23.5447 32.7356L23.5792 32.7107L22.9938 31.9ZM22.0138 31.82L21.3736 32.5882L21.3886 32.6007L21.404 32.6126L22.0138 31.82ZM21.7338 31.3L22.726 31.176L22.6931 30.9125L22.5338 30.7L21.7338 31.3ZM21.4938 29.88L22.4639 30.1225L22.5447 29.7992L22.4154 29.4919L21.4938 29.88ZM21.4938 28.4L22.3454 28.9241L22.6138 28.488L22.4168 28.0154L21.4938 28.4ZM21.4538 27.54L20.5399 27.1339L20.5203 27.178L20.5051 27.2238L21.4538 27.54ZM21.6538 27.28L22.2085 28.112L23.0108 27.5772L22.5054 26.7559L21.6538 27.28ZM21.5738 26.48L22.442 26.9761L22.8209 26.313L22.2809 25.7729L21.5738 26.48ZM21.3338 26.12L20.3851 26.4362L20.4017 26.486L20.4234 26.5338L21.3338 26.12ZM21.4138 25.22L22.1209 25.9271L22.4993 25.5487L22.3943 25.0239L21.4138 25.22ZM21.4138 24.68L22.3839 24.9225L22.512 24.4103L22.1612 24.0156L21.4138 24.68ZM21.4738 23.62L22.1809 24.3271L22.9444 23.5635L22.1245 22.8607L21.4738 23.62ZM21.2537 23.28L20.3051 23.5962L20.3093 23.609L20.314 23.6217L21.2537 23.28ZM21.3738 22.12L22.0427 22.8633L22.4766 22.4728L22.3499 21.9031L21.3738 22.12ZM21.3738 21.2L22.3353 21.4747L22.4756 20.9837L22.1601 20.5822L21.3738 21.2ZM21.2537 20.26L22.1482 20.7072L22.399 20.2056L22.1017 19.73L21.2537 20.26ZM21.1538 19.86H22.1538V18.0648L20.6274 19.0097L21.1538 19.86ZM19.8338 20.06L20.1211 19.1022L19.4318 18.8954L19.0168 19.4833L19.8338 20.06ZM18.8538 20.36L19.2251 19.4315L18.7123 19.2264L18.2656 19.5513L18.8538 20.36ZM18.8538 18.72L18.7589 19.7155L19.3173 19.7687L19.6538 19.32L18.8538 18.72ZM19.2138 18.48L18.9197 17.5242L18.9086 17.5276L18.8975 17.5313L19.2138 18.48ZM20.1538 18.46L19.7598 19.3791L20.2823 19.603L20.7419 19.2687L20.1538 18.46ZM20.7538 18.3V19.3H21.7538V18.3H20.7538ZM20.8738 18.1L21.4285 18.932L21.4419 18.9231L21.455 18.9137L20.8738 18.1ZM21.1538 18.02L21.0123 19.0099L21.3453 19.0575L21.6394 18.8942L21.1538 18.02ZM22.4738 18.02L21.8925 18.8337L21.996 18.9077L22.1148 18.9533L22.4738 18.02ZM22.8938 18.42L22.0114 18.8906L22.0183 18.9035L22.0255 18.9161L22.8938 18.42ZM22.8538 19.62L22.1138 18.9473L21.391 19.7424L22.2359 20.4063L22.8538 19.62ZM22.9738 20.76L22.2263 20.0956L21.8157 20.5576L22.0453 21.1314L22.9738 20.76ZM22.8538 22.68L21.9855 22.1839L21.5224 22.9943L22.2991 23.512L22.8538 22.68ZM23.0138 24.16L22.1396 23.6744L21.9044 24.0976L22.0907 24.5446L23.0138 24.16ZM23.0338 24.92L22.1655 24.4239L21.8589 24.9605L22.2017 25.4747L23.0338 24.92ZM23.0338 25.74L22.1559 25.2611L21.9056 25.7199L22.1393 26.1872L23.0338 25.74ZM23.1138 28.06L22.2018 27.6496L21.9747 28.1543L22.2817 28.6147L23.1138 28.06ZM23.0938 28.92L22.2745 28.3465L21.933 28.8345L22.1993 29.3672L23.0938 28.92ZM22.2012 30.8086C22.3435 31.0625 22.3538 31.1831 22.3538 31.2H24.3538C24.3538 30.7102 24.1774 30.2441 23.9463 29.8314L22.2012 30.8086ZM22.3538 31.2C22.3538 31.2049 22.3533 31.1996 22.3562 31.1866C22.3593 31.1732 22.365 31.156 22.3745 31.1377C22.3953 31.0972 22.4171 31.0829 22.4083 31.0893L23.5792 32.7107C24.0767 32.3514 24.3538 31.818 24.3538 31.2H22.3538ZM22.4793 31.0425C22.4825 31.0405 22.4944 31.0341 22.514 31.0285C22.534 31.0228 22.5549 31.02 22.5738 31.02V33.02C22.9127 33.02 23.2292 32.9249 23.5082 32.7575L22.4793 31.0425ZM22.5738 31.02C22.5796 31.02 22.5873 31.0205 22.5962 31.022C22.605 31.0236 22.6132 31.0258 22.6201 31.0283C22.6347 31.0335 22.6358 31.0369 22.6235 31.0274L21.404 32.6126C21.7349 32.8671 22.1323 33.02 22.5738 33.02V31.02ZM22.6539 31.0518C22.6663 31.0621 22.6869 31.0837 22.7042 31.1159C22.7213 31.1476 22.7255 31.1714 22.726 31.176L20.7415 31.424C20.7985 31.88 21.0119 32.2869 21.3736 32.5882L22.6539 31.0518ZM22.5338 30.7C22.4742 30.6206 22.4338 30.522 22.4338 30.36H20.4338C20.4338 30.918 20.5933 31.4461 20.9338 31.9L22.5338 30.7ZM22.4338 30.36C22.4338 30.2842 22.4431 30.2057 22.4639 30.1225L20.5236 29.6375C20.4644 29.8743 20.4338 30.1158 20.4338 30.36H22.4338ZM22.4154 29.4919C22.3588 29.3576 22.3338 29.2293 22.3338 29.1H20.3338C20.3338 29.5041 20.4154 29.8958 20.5721 30.2681L22.4154 29.4919ZM22.3338 29.1C22.3338 29.0122 22.3419 28.9572 22.3486 28.9278C22.3551 28.8993 22.3584 28.903 22.3454 28.9241L20.6421 27.8759C20.4047 28.2617 20.3338 28.6988 20.3338 29.1H22.3338ZM22.4168 28.0154C22.3919 27.9555 22.3938 27.9329 22.3938 27.94H20.3938C20.3938 28.2404 20.4623 28.5245 20.5707 28.7846L22.4168 28.0154ZM22.3938 27.94C22.3938 27.884 22.4014 27.8595 22.4024 27.8562L20.5051 27.2238C20.4261 27.4605 20.3938 27.7026 20.3938 27.94H22.3938ZM22.3676 27.9461C22.3712 27.938 22.3338 28.0285 22.2085 28.112L21.099 26.448C20.8137 26.6382 20.643 26.902 20.5399 27.1339L22.3676 27.9461ZM22.5054 26.7559C22.4877 26.7271 22.4846 26.7154 22.4862 26.7202C22.487 26.7229 22.489 26.7296 22.4907 26.7401C22.4924 26.7507 22.4938 26.7642 22.4938 26.78H20.4938C20.4938 27.1692 20.6245 27.5155 20.8021 27.8041L22.5054 26.7559ZM22.4938 26.78C22.4938 26.811 22.4897 26.8461 22.48 26.8827C22.4702 26.9192 22.4565 26.9508 22.442 26.9761L20.7055 25.9839C20.5665 26.2271 20.4938 26.4979 20.4938 26.78H22.4938ZM22.2809 25.7729C22.2887 25.7807 22.2718 25.767 22.2441 25.7062L20.4234 26.5338C20.5291 26.7663 20.6721 26.9926 20.8666 27.1871L22.2809 25.7729ZM22.2824 25.8038C22.2581 25.7307 22.2537 25.6844 22.2537 25.66H20.2538C20.2538 25.9289 20.3027 26.1893 20.3851 26.4362L22.2824 25.8038ZM22.2537 25.66C22.2537 25.661 22.2537 25.6964 22.2335 25.7517C22.212 25.8109 22.1745 25.8735 22.1209 25.9271L20.7066 24.5129C20.37 24.8495 20.2538 25.2749 20.2538 25.66H22.2537ZM22.3943 25.0239C22.3983 25.0438 22.3976 25.0479 22.3962 25.0288C22.395 25.0113 22.3938 24.9825 22.3938 24.94H20.3938C20.3938 25.0841 20.4007 25.2539 20.4332 25.4161L22.3943 25.0239ZM22.3938 24.94C22.3938 24.9191 22.394 24.902 22.3945 24.8885C22.3949 24.8748 22.3955 24.8661 22.3958 24.8617C22.3962 24.857 22.3961 24.8595 22.3949 24.8677C22.3943 24.872 22.3933 24.8787 22.3916 24.8875C22.39 24.8961 22.3875 24.908 22.3839 24.9225L20.4436 24.4375C20.3983 24.6186 20.3938 24.811 20.3938 24.94H22.3938ZM22.1612 24.0156C22.2023 24.0619 22.2285 24.1119 22.2424 24.1538C22.2554 24.1927 22.2537 24.2119 22.2537 24.2H20.2538C20.2538 24.5824 20.3597 24.9994 20.6663 25.3444L22.1612 24.0156ZM22.2537 24.2C22.2537 24.182 22.2564 24.1964 22.2437 24.2297C22.2301 24.2657 22.2072 24.3007 22.1809 24.3271L20.7666 22.9129C20.4028 23.2767 20.2538 23.7399 20.2538 24.2H22.2537ZM22.1245 22.8607C22.1925 22.919 22.2036 22.966 22.1935 22.9383L20.314 23.6217C20.4105 23.8874 20.5683 24.161 20.823 24.3793L22.1245 22.8607ZM22.2024 22.9638C22.184 22.9086 22.1738 22.8489 22.1738 22.78H20.1738C20.1738 23.0578 20.2168 23.3314 20.3051 23.5962L22.2024 22.9638ZM22.1738 22.78C22.1738 22.734 22.1762 22.7018 22.1787 22.6813C22.1813 22.6605 22.1834 22.6564 22.1808 22.665C22.1759 22.6812 22.1448 22.7714 22.0427 22.8633L20.7048 21.3767C20.2447 21.7908 20.1738 22.3836 20.1738 22.78H22.1738ZM22.3499 21.9031C22.3254 21.7926 22.3095 21.7115 22.3001 21.6556C22.2955 21.6279 22.2934 21.6116 22.2926 21.6046C22.2915 21.5948 22.2938 21.6096 22.2938 21.64H20.2938C20.2938 21.8488 20.3488 22.1173 20.3976 22.3369L22.3499 21.9031ZM22.2938 21.64C22.2938 21.665 22.2911 21.6645 22.2976 21.6289C22.3036 21.5958 22.3151 21.5453 22.3353 21.4747L20.4122 20.9253C20.3506 21.141 20.2938 21.3936 20.2938 21.64H22.2938ZM22.1601 20.5822C22.1403 20.557 22.1396 20.5494 22.1437 20.5603C22.1458 20.5657 22.1485 20.5743 22.1506 20.5855C22.1527 20.5967 22.1538 20.6085 22.1538 20.62H20.1538C20.1538 21.084 20.3292 21.4892 20.5874 21.8178L22.1601 20.5822ZM22.1538 20.62C22.1538 20.6708 22.1459 20.7047 22.1423 20.7176C22.1388 20.7303 22.1382 20.7272 22.1482 20.7072L20.3593 19.8128C20.2492 20.0331 20.1538 20.3089 20.1538 20.62H22.1538ZM22.1017 19.73C22.1581 19.8202 22.1538 19.883 22.1538 19.86H20.1538C20.1538 20.157 20.216 20.4865 20.4058 20.79L22.1017 19.73ZM20.6274 19.0097C20.5007 19.0882 20.3822 19.12 20.2538 19.12V21.12C20.7653 21.12 21.2468 20.9785 21.6801 20.7103L20.6274 19.0097ZM20.2538 19.12C20.1992 19.12 20.1563 19.1127 20.1211 19.1022L19.5464 21.0178C19.7778 21.0873 20.015 21.12 20.2538 21.12V19.12ZM19.0168 19.4833C19.0205 19.4781 19.0298 19.4663 19.046 19.4522C19.0626 19.4379 19.0817 19.4253 19.1018 19.4155C19.144 19.395 19.1631 19.4 19.1338 19.4V21.4C19.7255 21.4 20.2815 21.1598 20.6507 20.6367L19.0168 19.4833ZM19.1338 19.4C19.109 19.4 19.1044 19.3985 19.1152 19.4C19.1243 19.4014 19.1657 19.4077 19.2251 19.4315L18.4824 21.2885C18.7204 21.3837 18.9604 21.4 19.1338 21.4V19.4ZM18.2656 19.5513C18.2625 19.5535 18.274 19.5446 18.3002 19.5355C18.3276 19.526 18.3603 19.52 18.3938 19.52V21.52C18.7927 21.52 19.1481 21.3824 19.4419 21.1687L18.2656 19.5513ZM18.3938 19.52C18.4156 19.52 18.4441 19.5248 18.4711 19.536C18.4964 19.5465 18.5029 19.5553 18.492 19.5452L17.1355 21.0148C17.4724 21.3258 17.9016 21.52 18.3938 21.52V19.52ZM18.492 19.5452C18.4992 19.5518 18.5198 19.5743 18.5363 19.6124C18.5526 19.6501 18.5538 19.6771 18.5538 19.68H16.5538C16.5538 20.1936 16.753 20.6618 17.1355 21.0148L18.492 19.5452ZM18.5538 19.68C18.5538 19.7063 18.5499 19.7367 18.5408 19.7677C18.5318 19.7986 18.5199 19.822 18.5104 19.8372C18.4927 19.8653 18.4927 19.8502 18.5571 19.8062L17.4304 18.1538C16.9638 18.4719 16.5538 18.9777 16.5538 19.68H18.5538ZM18.5571 19.8062C18.6348 19.7533 18.6884 19.7312 18.7181 19.7222C18.7453 19.714 18.7565 19.7153 18.7589 19.7155L18.9486 17.7245C18.3805 17.6704 17.8648 17.8576 17.4304 18.1538L18.5571 19.8062ZM19.6538 19.32C19.5829 19.4145 19.5117 19.4348 19.53 19.4287L18.8975 17.5313C18.5958 17.6319 18.2846 17.8122 18.0537 18.12L19.6538 19.32ZM19.5078 19.4358C19.5766 19.4146 19.6633 19.4 19.7738 19.4V17.4C19.4842 17.4 19.1975 17.4387 18.9197 17.5242L19.5078 19.4358ZM19.7738 19.4C19.7931 19.4 19.8077 19.4006 19.8179 19.4013C19.8282 19.402 19.8329 19.4028 19.8328 19.4028C19.8327 19.4028 19.8262 19.4017 19.8144 19.3985C19.8026 19.3953 19.7838 19.3894 19.7598 19.3791L20.5477 17.5409C20.2789 17.4257 19.9998 17.4 19.7738 17.4V19.4ZM20.7419 19.2687C20.7229 19.2826 20.7058 19.2919 20.6928 19.298C20.68 19.3039 20.6722 19.306 20.6714 19.3062C20.6708 19.3064 20.6767 19.3048 20.6906 19.3031C20.7045 19.3015 20.7253 19.3 20.7538 19.3V17.3C20.3707 17.3 19.9391 17.3796 19.5656 17.6513L20.7419 19.2687ZM21.7538 18.3C21.7538 18.4357 21.7173 18.5778 21.6412 18.7045C21.5692 18.8245 21.4832 18.8956 21.4285 18.932L20.319 17.2679C20.0253 17.4638 19.7538 17.8149 19.7538 18.3H21.7538ZM21.455 18.9137C21.4252 18.935 21.3696 18.9683 21.2885 18.9915C21.2041 19.0156 21.109 19.0238 21.0123 19.0099L21.2952 17.03C20.8944 16.9728 20.5472 17.1044 20.2925 17.2863L21.455 18.9137ZM21.6394 18.8942C21.7621 18.826 21.8295 18.82 21.8538 18.82V16.82C21.4247 16.82 21.0254 16.9473 20.6681 17.1458L21.6394 18.8942ZM21.8538 18.82C21.8612 18.82 21.8658 18.8205 21.8679 18.8209C21.8701 18.8212 21.8712 18.8215 21.8717 18.8217C21.8724 18.8219 21.8739 18.8224 21.8768 18.8239C21.8797 18.8254 21.8849 18.8283 21.8925 18.8337L23.055 17.2063C22.7009 16.9534 22.2915 16.82 21.8538 16.82V18.82ZM22.1148 18.9533C22.0735 18.9375 22.0405 18.9145 22.0191 18.8941C21.9997 18.8757 21.9999 18.869 22.0114 18.8906L23.7761 17.9494C23.5823 17.586 23.2772 17.2576 22.8327 17.0867L22.1148 18.9533ZM22.0255 18.9161C22.0465 18.9529 22.0538 18.9821 22.0538 19.02H24.0538C24.0538 18.6312 23.9543 18.2604 23.762 17.9239L22.0255 18.9161ZM22.0538 19.02C22.0538 19.0602 22.0484 19.0639 22.0551 19.0438C22.0585 19.0334 22.0647 19.0182 22.0751 19.0003C22.0855 18.9822 22.0985 18.9641 22.1138 18.9473L23.5937 20.2927C23.9369 19.9151 24.0538 19.4506 24.0538 19.02H22.0538ZM22.2359 20.4063C22.2212 20.3948 22.2039 20.3782 22.1869 20.3564C22.1699 20.3346 22.1568 20.3119 22.1476 20.2908C22.1289 20.2482 22.1338 20.2306 22.1338 20.26H24.1338C24.1338 19.7349 23.9442 19.2051 23.4716 18.8337L22.2359 20.4063ZM22.1338 20.26C22.1338 20.285 22.1304 20.2742 22.1413 20.2402C22.1533 20.2028 22.1789 20.149 22.2263 20.0956L23.7212 21.4244C24.0377 21.0682 24.1338 20.6364 24.1338 20.26H22.1338ZM22.0453 21.1314C22.0625 21.1746 22.0938 21.2909 22.0938 21.52H24.0938C24.0938 21.1358 24.045 20.7454 23.9022 20.3886L22.0453 21.1314ZM22.0938 21.52C22.0938 21.9239 22.0251 22.1145 21.9855 22.1839L23.722 23.1761C24.0024 22.6855 24.0938 22.1027 24.0938 21.52H22.0938ZM22.2991 23.512C22.2918 23.5072 22.278 23.4967 22.2625 23.4791C22.2467 23.4613 22.2338 23.4416 22.2245 23.4225C22.2055 23.3833 22.2138 23.3728 22.2138 23.42H24.2138C24.2138 22.8128 23.9735 22.2246 23.4085 21.8479L22.2991 23.512ZM22.2138 23.42C22.2138 23.4893 22.1975 23.5701 22.1396 23.6744L23.8879 24.6456C24.0967 24.2699 24.2138 23.8573 24.2138 23.42H22.2138ZM22.0907 24.5446C22.1074 24.5847 22.1139 24.6082 22.1159 24.6166C22.118 24.6253 22.1138 24.6116 22.1138 24.58H24.1138C24.1138 24.2831 24.0335 24.0075 23.9368 23.7754L22.0907 24.5446ZM22.1138 24.58C22.1138 24.58 22.1138 24.58 22.1138 24.58C22.1138 24.58 22.1138 24.58 22.1138 24.58C22.1138 24.5799 22.1138 24.5799 22.1138 24.5798C22.1138 24.5797 22.1138 24.5795 22.1138 24.5793C22.1138 24.5788 22.1138 24.5781 22.1138 24.5772C22.1139 24.5753 22.1141 24.5725 22.1145 24.5688C22.1153 24.5613 22.117 24.5502 22.1203 24.536C22.1272 24.5067 22.1407 24.4673 22.1655 24.4239L23.902 25.4161C24.0601 25.1394 24.1138 24.846 24.1138 24.58H22.1138ZM22.2017 25.4747C22.1888 25.4553 22.1754 25.4289 22.1659 25.3973C22.1565 25.3659 22.1537 25.3388 22.1537 25.32H24.1537C24.1537 24.9795 24.0573 24.6525 23.8658 24.3653L22.2017 25.4747ZM22.1537 25.32C22.1537 25.2488 22.1757 25.2249 22.1559 25.2611L23.9116 26.2189C24.0518 25.9618 24.1537 25.6578 24.1537 25.32H22.1537ZM22.1393 26.1872C22.2222 26.3529 22.2937 26.6267 22.2937 27.06H24.2937C24.2937 26.4266 24.192 25.8204 23.9282 25.2928L22.1393 26.1872ZM22.2937 27.06C22.2937 27.3675 22.2466 27.5502 22.2018 27.6496L24.0257 28.4704C24.2209 28.0365 24.2937 27.5525 24.2937 27.06H22.2937ZM22.2817 28.6147C22.2638 28.5878 22.2504 28.5582 22.2422 28.5297C22.2343 28.502 22.2338 28.4838 22.2338 28.48H24.2338C24.2338 28.145 24.1471 27.8073 23.9458 27.5053L22.2817 28.6147ZM22.2338 28.48C22.2338 28.4612 22.2367 28.4353 22.2458 28.4068C22.2549 28.3784 22.2666 28.3579 22.2745 28.3465L23.913 29.4935C24.1218 29.1951 24.2338 28.8489 24.2338 28.48H22.2338ZM22.1993 29.3672C22.1776 29.3238 22.1783 29.3061 22.1833 29.3349C22.188 29.362 22.1938 29.4148 22.1938 29.5H24.1938C24.1938 29.1859 24.1568 28.8101 23.9882 28.4728L22.1993 29.3672ZM22.1938 29.5C22.1938 29.6488 22.1701 29.8328 22.109 30.0569L24.0385 30.5831C24.1374 30.2206 24.1938 29.8579 24.1938 29.5H22.1938Z" fill="#1D2654"/>
<path d="M11.7 16.5415C13 15.0415 15 13.5415 17 13.0415" stroke="#DCDCDC" stroke-width="0.5" stroke-linecap="round" stroke-linejoin="round"/>
<path d="M4 12L5.36836 14.1166L7.80423 14.7639L6.21406 16.7194L6.35114 19.2361L4 18.328L1.64886 19.2361L1.78594 16.7194L0.195774 14.7639L2.63164 14.1166L4 12Z" fill="#FFDC77"/>
<path d="M38 32L39.3684 34.1166L41.8042 34.7639L40.2141 36.7194L40.3511 39.2361L38 38.328L35.6489 39.2361L35.7859 36.7194L34.1958 34.7639L36.6316 34.1166L38 32Z" fill="#FFDC77"/>
<path d="M37.5 14L38.1173 14.8827L39 15.5L38.1173 16.1173L37.5 17L36.8827 16.1173L36 15.5L36.8827 14.8827L37.5 14Z" fill="#FF6854"/>
<path d="M7.5 34L8.52884 35.4712L10 36.5L8.52884 37.5288L7.5 39L6.47116 37.5288L5 36.5L6.47116 35.4712L7.5 34Z" fill="#FF6854"/>
<path d="M28.5 28L29.9404 30.0596L32 31.5L29.9404 32.9404L28.5 35L27.0596 32.9404L25 31.5L27.0596 30.0596L28.5 28Z" fill="white"/>
<defs>
<linearGradient id="paint0_linear_1375_8836" x1="21" y1="14" x2="21" y2="36" gradientUnits="userSpaceOnUse">
<stop stop-color="#FFE7A2"/>
<stop offset="1" stop-color="#F9CD4F"/>
</linearGradient>
</defs>
</svg>
