<svg width="42" height="42" viewBox="0 0 42 42" fill="none" xmlns="http://www.w3.org/2000/svg">
<path d="M7.69445 8.03462C7.69445 8.03462 8.83892 6.98061 10.0509 6.05789L16.7994 19.1868L14.1055 20.507L7.69445 8.03462Z" fill="#FBCB43"/>
<path d="M14.7492 3.65704C16.2303 3.25986 17.7796 2.99365 17.7796 2.99365L24.1907 15.4661L21.4977 16.7859L14.7492 3.65704Z" fill="#FF6854"/>
<path d="M9.96099 5.93558C9.96099 5.93558 11.0079 5.09502 12.1927 4.52005C13.3775 3.94509 14.7001 3.63573 14.7001 3.63573L21.5945 16.9158L16.8553 19.2156L9.96099 5.93558Z" fill="white"/>
<path d="M12.1037 4.39753C10.8901 4.98235 9.81782 5.83758 9.81782 5.83758C8.74557 6.69281 7.74398 7.68317 7.74398 7.68317L14.4593 20.5275L21.741 17.0186L24.1685 15.8488L17.4532 3.00445C17.4532 3.00445 16.027 3.18402 14.6723 3.49829C14.6723 3.49829 13.3173 3.81271 12.1037 4.39753Z" stroke="#1D2654" stroke-width="1.5" stroke-linejoin="round"/>
<path d="M24.2204 2.99336C24.2204 2.99336 25.768 3.25876 27.2481 3.65545L20.4996 16.7843L17.8093 15.4658L24.2204 2.99336Z" fill="#FBCB43"/>
<path d="M31.949 6.05762C33.1606 6.98018 34.3054 8.03435 34.3054 8.03435L27.8944 20.5068L25.2005 19.1865L31.949 6.05762Z" fill="#FF6854"/>
<path d="M27.2996 3.63535C27.2996 3.63535 28.6222 3.94472 29.807 4.51968C30.9918 5.09464 32.0387 5.93521 32.0387 5.93521L25.1444 19.2153L20.4052 16.9154L27.2996 3.63535Z" fill="white"/>
<path d="M29.896 4.39709C28.6824 3.81227 27.3274 3.49785 27.3274 3.49785C25.9724 3.18344 24.5468 3.00416 24.5468 3.00416L17.8315 15.8485L25.1131 19.3575L27.5407 20.5272L34.256 7.68288C34.256 7.68288 33.2538 6.69223 32.1819 5.83714C32.1819 5.83714 31.1096 4.98191 29.896 4.39709Z" stroke="#1D2654" stroke-width="1.5" stroke-linejoin="round"/>
<circle cx="21" cy="25" r="14" fill="#E4730A" stroke="#1D2654" stroke-width="1.5"/>
<path d="M21 11C13.268 11 7 17.2534 7 24.9673C7 27.9574 7.94174 30.728 9.54545 33C9.54545 33 15.2727 26.872 21 24.9673C26.7273 23.0627 35 24.9673 35 24.9673C35 17.2534 28.732 11 21 11Z" fill="#C9660A"/>
<circle cx="21" cy="25" r="14" stroke="#1D2654" stroke-width="1.5"/>
<circle cx="21" cy="26" r="11" fill="#C9660A"/>
<circle cx="21" cy="25" r="11" fill="url(#paint0_linear_1375_8520)"/>
<path d="M21 14C14.9249 14 10 18.9249 10 25C10 27.3548 10.7399 29.5368 12 31.3262C12 31.3262 16.5 26.5 21 25C25.5 23.5 32 25 32 25C32 18.9249 27.0751 14 21 14Z" fill="#F79D49"/>
<path d="M24.9438 19.96C25.2238 20.16 25.3638 20.4333 25.3638 20.78C25.3638 20.8733 25.3372 21.0133 25.2838 21.2C25.4038 21.28 25.4638 21.4267 25.4638 21.64C25.4638 21.84 25.4038 22.0333 25.2838 22.22C25.3372 22.2733 25.3638 22.36 25.3638 22.48C25.3638 22.6267 25.3172 22.78 25.2238 22.94C25.1438 23.1 25.0372 23.2133 24.9038 23.28C24.8905 23.56 24.7972 23.8267 24.6238 24.08C24.4505 24.32 24.2505 24.4733 24.0238 24.54C24.2638 24.62 24.4705 24.7667 24.6438 24.98C24.8172 25.1933 24.9038 25.4267 24.9038 25.68C24.9038 25.7467 24.8905 25.8333 24.8638 25.94C24.9972 26.02 25.0905 26.18 25.1438 26.42C25.2105 26.6467 25.2438 26.8533 25.2438 27.04C25.3505 27.1867 25.4038 27.42 25.4038 27.74C25.4038 27.9533 25.3772 28.16 25.3238 28.36C25.2705 28.5467 25.1972 28.6867 25.1038 28.78C25.1438 28.9 25.1638 29.0067 25.1638 29.1C25.1638 29.3 25.0638 29.5 24.8638 29.7C24.8372 29.8467 24.7705 29.9867 24.6638 30.12C24.5572 30.2533 24.4305 30.3533 24.2838 30.42C24.2572 30.66 24.1705 30.8467 24.0238 30.98C23.8772 31.1 23.6572 31.22 23.3638 31.34C23.0572 31.6467 22.7105 31.8 22.3238 31.8C22.1905 31.8 22.0838 31.7933 22.0038 31.78C21.8838 31.9 21.7238 31.9867 21.5238 32.04C21.3238 32.1067 21.1172 32.14 20.9038 32.14C20.5305 32.14 20.2572 32.0533 20.0838 31.88L19.9038 31.9C19.6638 31.9 19.3838 31.8467 19.0638 31.74C18.7572 31.6333 18.5172 31.5133 18.3438 31.38C17.8505 31.1267 17.5305 30.66 17.3838 29.98C17.1438 29.78 17.0438 29.5733 17.0838 29.36C16.8438 29.1733 16.7238 28.96 16.7238 28.72C16.7238 28.5067 16.8038 28.32 16.9638 28.16C17.1372 27.9867 17.3305 27.9 17.5438 27.9C17.8105 27.9 18.0305 28.0333 18.2038 28.3C18.3505 28.3667 18.4638 28.48 18.5438 28.64C18.6238 28.8 18.6505 28.96 18.6238 29.12C18.7438 29.0933 18.9105 29.2 19.1238 29.44C19.3372 29.6667 19.4438 29.8667 19.4438 30.04C19.4972 30.0133 19.5638 30 19.6438 30C19.8438 30 20.0905 30.06 20.3838 30.18C20.6772 30.2867 20.8638 30.4 20.9438 30.52C20.9572 30.4 21.1105 30.2867 21.4038 30.18C21.6972 30.06 21.9172 30.0267 22.0638 30.08C22.2105 29.8933 22.4305 29.8 22.7238 29.8C22.7238 29.6267 22.7638 29.4733 22.8438 29.34C22.9372 29.1933 23.0572 29.0867 23.2038 29.02C23.2038 28.9667 23.2372 28.9067 23.3038 28.84C23.2905 28.8 23.2838 28.7267 23.2838 28.62C23.2838 28.4733 23.3172 28.34 23.3838 28.22C23.4505 28.0867 23.5372 27.9867 23.6438 27.92C23.5372 27.7467 23.4838 27.5067 23.4838 27.2L23.5038 27C23.4238 26.92 23.3505 26.7867 23.2838 26.6C23.2172 26.4133 23.1838 26.2467 23.1838 26.1C23.1838 26.02 23.1905 25.9667 23.2038 25.94C23.0838 25.94 22.9505 25.8933 22.8038 25.8C22.6705 25.7067 22.5505 25.5933 22.4438 25.46C22.3372 25.5133 22.1505 25.54 21.8838 25.54C21.4838 25.54 21.1705 25.4933 20.9438 25.4C20.5838 25.4133 20.3038 25.3333 20.1038 25.16C19.9038 24.9867 19.8038 24.78 19.8038 24.54C19.8038 24.3 19.9038 24.0933 20.1038 23.92C20.3038 23.7333 20.5838 23.6467 20.9438 23.66C21.0772 23.5933 21.2438 23.56 21.4438 23.56C21.5772 23.56 21.6838 23.58 21.7638 23.62C21.8705 23.5133 22.0238 23.46 22.2238 23.46C22.3172 23.46 22.3905 23.4667 22.4438 23.48C22.5638 23.28 22.8372 23.12 23.2638 23C23.2905 22.8 23.3238 22.6533 23.3638 22.56C23.4038 22.4533 23.4838 22.3533 23.6038 22.26C23.5638 22.1933 23.5438 22.12 23.5438 22.04C23.5438 21.92 23.5705 21.8067 23.6238 21.7C23.6772 21.58 23.7305 21.5133 23.7838 21.5C23.6238 21.4067 23.4972 21.2467 23.4038 21.02C23.3105 20.7933 23.2772 20.5667 23.3038 20.34C23.1572 20.34 22.9838 20.2733 22.7838 20.14C22.5838 20.0067 22.4838 19.88 22.4838 19.76C22.4172 19.7467 22.3372 19.7067 22.2438 19.64C22.1505 19.5733 22.0705 19.5133 22.0038 19.46L21.6238 19.48C21.5305 19.48 21.4305 19.46 21.3238 19.42C21.2038 19.5267 21.0505 19.62 20.8638 19.7C20.6772 19.7667 20.5105 19.8 20.3638 19.8C20.1772 20.0267 19.9372 20.14 19.6438 20.14C19.5638 20.22 19.4705 20.2933 19.3638 20.36C19.2572 20.4133 19.1438 20.44 19.0238 20.44C18.9838 20.5333 18.8505 20.6933 18.6238 20.92C18.6238 21.04 18.5838 21.1467 18.5038 21.24C18.4238 21.32 18.3238 21.3733 18.2038 21.4C18.1105 21.56 17.9838 21.6867 17.8238 21.78C17.6772 21.86 17.5238 21.9 17.3638 21.9C17.2038 21.9 17.0772 21.86 16.9838 21.78C16.8372 21.6467 16.7638 21.46 16.7638 21.22C16.7638 21.06 16.7905 20.9133 16.8438 20.78C16.9105 20.6333 16.9905 20.52 17.0838 20.44C17.0972 20.2133 17.1638 20.02 17.2838 19.86C17.4038 19.6867 17.5305 19.5733 17.6638 19.52C17.6905 19.2667 17.7572 19.0733 17.8638 18.94C17.9838 18.7933 18.1905 18.7133 18.4838 18.7C18.5505 18.58 18.6438 18.4867 18.7638 18.42C18.8972 18.34 19.0305 18.3 19.1638 18.3C19.2705 18.3 19.3638 18.32 19.4438 18.36C19.5905 18.1733 19.7705 18.08 19.9838 18.08C20.0238 18.08 20.0838 18.0933 20.1638 18.12C20.3105 17.8533 20.5438 17.72 20.8638 17.72L21.0438 17.74C21.1372 17.6867 21.2438 17.66 21.3638 17.66C21.5905 17.66 21.7905 17.7333 21.9638 17.88L22.1438 17.86C22.4372 17.86 22.7505 17.9533 23.0838 18.14C23.4172 18.3267 23.6505 18.5467 23.7838 18.8C24.0905 18.8133 24.3372 18.9333 24.5238 19.16C24.7238 19.3733 24.8638 19.64 24.9438 19.96Z" fill="white"/>
<path d="M24.9438 19.96L23.9737 20.2025L24.063 20.5597L24.3626 20.7737L24.9438 19.96ZM25.2838 21.2L24.3223 20.9253L24.1218 21.6271L24.7291 22.0321L25.2838 21.2ZM25.2838 22.22L24.4427 21.6792L24.0068 22.3572L24.5767 22.9271L25.2838 22.22ZM25.2238 22.94L24.36 22.4361L24.3438 22.464L24.3294 22.4928L25.2238 22.94ZM24.9038 23.28L24.4566 22.3856L23.9328 22.6475L23.905 23.2324L24.9038 23.28ZM24.6238 24.08L25.4345 24.6655L25.442 24.6552L25.4491 24.6447L24.6238 24.08ZM24.0238 24.54L23.7417 23.5806L20.6826 24.4804L23.7076 25.4887L24.0238 24.54ZM24.8638 25.94L23.8937 25.6975L23.714 26.4163L24.3493 26.7975L24.8638 25.94ZM25.1438 26.42L24.1676 26.6369L24.175 26.6698L24.1845 26.7022L25.1438 26.42ZM25.2438 27.04H24.2438V27.3652L24.4351 27.6282L25.2438 27.04ZM25.3238 28.36L26.2854 28.6347L26.2878 28.6262L26.2901 28.6177L25.3238 28.36ZM25.1038 28.78L24.3967 28.0729L23.9597 28.5099L24.1551 29.0962L25.1038 28.78ZM24.8638 29.7L24.1567 28.9929L23.9358 29.2138L23.88 29.5211L24.8638 29.7ZM24.6638 30.12L23.883 29.4953L23.883 29.4953L24.6638 30.12ZM24.2838 30.42L23.87 29.5096L23.3527 29.7448L23.2899 30.3096L24.2838 30.42ZM24.0238 30.98L24.6571 31.754L24.6772 31.7375L24.6965 31.7199L24.0238 30.98ZM23.3638 31.34L22.9852 30.4145L22.799 30.4906L22.6567 30.6329L23.3638 31.34ZM22.0038 31.78L22.1682 30.7936L21.6606 30.709L21.2967 31.0729L22.0038 31.78ZM21.5238 32.04L21.2662 31.0738L21.2366 31.0816L21.2076 31.0913L21.5238 32.04ZM20.0838 31.88L20.7909 31.1729L20.4511 30.833L19.9734 30.8861L20.0838 31.88ZM19.9038 31.9V32.9H19.9592L20.0143 32.8939L19.9038 31.9ZM19.0638 31.74L18.7353 32.6846L18.7476 32.6887L19.0638 31.74ZM18.3438 31.38L18.9535 30.5874L18.8815 30.532L18.8006 30.4904L18.3438 31.38ZM17.3838 29.98L18.3613 29.7692L18.2887 29.4324L18.024 29.2118L17.3838 29.98ZM17.0838 29.36L18.0667 29.5443L18.1791 28.945L17.6978 28.5706L17.0838 29.36ZM16.9638 28.16L17.6709 28.8671L17.6709 28.8671L16.9638 28.16ZM18.2038 28.3L17.3654 28.845L17.5244 29.0896L17.79 29.2104L18.2038 28.3ZM18.5438 28.64L19.4383 28.1928L19.4383 28.1928L18.5438 28.64ZM18.6238 29.12L17.6374 28.9556L17.3937 30.4177L18.8408 30.0962L18.6238 29.12ZM19.1238 29.44L18.3764 30.1044L18.3859 30.115L18.3956 30.1254L19.1238 29.44ZM19.4438 30.04H18.4438V31.658L19.891 30.9344L19.4438 30.04ZM20.3838 30.18L20.0052 31.1055L20.0235 31.113L20.0421 31.1198L20.3838 30.18ZM20.9438 30.52L20.1118 31.0747L21.6346 33.3589L21.9377 30.6304L20.9438 30.52ZM21.4038 30.18L21.7456 31.1198L21.7642 31.113L21.7825 31.1055L21.4038 30.18ZM22.0638 30.08L21.7221 31.0198L22.4027 31.2673L22.8501 30.6978L22.0638 30.08ZM22.7238 29.8V30.8H23.7238V29.8H22.7238ZM22.8438 29.34L22.0002 28.8031L21.9931 28.8142L21.9863 28.8255L22.8438 29.34ZM23.2038 29.02L23.6176 29.9304L24.2038 29.6639V29.02H23.2038ZM23.3038 28.84L24.0109 29.5471L24.448 29.1101L24.2525 28.5238L23.3038 28.84ZM23.3838 28.22L24.258 28.7056L24.2685 28.6866L24.2783 28.6672L23.3838 28.22ZM23.6438 27.92L24.1738 28.768L25.016 28.2417L24.4955 27.3959L23.6438 27.92ZM23.4838 27.2L22.4888 27.1005L22.4838 27.1501V27.2H23.4838ZM23.5038 27L24.4989 27.0995L24.546 26.628L24.2109 26.2929L23.5038 27ZM23.2838 26.6L22.3421 26.9363L22.3421 26.9363L23.2838 26.6ZM23.2038 25.94L24.0983 26.3872L24.8219 24.94H23.2038V25.94ZM22.8038 25.8L22.2304 26.6192L22.2484 26.6318L22.267 26.6437L22.8038 25.8ZM22.4438 25.46L23.2247 24.8353L22.7197 24.204L21.9966 24.5656L22.4438 25.46ZM20.9438 25.4L21.3246 24.4753L21.1238 24.3926L20.9068 24.4007L20.9438 25.4ZM20.1038 25.16L19.4489 25.9157L19.4489 25.9157L20.1038 25.16ZM20.1038 23.92L20.7588 24.6757L20.7727 24.6636L20.7861 24.6511L20.1038 23.92ZM20.9438 23.66L20.9068 24.6593L21.1623 24.6688L21.391 24.5544L20.9438 23.66ZM21.7638 23.62L21.3166 24.5144L21.9613 24.8368L22.4709 24.3271L21.7638 23.62ZM22.4438 23.48L22.2013 24.4501L22.9201 24.6298L23.3013 23.9945L22.4438 23.48ZM23.2638 23L23.5346 23.9627L24.1681 23.7845L24.2551 23.1322L23.2638 23ZM23.3638 22.56L24.283 22.9539L24.2921 22.9327L24.3002 22.9111L23.3638 22.56ZM23.6038 22.26L24.2178 23.0494L24.9172 22.5053L24.4613 21.7455L23.6038 22.26ZM23.6238 21.7L24.5183 22.1472L24.5284 22.1269L24.5376 22.1061L23.6238 21.7ZM23.7838 21.5L24.0264 22.4701L26.41 21.8742L24.2877 20.6362L23.7838 21.5ZM23.3038 20.34L24.297 20.4568L24.4284 19.34H23.3038V20.34ZM22.7838 20.14L23.3385 19.308L23.3385 19.3079L22.7838 20.14ZM22.4838 19.76H23.4838V18.9402L22.6799 18.7794L22.4838 19.76ZM22.0038 19.46L22.6285 18.6791L22.3313 18.4414L21.9513 18.4614L22.0038 19.46ZM21.6238 19.48V20.48H21.6501L21.6764 20.4786L21.6238 19.48ZM21.3238 19.42L21.6749 18.4837L21.1102 18.2719L20.6595 18.6726L21.3238 19.42ZM20.8638 19.7L21.2002 20.6417L21.2293 20.6313L21.2578 20.6191L20.8638 19.7ZM20.3638 19.8V18.8H19.8919L19.5919 19.1643L20.3638 19.8ZM19.6438 20.14V19.14H19.2296L18.9367 19.4329L19.6438 20.14ZM19.3638 20.36L19.811 21.2544L19.8535 21.2332L19.8938 21.208L19.3638 20.36ZM19.0238 20.44V19.44H18.3644L18.1047 20.0461L19.0238 20.44ZM18.6238 20.92L17.9167 20.2129L17.6238 20.5058V20.92H18.6238ZM18.5038 21.24L19.2109 21.9471L19.2381 21.9199L19.2631 21.8908L18.5038 21.24ZM18.2038 21.4L17.9869 20.4238L17.5603 20.5186L17.34 20.8961L18.2038 21.4ZM17.8238 21.78L18.3027 22.6579L18.3153 22.651L18.3277 22.6438L17.8238 21.78ZM16.9838 21.78L16.3112 22.5199L16.322 22.5298L16.333 22.5393L16.9838 21.78ZM16.8438 20.78L15.9335 20.3662L15.9239 20.3872L15.9154 20.4086L16.8438 20.78ZM17.0838 20.44L17.7346 21.1993L18.0572 20.9228L18.0821 20.4987L17.0838 20.44ZM17.2838 19.86L18.0838 20.46L18.0952 20.4448L18.106 20.4292L17.2838 19.86ZM17.6638 19.52L18.0352 20.4485L18.5952 20.2245L18.6583 19.6247L17.6638 19.52ZM17.8638 18.94L17.0898 18.3067L17.083 18.3153L17.8638 18.94ZM18.4838 18.7L18.5292 19.699L19.0869 19.6736L19.358 19.1856L18.4838 18.7ZM18.7638 18.42L19.2495 19.2942L19.264 19.2861L19.2783 19.2775L18.7638 18.42ZM19.4438 18.36L18.9966 19.2544L19.7262 19.6192L20.2301 18.9778L19.4438 18.36ZM20.1638 18.12L19.8476 19.0687L20.6384 19.3323L21.04 18.6019L20.1638 18.12ZM20.8638 17.72L20.9743 16.7261L20.9192 16.72H20.8638V17.72ZM21.0438 17.74L20.9334 18.7339L21.2571 18.7699L21.54 18.6082L21.0438 17.74ZM21.9638 17.88L21.3179 18.6434L21.6465 18.9214L22.0743 18.8739L21.9638 17.88ZM22.1438 17.86V16.86H22.0884L22.0334 16.8661L22.1438 17.86ZM23.7838 18.8L22.8989 19.2657L23.1665 19.7741L23.7404 19.7991L23.7838 18.8ZM24.5238 19.16L23.7519 19.7957L23.7723 19.8205L23.7943 19.8439L24.5238 19.16ZM24.3626 20.7737C24.3768 20.7839 24.381 20.789 24.3796 20.7875C24.379 20.7867 24.3774 20.7849 24.3753 20.7818C24.3731 20.7787 24.3709 20.775 24.3688 20.7709C24.3667 20.7668 24.3651 20.7629 24.3639 20.7597C24.3627 20.7564 24.3622 20.7544 24.3621 20.754C24.3619 20.753 24.3638 20.7608 24.3638 20.78H26.3638C26.3638 20.1133 26.0702 19.5356 25.5251 19.1463L24.3626 20.7737ZM24.3638 20.78C24.3638 20.7681 24.3642 20.7592 24.3646 20.7538C24.3649 20.7484 24.3653 20.7454 24.3653 20.7452C24.3653 20.7452 24.3645 20.7523 24.3615 20.7679C24.3554 20.8 24.3434 20.8513 24.3223 20.9253L26.2454 21.4747C26.3029 21.2733 26.3638 21.0207 26.3638 20.78H24.3638ZM24.7291 22.0321C24.6067 21.9504 24.5311 21.841 24.4933 21.7486C24.4603 21.668 24.4638 21.6209 24.4638 21.64H26.4638C26.4638 21.2629 26.3537 20.7114 25.8385 20.3679L24.7291 22.0321ZM24.4638 21.64C24.4638 21.6383 24.4643 21.6367 24.4638 21.6386C24.463 21.6412 24.4585 21.6546 24.4427 21.6792L26.125 22.7608C26.3369 22.4311 26.4638 22.0524 26.4638 21.64H24.4638ZM24.5767 22.9271C24.4669 22.8173 24.413 22.7003 24.388 22.6191C24.3643 22.5421 24.3638 22.4895 24.3638 22.48H26.3638C26.3638 22.246 26.3169 21.8388 25.9909 21.5129L24.5767 22.9271ZM24.3638 22.48C24.3638 22.446 24.3694 22.4229 24.3722 22.4138C24.3746 22.4058 24.3735 22.413 24.36 22.4361L26.0876 23.4439C26.247 23.1706 26.3638 22.8446 26.3638 22.48H24.3638ZM24.3294 22.4928C24.3266 22.4985 24.3332 22.4835 24.3556 22.4596C24.3793 22.4344 24.4135 22.4072 24.4566 22.3856L25.351 24.1744C25.7142 23.9928 25.9614 23.7009 26.1183 23.3872L24.3294 22.4928ZM23.905 23.2324C23.9013 23.3099 23.8775 23.3999 23.7985 23.5153L25.4491 24.6447C25.7168 24.2534 25.8797 23.8101 25.9027 23.3276L23.905 23.2324ZM23.8131 23.4945C23.7738 23.5491 23.7461 23.5732 23.7354 23.5814C23.7265 23.5882 23.7293 23.5843 23.7417 23.5806L24.306 25.4994C24.7944 25.3557 25.1648 25.0389 25.4345 24.6655L23.8131 23.4945ZM23.7076 25.4887C23.7516 25.5033 23.8035 25.5316 23.8677 25.6106L25.4199 24.3494C25.1375 24.0018 24.7761 23.7367 24.3401 23.5913L23.7076 25.4887ZM23.8677 25.6106C23.8927 25.6413 23.8998 25.6589 23.9014 25.6632C23.9026 25.6664 23.9038 25.67 23.9038 25.68H25.9038C25.9038 25.1769 25.7249 24.7248 25.4199 24.3494L23.8677 25.6106ZM23.9038 25.68C23.9038 25.6637 23.9046 25.6525 23.9051 25.6471C23.9056 25.6416 23.9059 25.6401 23.9055 25.6429C23.905 25.6457 23.904 25.6517 23.9021 25.6611C23.9001 25.6705 23.8974 25.6826 23.8937 25.6975L25.834 26.1825C25.8694 26.0407 25.9038 25.864 25.9038 25.68H23.9038ZM24.3493 26.7975C24.2464 26.7357 24.192 26.6615 24.17 26.6239C24.1508 26.5908 24.1565 26.5869 24.1676 26.6369L26.12 26.2031C26.0409 25.847 25.8533 25.3675 25.3783 25.0825L24.3493 26.7975ZM24.1845 26.7022C24.231 26.8603 24.2438 26.9703 24.2438 27.04H26.2438C26.2438 26.7364 26.19 26.433 26.1032 26.1378L24.1845 26.7022ZM24.4351 27.6282C24.3879 27.5633 24.3833 27.5229 24.389 27.5478C24.3944 27.5716 24.4038 27.6316 24.4038 27.74H26.4038C26.4038 27.3516 26.3472 26.857 26.0526 26.4518L24.4351 27.6282ZM24.4038 27.74C24.4038 27.869 24.3878 27.9889 24.3576 28.1023L26.2901 28.6177C26.3665 28.3311 26.4038 28.0376 26.4038 27.74H24.4038ZM24.3623 28.0853C24.3565 28.1057 24.3514 28.1202 24.3477 28.1297C24.344 28.1393 24.3422 28.1426 24.343 28.141C24.3443 28.1385 24.3594 28.1102 24.3967 28.0729L25.8109 29.4871C26.0679 29.2301 26.2058 28.9133 26.2854 28.6347L24.3623 28.0853ZM24.1551 29.0962C24.1631 29.1199 24.1656 29.1323 24.166 29.1343C24.1664 29.1364 24.1638 29.1242 24.1638 29.1H26.1638C26.1638 28.8686 26.1153 28.652 26.0525 28.4638L24.1551 29.0962ZM24.1638 29.1C24.1638 29.0658 24.1682 29.0343 24.1749 29.0075C24.1816 28.981 24.1895 28.9626 24.1944 28.9528C24.2033 28.9351 24.1999 28.9497 24.1567 28.9929L25.5709 30.4071C25.8799 30.0981 26.1638 29.6588 26.1638 29.1H24.1638ZM23.88 29.5211C23.8814 29.513 23.8834 29.5056 23.8855 29.4992C23.8876 29.4927 23.8896 29.488 23.891 29.4851C23.8938 29.4791 23.8931 29.4827 23.883 29.4953L25.4447 30.7447C25.6397 30.5009 25.7873 30.2111 25.8477 29.8789L23.88 29.5211ZM23.883 29.4953C23.8744 29.5061 23.8695 29.5099 23.8692 29.5101C23.8689 29.5104 23.869 29.5102 23.8695 29.51C23.87 29.5097 23.8702 29.5095 23.87 29.5096L24.6976 31.3304C24.996 31.1948 25.2459 30.9932 25.4447 30.7447L23.883 29.4953ZM23.2899 30.3096C23.2865 30.3402 23.2825 30.3391 23.2918 30.3189C23.2965 30.3088 23.3039 30.2955 23.3146 30.2808C23.3253 30.2661 23.3378 30.2522 23.3512 30.2401L24.6965 31.7199C25.0605 31.389 25.2303 30.9572 25.2777 30.5304L23.2899 30.3096ZM23.3906 30.206C23.3552 30.235 23.2395 30.3104 22.9852 30.4145L23.7425 32.2655C24.0748 32.1296 24.3992 31.965 24.6571 31.754L23.3906 30.206ZM22.6567 30.6329C22.5127 30.7769 22.412 30.8 22.3238 30.8V32.8C23.009 32.8 23.6017 32.5164 24.0709 32.0471L22.6567 30.6329ZM22.3238 30.8C22.2731 30.8 22.2344 30.7987 22.2062 30.7969C22.177 30.7951 22.1658 30.7932 22.1682 30.7936L21.8394 32.7664C21.9971 32.7927 22.1657 32.8 22.3238 32.8V30.8ZM21.2967 31.0729C21.3097 31.0599 21.3188 31.055 21.3175 31.0557C21.3155 31.0568 21.3003 31.0647 21.2662 31.0738L21.7815 33.0062C22.1143 32.9175 22.4419 32.7562 22.7109 32.4871L21.2967 31.0729ZM21.2076 31.0913C21.1108 31.1236 21.011 31.14 20.9038 31.14V33.14C21.2233 33.14 21.5369 33.0897 21.8401 32.9887L21.2076 31.0913ZM20.9038 31.14C20.7905 31.14 20.7356 31.1264 20.7211 31.1218C20.7112 31.1186 20.7465 31.1285 20.7909 31.1729L19.3767 32.5871C19.8159 33.0262 20.4015 33.14 20.9038 33.14V31.14ZM19.9734 30.8861L19.7934 30.9061L20.0143 32.8939L20.1943 32.8739L19.9734 30.8861ZM19.9038 30.9C19.8051 30.9 19.6361 30.8767 19.3801 30.7913L18.7476 32.6887C19.1316 32.8167 19.5225 32.9 19.9038 32.9V30.9ZM19.3923 30.7955C19.1428 30.7087 19.0114 30.6319 18.9535 30.5874L17.7341 32.1726C18.0229 32.3948 18.3716 32.558 18.7353 32.6845L19.3923 30.7955ZM18.8006 30.4904C18.6398 30.4078 18.4624 30.2376 18.3613 29.7692L16.4063 30.1908C16.5986 31.0824 17.0612 31.8455 17.887 32.2696L18.8006 30.4904ZM18.024 29.2118C17.9762 29.1719 17.9989 29.1772 18.029 29.2394C18.0452 29.273 18.0618 29.3197 18.07 29.3773C18.0783 29.4356 18.0764 29.4927 18.0667 29.5443L16.101 29.1757C15.9669 29.8906 16.3613 30.4296 16.7436 30.7482L18.024 29.2118ZM17.6978 28.5706C17.6581 28.5398 17.6665 28.5362 17.6854 28.5697C17.6951 28.5869 17.7054 28.6104 17.713 28.6391C17.7207 28.6679 17.7238 28.6957 17.7238 28.72H15.7238C15.7238 29.3489 16.0576 29.8287 16.4699 30.1494L17.6978 28.5706ZM17.7238 28.72C17.7238 28.7418 17.719 28.7765 17.703 28.8139C17.6874 28.8501 17.6706 28.8674 17.6709 28.8671L16.2567 27.4529C15.9218 27.7878 15.7238 28.2241 15.7238 28.72H17.7238ZM17.6709 28.8671C17.6849 28.8532 17.6782 28.8639 17.6479 28.8775C17.615 28.8923 17.5772 28.9 17.5438 28.9V26.9C17.0253 26.9 16.5873 27.1223 16.2567 27.4529L17.6709 28.8671ZM17.5438 28.9C17.5263 28.9 17.5009 28.8977 17.4708 28.8895C17.4406 28.8812 17.4132 28.8689 17.3905 28.8552C17.3451 28.8276 17.3418 28.8087 17.3654 28.845L19.0423 27.755C18.7256 27.2678 18.2181 26.9 17.5438 26.9V28.9ZM17.79 29.2104C17.7548 29.1943 17.7203 29.1707 17.6917 29.1421C17.6641 29.1145 17.6519 29.0923 17.6494 29.0872L19.4383 28.1928C19.2678 27.8519 18.996 27.5616 18.6176 27.3896L17.79 29.2104ZM17.6494 29.0872C17.6495 29.0874 17.6476 29.0837 17.6451 29.0762C17.6426 29.0686 17.6397 29.0579 17.6374 29.0444C17.6326 29.0156 17.6326 28.9844 17.6374 28.9556L19.6102 29.2844C19.6752 28.8945 19.6026 28.5214 19.4383 28.1928L17.6494 29.0872ZM18.8408 30.0962C18.6798 30.132 18.5432 30.1132 18.4538 30.0882C18.3685 30.0644 18.3159 30.0326 18.2998 30.0223C18.273 30.0052 18.2979 30.016 18.3764 30.1044L19.8712 28.7756C19.7364 28.624 19.5713 28.4615 19.3779 28.3377C19.2017 28.225 18.8471 28.046 18.4069 28.1438L18.8408 30.0962ZM18.3956 30.1254C18.4276 30.1593 18.4495 30.1859 18.4638 30.205C18.4783 30.2243 18.4827 30.2328 18.4815 30.2306C18.4805 30.2289 18.4438 30.1602 18.4438 30.04H20.4438C20.4438 29.4739 20.114 29.033 19.852 28.7546L18.3956 30.1254ZM19.891 30.9344C19.7664 30.9967 19.6685 31 19.6438 31V29C19.4592 29 19.2279 29.0299 18.9966 29.1456L19.891 30.9344ZM19.6438 31C19.6604 31 19.7698 31.0093 20.0052 31.1055L20.7625 29.2545C20.4112 29.1107 20.0272 29 19.6438 29V31ZM20.0421 31.1198C20.0945 31.1388 20.1357 31.1559 20.1672 31.1703C20.199 31.1849 20.2172 31.1951 20.2249 31.1998C20.233 31.2048 20.2241 31.2003 20.2053 31.1838C20.1868 31.1676 20.1503 31.1325 20.1118 31.0747L21.7759 29.9653C21.6239 29.7373 21.4228 29.5873 21.2628 29.4902C21.0951 29.3884 20.9101 29.3073 20.7256 29.2402L20.0421 31.1198ZM21.9377 30.6304C21.8997 30.9726 21.6835 31.1342 21.6632 31.1492C21.6293 31.1742 21.6396 31.1583 21.7456 31.1198L21.0621 29.2402C20.8748 29.3083 20.6617 29.4024 20.4744 29.5408C20.3008 29.6691 20.0013 29.9474 19.9499 30.4096L21.9377 30.6304ZM21.7825 31.1055C21.8308 31.0858 21.8685 31.0727 21.8963 31.0644C21.91 31.0603 21.9204 31.0576 21.9278 31.056C21.9351 31.0543 21.9387 31.0537 21.9386 31.0537C21.9386 31.0537 21.9375 31.0539 21.9353 31.0541C21.9332 31.0543 21.93 31.0546 21.9256 31.0549C21.9171 31.0554 21.9036 31.0557 21.8856 31.0548C21.8502 31.0528 21.7924 31.0454 21.7221 31.0198L22.4056 29.1402C21.88 28.9491 21.3471 29.1228 21.0252 29.2545L21.7825 31.1055ZM22.8501 30.6978C22.8362 30.7155 22.8176 30.7346 22.7945 30.7523C22.7714 30.7699 22.7487 30.7824 22.7294 30.7906C22.6912 30.8068 22.6817 30.8 22.7238 30.8V28.8C22.2035 28.8 21.6582 28.9777 21.2775 29.4622L22.8501 30.6978ZM23.7238 29.8C23.7238 29.7906 23.7249 29.7944 23.7214 29.8074C23.7179 29.8211 23.7113 29.8379 23.7013 29.8545L21.9863 28.8255C21.8027 29.1316 21.7238 29.4668 21.7238 29.8H23.7238ZM23.6875 29.8769C23.6885 29.8753 23.6829 29.8843 23.6682 29.8974C23.653 29.9109 23.6352 29.9224 23.6176 29.9304L22.79 28.1096C22.4529 28.2629 22.189 28.5064 22.0002 28.8031L23.6875 29.8769ZM24.2038 29.02C24.2038 29.2052 24.1458 29.3437 24.103 29.4206C24.0613 29.4958 24.0207 29.5374 24.0109 29.5471L22.5967 28.1329C22.4751 28.2545 22.2038 28.5595 22.2038 29.02H24.2038ZM24.2525 28.5238C24.2691 28.5736 24.2767 28.6119 24.2799 28.63C24.2834 28.6497 24.2845 28.6622 24.2847 28.6645C24.285 28.6679 24.2838 28.6552 24.2838 28.62H22.2838C22.2838 28.7189 22.2843 28.9438 22.3551 29.1562L24.2525 28.5238ZM24.2838 28.62C24.2838 28.623 24.2834 28.6348 24.279 28.6525C24.2744 28.6707 24.2672 28.6891 24.258 28.7056L22.5097 27.7344C22.3548 28.0131 22.2838 28.3154 22.2838 28.62H24.2838ZM24.2783 28.6672C24.2788 28.666 24.2723 28.6794 24.2545 28.6999C24.2361 28.7212 24.2092 28.7459 24.1738 28.768L23.1138 27.072C22.8243 27.2529 22.623 27.5056 22.4894 27.7728L24.2783 28.6672ZM24.4955 27.3959C24.5111 27.4214 24.5074 27.4263 24.5 27.3931C24.4925 27.3592 24.4838 27.2975 24.4838 27.2H22.4838C22.4838 27.6046 22.5512 28.0525 22.7922 28.4441L24.4955 27.3959ZM24.4789 27.2995L24.4989 27.0995L22.5088 26.9005L22.4888 27.1005L24.4789 27.2995ZM24.2109 26.2929C24.2347 26.3167 24.2496 26.3359 24.2571 26.3464C24.2647 26.3569 24.267 26.3616 24.265 26.3581C24.2632 26.3547 24.2584 26.3455 24.2512 26.3292C24.2441 26.313 24.2355 26.2914 24.2256 26.2637L22.3421 26.9363C22.4265 27.1727 22.5609 27.4712 22.7967 27.7071L24.2109 26.2929ZM24.2256 26.2637C24.1848 26.1495 24.1838 26.0996 24.1838 26.1H22.1838C22.1838 26.3937 22.2495 26.6772 22.3421 26.9363L24.2256 26.2637ZM24.1838 26.1C24.1838 26.0835 24.1847 26.0949 24.1811 26.124C24.1792 26.1394 24.1749 26.1689 24.1652 26.2075C24.1562 26.2435 24.1373 26.3092 24.0983 26.3872L22.3094 25.4928C22.2266 25.6583 22.2045 25.812 22.1966 25.876C22.1862 25.9584 22.1838 26.0365 22.1838 26.1H24.1838ZM23.2038 24.94C23.2743 24.94 23.323 24.9537 23.3442 24.9611C23.3643 24.9682 23.3635 24.9708 23.3407 24.9563L22.267 26.6437C22.5059 26.7957 22.8264 26.94 23.2038 26.94V24.94ZM23.3773 24.9808C23.3258 24.9447 23.2748 24.8979 23.2247 24.8353L21.663 26.0847C21.8262 26.2888 22.0152 26.4686 22.2304 26.6192L23.3773 24.9808ZM21.9966 24.5656C22.0423 24.5427 22.0752 24.5331 22.0857 24.5302C22.0972 24.5271 22.0973 24.5279 22.0824 24.5301C22.0507 24.5346 21.9875 24.54 21.8838 24.54V26.54C22.1593 26.54 22.5565 26.5217 22.891 26.3544L21.9966 24.5656ZM21.8838 24.54C21.5422 24.54 21.378 24.4973 21.3246 24.4753L20.5631 26.3247C20.963 26.4893 21.4254 26.54 21.8838 26.54V24.54ZM20.9068 24.4007C20.8081 24.4043 20.7566 24.3936 20.7385 24.3885C20.7246 24.3845 20.7379 24.3862 20.7588 24.4043L19.4489 25.9157C19.9006 26.3071 20.4605 26.4186 20.9808 26.3993L20.9068 24.4007ZM20.7588 24.4043C20.7458 24.3931 20.7615 24.4033 20.779 24.4394C20.7977 24.4781 20.8038 24.5162 20.8038 24.54H18.8038C18.8038 25.1019 19.055 25.5744 19.4489 25.9157L20.7588 24.4043ZM20.8038 24.54C20.8038 24.5638 20.7977 24.6019 20.779 24.6406C20.7615 24.6767 20.7458 24.6869 20.7588 24.6757L19.4489 23.1643C19.055 23.5056 18.8038 23.9781 18.8038 24.54H20.8038ZM20.7861 24.6511C20.7787 24.658 20.7707 24.6637 20.7637 24.6677C20.7569 24.6716 20.7546 24.6718 20.7595 24.6703C20.7705 24.6669 20.8146 24.6559 20.9068 24.6593L20.9808 22.6607C20.4424 22.6407 19.8719 22.7686 19.4215 23.1889L20.7861 24.6511ZM21.391 24.5544C21.368 24.5659 21.3568 24.5672 21.3649 24.5656C21.3736 24.5639 21.3985 24.56 21.4438 24.56V22.56C21.1392 22.56 20.8079 22.6099 20.4966 22.7656L21.391 24.5544ZM21.4438 24.56C21.4621 24.56 21.4589 24.5615 21.4395 24.5579C21.4203 24.5543 21.3752 24.5437 21.3166 24.5144L22.211 22.7256C21.9409 22.5905 21.6625 22.56 21.4438 22.56V24.56ZM22.4709 24.3271C22.4096 24.3884 22.3421 24.4255 22.2873 24.4445C22.2371 24.462 22.2107 24.46 22.2238 24.46V22.46C21.8481 22.46 21.4059 22.5637 21.0567 22.9129L22.4709 24.3271ZM22.2238 24.46C22.2354 24.46 22.244 24.4602 22.2501 24.4605C22.2562 24.4607 22.2588 24.4609 22.2583 24.4609C22.2579 24.4609 22.2529 24.4604 22.2441 24.459C22.2355 24.4577 22.2208 24.455 22.2013 24.4501L22.6864 22.5099C22.5176 22.4677 22.3506 22.46 22.2238 22.46V24.46ZM23.3013 23.9945C23.2496 24.0807 23.2026 24.0973 23.244 24.073C23.2844 24.0494 23.3734 24.008 23.5346 23.9627L22.9931 22.0373C22.516 22.1715 21.914 22.4195 21.5863 22.9655L23.3013 23.9945ZM24.2551 23.1322C24.2656 23.0528 24.2758 22.9974 24.284 22.9616C24.293 22.922 24.2952 22.9254 24.283 22.9539L22.4447 22.1661C22.3488 22.3897 22.3019 22.648 22.2726 22.8678L24.2551 23.1322ZM24.3002 22.9111C24.257 23.0263 24.1962 23.0661 24.2178 23.0494L22.9899 21.4706C22.7714 21.6406 22.5507 21.8804 22.4275 22.2089L24.3002 22.9111ZM24.4613 21.7455C24.5174 21.8389 24.5438 21.9443 24.5438 22.04H22.5438C22.5438 22.2957 22.6103 22.5478 22.7463 22.7745L24.4613 21.7455ZM24.5438 22.04C24.5438 22.0547 24.5421 22.0734 24.5372 22.094C24.5324 22.1147 24.5254 22.1328 24.5183 22.1472L22.7294 21.2528C22.6062 21.4992 22.5438 21.7658 22.5438 22.04H24.5438ZM24.5376 22.1061C24.546 22.0872 24.532 22.1255 24.4847 22.1847C24.4456 22.2335 24.3009 22.4015 24.0264 22.4701L23.5413 20.5299C23.2134 20.6118 23.0154 20.8198 22.923 20.9353C22.8223 21.0612 22.755 21.1928 22.71 21.2939L24.5376 22.1061ZM24.2877 20.6362C24.3059 20.6468 24.3208 20.658 24.3323 20.6682C24.3436 20.6782 24.3502 20.686 24.3529 20.6893C24.3576 20.6953 24.3466 20.6831 24.3285 20.6392L22.4792 21.4007C22.629 21.7648 22.8773 22.1289 23.28 22.3638L24.2877 20.6362ZM24.3285 20.6392C24.295 20.5579 24.2917 20.5021 24.297 20.4568L22.3107 20.2232C22.2627 20.6313 22.326 21.0288 22.4792 21.4007L24.3285 20.6392ZM23.3038 19.34C23.343 19.34 23.3732 19.3444 23.3928 19.3485C23.4122 19.3526 23.4224 19.3565 23.4228 19.3567C23.4232 19.3568 23.4161 19.3541 23.4011 19.346C23.3861 19.338 23.3653 19.3258 23.3385 19.308L22.2291 20.972C22.4984 21.1516 22.8702 21.34 23.3038 21.34V19.34ZM23.3385 19.3079C23.2875 19.2739 23.3051 19.2765 23.3437 19.3254C23.3852 19.3779 23.4838 19.5285 23.4838 19.76H21.4838C21.4838 20.1115 21.6325 20.3855 21.7739 20.5646C21.9125 20.7402 22.0802 20.8727 22.2291 20.972L23.3385 19.3079ZM22.6799 18.7794C22.7562 18.7947 22.805 18.8175 22.821 18.8256C22.8386 18.8344 22.8405 18.8373 22.8251 18.8263L21.6626 20.4537C21.8025 20.5536 22.0184 20.6867 22.2877 20.7406L22.6799 18.7794ZM22.8251 18.8263C22.7419 18.7668 22.6772 18.718 22.6285 18.6791L21.3791 20.2409C21.4638 20.3086 21.5591 20.3798 21.6626 20.4537L22.8251 18.8263ZM21.9513 18.4614L21.5713 18.4814L21.6764 20.4786L22.0564 20.4586L21.9513 18.4614ZM21.6238 18.48C21.6736 18.48 21.6933 18.4906 21.6749 18.4837L20.9727 20.3563C21.1677 20.4294 21.3874 20.48 21.6238 20.48V18.48ZM20.6595 18.6726C20.6378 18.6918 20.5827 18.7325 20.4699 18.7809L21.2578 20.6191C21.5183 20.5075 21.7698 20.3615 21.9882 20.1674L20.6595 18.6726ZM20.5275 18.7583C20.4133 18.799 20.3635 18.8 20.3638 18.8V20.8C20.6575 20.8 20.941 20.7343 21.2002 20.6417L20.5275 18.7583ZM19.5919 19.1643C19.5862 19.1712 19.5854 19.1708 19.5906 19.1667C19.5961 19.1624 19.605 19.1563 19.6168 19.1508C19.6286 19.1452 19.639 19.1421 19.646 19.1406C19.6526 19.1392 19.6526 19.14 19.6438 19.14V21.14C20.2363 21.14 20.7594 20.8928 21.1358 20.4357L19.5919 19.1643ZM18.9367 19.4329C18.9158 19.4538 18.8834 19.481 18.8338 19.512L19.8938 21.208C20.0576 21.1056 20.2119 20.9862 20.3509 20.8471L18.9367 19.4329ZM18.9166 19.4656C18.931 19.4584 18.9491 19.4515 18.9698 19.4466C18.9905 19.4417 19.0091 19.44 19.0238 19.44V21.44C19.2981 21.44 19.5646 21.3776 19.811 21.2544L18.9166 19.4656ZM18.1047 20.0461C18.1184 20.0142 18.1308 19.9914 18.1378 19.9792C18.1452 19.9664 18.1501 19.9591 18.151 19.9578C18.1522 19.9561 18.1453 19.9662 18.1256 19.9898C18.0856 20.0378 18.0187 20.1109 17.9167 20.2129L19.3309 21.6271C19.4556 21.5025 19.5687 21.3822 19.662 21.2702C19.7399 21.1768 19.8628 21.021 19.943 20.8339L18.1047 20.0461ZM17.6238 20.92C17.6238 20.8666 17.6332 20.8037 17.6575 20.7389C17.6817 20.6744 17.7145 20.6243 17.7446 20.5892L19.2631 21.8908C19.4943 21.6211 19.6238 21.285 19.6238 20.92H17.6238ZM17.7967 20.5329C17.8266 20.503 17.8613 20.4773 17.8982 20.4576C17.9346 20.4383 17.9659 20.4285 17.9869 20.4238L18.4208 22.3762C18.7097 22.312 18.9848 22.1732 19.2109 21.9471L17.7967 20.5329ZM17.34 20.8961C17.3352 20.9045 17.3323 20.9073 17.3317 20.9079C17.3312 20.9084 17.3283 20.9114 17.32 20.9162L18.3277 22.6438C18.6367 22.4635 18.8874 22.2129 19.0676 21.9039L17.34 20.8961ZM17.345 20.9021C17.3393 20.9052 17.3401 20.904 17.3464 20.9024C17.3493 20.9016 17.3526 20.901 17.3559 20.9006C17.3593 20.9001 17.362 20.9 17.3638 20.9V22.9C17.6986 22.9 18.0159 22.8143 18.3027 22.6579L17.345 20.9021ZM17.3638 20.9C17.3692 20.9 17.4979 20.9035 17.6346 21.0207L16.333 22.5393C16.6564 22.8165 17.0385 22.9 17.3638 22.9V20.9ZM17.6565 21.0401C17.6982 21.0779 17.7308 21.1265 17.7496 21.1743C17.7667 21.2179 17.7638 21.2389 17.7638 21.22H15.7638C15.7638 21.6774 15.9127 22.1577 16.3112 22.5199L17.6565 21.0401ZM17.7638 21.22C17.7638 21.1727 17.7713 21.1538 17.7723 21.1514L15.9154 20.4086C15.8097 20.6728 15.7638 20.9473 15.7638 21.22H17.7638ZM17.7542 21.1938C17.7656 21.1687 17.7722 21.1597 17.7708 21.1617C17.7692 21.164 17.7581 21.1791 17.7346 21.1993L16.433 19.6807C16.2003 19.8802 16.0425 20.1263 15.9335 20.3662L17.7542 21.1938ZM18.0821 20.4987C18.084 20.4666 18.0887 20.4525 18.0892 20.451C18.0895 20.4501 18.0892 20.4511 18.088 20.4534C18.0868 20.4557 18.0853 20.458 18.0838 20.46L16.4838 19.26C16.2306 19.5976 16.1088 19.986 16.0856 20.3813L18.0821 20.4987ZM18.106 20.4292C18.1315 20.3924 18.1428 20.3838 18.1356 20.3902C18.1275 20.3975 18.0948 20.4246 18.0352 20.4485L17.2924 18.5915C16.9101 18.7444 16.6439 19.0275 16.4616 19.2908L18.106 20.4292ZM18.6583 19.6247C18.6656 19.5558 18.6757 19.521 18.6792 19.511C18.6824 19.5018 18.6755 19.5262 18.6447 19.5647L17.083 18.3153C16.8117 18.6544 16.7068 19.0594 16.6693 19.4153L18.6583 19.6247ZM18.6378 19.5732C18.571 19.6548 18.5002 19.6908 18.4698 19.7026C18.4455 19.712 18.4577 19.7022 18.5292 19.699L18.4384 17.701C18.016 17.7202 17.4688 17.8437 17.0899 18.3068L18.6378 19.5732ZM19.358 19.1856C19.348 19.2036 19.3326 19.2255 19.3109 19.2471C19.2893 19.2687 19.2674 19.2842 19.2495 19.2942L18.2782 17.5458C17.9949 17.7032 17.767 17.9311 17.6097 18.2144L19.358 19.1856ZM19.2783 19.2775C19.2819 19.2753 19.2728 19.2814 19.2512 19.2878C19.2287 19.2946 19.1987 19.3 19.1638 19.3V17.3C18.821 17.3 18.5119 17.405 18.2493 17.5625L19.2783 19.2775ZM19.1638 19.3C19.1449 19.3 19.0798 19.296 18.9966 19.2544L19.891 17.4656C19.6479 17.344 19.3961 17.3 19.1638 17.3V19.3ZM20.2301 18.9778C20.2302 18.9777 20.2056 19.0085 20.1491 19.0378C20.0895 19.0687 20.0288 19.08 19.9838 19.08V17.08C19.4262 17.08 18.9694 17.3453 18.6575 17.7422L20.2301 18.9778ZM19.9838 19.08C19.94 19.08 19.906 19.0765 19.8854 19.0737C19.8641 19.0709 19.8491 19.0678 19.8419 19.0662C19.8286 19.0632 19.8292 19.0625 19.8476 19.0687L20.4801 17.1713C20.3853 17.1397 20.1954 17.08 19.9838 17.08V19.08ZM21.04 18.6019C21.0367 18.608 21.0085 18.6519 20.945 18.6882C20.8841 18.723 20.8446 18.72 20.8638 18.72V16.72C20.5631 16.72 20.2469 16.7836 19.9527 16.9518C19.6558 17.1214 19.4376 17.3653 19.2876 17.6381L21.04 18.6019ZM20.7534 18.7139L20.9334 18.7339L21.1543 16.7461L20.9743 16.7261L20.7534 18.7139ZM21.54 18.6082C21.5053 18.628 21.4698 18.6418 21.4364 18.6501C21.4035 18.6584 21.3782 18.66 21.3638 18.66V16.66C21.0905 16.66 20.8091 16.7224 20.5477 16.8718L21.54 18.6082ZM21.3638 18.66C21.3664 18.66 21.3646 18.6602 21.3594 18.6593C21.3542 18.6584 21.3472 18.6567 21.3396 18.6539C21.3319 18.6511 21.3256 18.6479 21.3211 18.6453C21.3168 18.6427 21.3157 18.6415 21.3179 18.6434L22.6098 17.1166C22.2562 16.8175 21.8275 16.66 21.3638 16.66V18.66ZM22.0743 18.8739L22.2543 18.8539L22.0334 16.8661L21.8534 16.8861L22.0743 18.8739ZM22.1438 18.86C22.222 18.86 22.3673 18.8849 22.5952 19.0125L23.5724 17.2675C23.1337 17.0218 22.6524 16.86 22.1438 16.86V18.86ZM22.5952 19.0125C22.815 19.1356 22.8811 19.2319 22.8989 19.2657L24.6687 18.3343C24.4199 17.8614 24.0193 17.5177 23.5724 17.2675L22.5952 19.0125ZM23.7404 19.7991C23.7577 19.7998 23.7664 19.8017 23.7683 19.8022C23.7699 19.8026 23.767 19.802 23.7614 19.7992C23.7557 19.7965 23.7509 19.7933 23.7479 19.7909C23.7451 19.7886 23.7466 19.7893 23.7519 19.7957L25.2958 18.5243C24.9197 18.0677 24.4027 17.826 23.8273 17.8009L23.7404 19.7991ZM23.7943 19.8439C23.8635 19.9178 23.9296 20.0263 23.9737 20.2025L25.914 19.7175C25.798 19.2537 25.5841 18.8289 25.2534 18.4761L23.7943 19.8439Z" fill="#1D2654"/>
<path d="M11.7 16.5415C13 15.0415 15 13.5415 17 13.0415" stroke="#FFE3C9" stroke-width="0.5" stroke-linecap="round" stroke-linejoin="round"/>
<path d="M29.5 28L30.5288 29.4712L32 30.5L30.5288 31.5288L29.5 33L28.4712 31.5288L27 30.5L28.4712 29.4712L29.5 28Z" fill="white"/>
<defs>
<linearGradient id="paint0_linear_1375_8520" x1="21" y1="14" x2="21" y2="36" gradientUnits="userSpaceOnUse">
<stop stop-color="#FFCA99"/>
<stop offset="1" stop-color="#FFB774"/>
</linearGradient>
</defs>
</svg>
