<svg width="18" height="11" viewBox="0 0 18 11" fill="none" xmlns="http://www.w3.org/2000/svg"><g filter="url(#filter0_d_3733_70446)"><path d="M8.37628 8.50024C8.7415 8.79242 9.26045 8.79242 9.62567 8.50024L16.7749 2.78087C17.513 2.19036 17.0955 1 16.1502 1L1.85176 1C0.906479 1 0.488925 2.19036 1.22706 2.78087L8.37628 8.50024Z" fill="url(#paint0_linear_3733_70446)"/><path d="M8.37628 8.50024C8.7415 8.79242 9.26045 8.79242 9.62567 8.50024L16.7749 2.78087C17.513 2.19036 17.0955 1 16.1502 1L1.85176 1C0.906479 1 0.488925 2.19036 1.22706 2.78087L8.37628 8.50024Z" stroke="#1D2654"/></g><defs><filter id="filter0_d_3733_70446" x="0.348633" y="0.5" width="17.3047" height="9.71924" filterUnits="userSpaceOnUse" color-interpolation-filters="sRGB"><feFlood flood-opacity="0" result="BackgroundImageFix"/><feColorMatrix in="SourceAlpha" type="matrix" values="0 0 0 0 0 0 0 0 0 0 0 0 0 0 0 0 0 0 127 0" result="hardAlpha"/><feOffset dy="1"/><feComposite in2="hardAlpha" operator="out"/><feColorMatrix type="matrix" values="0 0 0 0 0.113837 0 0 0 0 0.1506 0 0 0 0 0.329167 0 0 0 1 0"/><feBlend mode="normal" in2="BackgroundImageFix" result="effect1_dropShadow_3733_70446"/><feBlend mode="normal" in="SourceGraphic" in2="effect1_dropShadow_3733_70446" result="shape"/></filter><linearGradient id="paint0_linear_3733_70446" x1="9.00098" y1="1" x2="9.00098" y2="9" gradientUnits="userSpaceOnUse"><stop stop-color="#FFF9D8"/><stop offset="1" stop-color="#B99178"/></linearGradient></defs></svg>