<svg width="26" height="22" viewBox="0 0 26 22" fill="none" xmlns="http://www.w3.org/2000/svg">
<g filter="url(#filter0_d_2536_125749)">
<path fill-rule="evenodd" clip-rule="evenodd" d="M3.78393 5.9393C3.20308 6.4704 2.90005 6.99073 2.84048 7.4654C2.80814 7.72299 2.90235 8.19025 3.19355 8.86493C3.47448 9.51582 3.90457 10.2838 4.44382 11.1073C5.52182 12.7536 7.00514 14.5751 8.50985 16.0572C8.61405 16.1599 8.67169 16.3007 8.66935 16.4469C8.66701 16.5932 8.6049 16.7321 8.49747 16.8313C7.74758 17.5242 7.33015 18.3268 7.15114 18.9691H18.8485C18.6695 18.3268 18.2521 17.5242 17.5022 16.8313C17.3947 16.7321 17.3326 16.5932 17.3303 16.4469C17.3279 16.3007 17.3856 16.1599 17.4898 16.0572C18.9945 14.5751 20.4778 12.7536 21.5558 11.1073C22.0951 10.2838 22.5252 9.51582 22.8061 8.86493C23.0973 8.19025 23.1915 7.72299 23.1592 7.4654C23.0996 6.99073 22.7965 6.4704 22.2157 5.9393C21.6394 5.41235 20.8307 4.91388 19.8581 4.48337C17.9128 3.62236 15.3955 3.07003 12.9998 3.07003C10.6041 3.07003 8.08684 3.62236 6.14157 4.48337C5.16892 4.91388 4.36025 5.41235 3.78393 5.9393ZM5.70849 3.50491C7.79239 2.58254 10.4574 2 12.9998 2C15.5422 2 18.2072 2.58254 20.2911 3.50491C21.3331 3.96609 22.2507 4.52143 22.9377 5.14962C23.6203 5.77366 24.1176 6.5098 24.2208 7.33214C24.2912 7.89242 24.0915 8.58685 23.7885 9.28896C23.4752 10.0149 23.0107 10.8388 22.451 11.6935C21.4218 13.2652 20.0447 14.9808 18.6185 16.4401C19.5359 17.4567 19.9636 18.6211 20.0187 19.4694C20.0283 19.617 19.9763 19.762 19.8752 19.87C19.774 19.9779 19.6327 20.0391 19.4848 20.0391H6.51481C6.36689 20.0391 6.22558 19.9779 6.12443 19.87C6.02329 19.762 5.97133 19.617 5.98092 19.4694C6.03601 18.6211 6.46372 17.4567 7.38113 16.4401C5.95491 14.9808 4.57782 13.2652 3.54863 11.6935C2.98896 10.8388 2.52443 10.0149 2.21112 9.28896C1.90809 8.58685 1.70846 7.89242 1.77878 7.33214C1.882 6.5098 2.37938 5.77366 3.06188 5.14962C3.74892 4.52143 4.66655 3.96609 5.70849 3.50491Z" fill="white" stroke="white" stroke-linecap="round" stroke-linejoin="round"/>
<path fill-rule="evenodd" clip-rule="evenodd" d="M12.9998 2.53516C8.06171 2.53516 2.63522 4.80491 2.30963 7.39891C2.10432 9.03465 5.07095 13.421 8.13441 16.4385C7.04279 17.4471 6.56791 18.6866 6.51481 19.5043H12.9998H19.4848C19.4317 18.6866 18.9569 17.4471 17.8652 16.4385C20.9287 13.421 23.8953 9.03465 23.69 7.39891C23.3644 4.80491 17.9379 2.53516 12.9998 2.53516Z" fill="#FF6854"/>
<path d="M6.57983 15.0008C12.3579 16.9268 18.6175 14.1983 21.025 12.5933L17.815 16.6058L19.42 19.8159H6.57983L8.18486 16.6058L6.57983 15.0008Z" fill="black" fill-opacity="0.2"/>
<path d="M4.17241 11.7908C8.02446 5.37067 15.4076 3.76565 18.6176 3.76565L17.0126 2.96313H8.98748L2.56738 6.17318V8.58072L4.17241 11.7908Z" fill="white" fill-opacity="0.7"/>
<path opacity="0.2" d="M12.9998 6.97571C8.5057 6.97571 4.70715 9.16924 3.36963 10.1858L5.29566 13.2353C6.31217 12.3258 9.01931 10.5068 12.9998 10.5068C16.9802 10.5068 19.4734 12.3258 20.3829 13.2353L22.3089 10.1858C21.0784 9.16924 17.4938 6.97571 12.9998 6.97571Z" fill="white"/>
<path fill-rule="evenodd" clip-rule="evenodd" d="M3.78393 5.9393C3.20308 6.4704 2.90005 6.99073 2.84048 7.4654C2.80814 7.72299 2.90235 8.19025 3.19355 8.86493C3.47448 9.51582 3.90457 10.2838 4.44382 11.1073C5.52182 12.7536 7.00514 14.5751 8.50985 16.0572C8.61405 16.1599 8.67169 16.3007 8.66935 16.4469C8.66701 16.5932 8.6049 16.7321 8.49747 16.8313C7.74758 17.5242 7.33015 18.3268 7.15114 18.9691H18.8485C18.6695 18.3268 18.2521 17.5242 17.5022 16.8313C17.3947 16.7321 17.3326 16.5932 17.3303 16.4469C17.3279 16.3007 17.3856 16.1599 17.4898 16.0572C18.9945 14.5751 20.4778 12.7536 21.5558 11.1073C22.0951 10.2838 22.5252 9.51582 22.8061 8.86493C23.0973 8.19025 23.1915 7.72299 23.1592 7.4654C23.0996 6.99073 22.7965 6.4704 22.2157 5.9393C21.6394 5.41235 20.8307 4.91388 19.8581 4.48337C17.9128 3.62236 15.3955 3.07003 12.9998 3.07003C10.6041 3.07003 8.08684 3.62236 6.14157 4.48337C5.16892 4.91388 4.36025 5.41235 3.78393 5.9393ZM5.70849 3.50491C7.79239 2.58254 10.4574 2 12.9998 2C15.5422 2 18.2072 2.58254 20.2911 3.50491C21.3331 3.96609 22.2507 4.52143 22.9377 5.14962C23.6203 5.77366 24.1176 6.5098 24.2208 7.33214C24.2912 7.89242 24.0915 8.58685 23.7885 9.28896C23.4752 10.0149 23.0107 10.8388 22.451 11.6935C21.4218 13.2652 20.0447 14.9808 18.6185 16.4401C19.5359 17.4567 19.9636 18.6211 20.0187 19.4694C20.0283 19.617 19.9763 19.762 19.8752 19.87C19.774 19.9779 19.6327 20.0391 19.4848 20.0391H6.51481C6.36689 20.0391 6.22558 19.9779 6.12443 19.87C6.02329 19.762 5.97133 19.617 5.98092 19.4694C6.03601 18.6211 6.46372 17.4567 7.38113 16.4401C5.95491 14.9808 4.57782 13.2652 3.54863 11.6935C2.98896 10.8388 2.52443 10.0149 2.21112 9.28896C1.90809 8.58685 1.70846 7.89242 1.77878 7.33214C1.882 6.5098 2.37938 5.77366 3.06188 5.14962C3.74892 4.52143 4.66655 3.96609 5.70849 3.50491Z" fill="#5C3317"/>
<path fill-rule="evenodd" clip-rule="evenodd" d="M10.9645 2.24747C10.8055 2.13122 10.5823 2.16589 10.4661 2.32491C10.3179 2.52759 10.2344 2.84596 10.1799 3.18897C10.1224 3.55094 10.0881 4.00721 10.0765 4.53791C10.0532 5.60069 10.1203 6.99145 10.29 8.58293C10.5951 11.444 11.2339 14.9755 12.2891 18.448C10.2557 16.5512 8.7691 13.7826 7.82059 11.1412C7.27924 9.63363 6.91843 8.18192 6.73178 6.98157C6.54211 5.76184 6.54133 4.85619 6.67387 4.40882C6.72983 4.21995 6.62208 4.02148 6.43321 3.96552C6.24434 3.90956 6.04587 4.01731 5.98991 4.20618C5.80857 4.81826 5.83582 5.86235 6.0269 7.09118C6.22099 8.33939 6.59363 9.83507 7.14921 11.3823C8.25651 14.4659 10.1116 17.8121 12.7877 19.7913C12.9127 19.8838 13.0834 19.8845 13.2093 19.7932C13.3352 19.7018 13.3873 19.5393 13.3381 19.3917C12.0776 15.6101 11.3343 11.6487 10.9993 8.5073C10.8319 6.93652 10.7672 5.57751 10.7896 4.55354C10.8009 4.04086 10.8338 3.61951 10.8844 3.30093C10.9381 2.9634 11.0037 2.7983 11.042 2.74591C11.1582 2.58689 11.1235 2.36373 10.9645 2.24747Z" fill="#5C3317"/>
<path fill-rule="evenodd" clip-rule="evenodd" d="M15.0352 2.24747C15.1943 2.13122 15.4174 2.16589 15.5337 2.32491C15.6818 2.52759 15.7653 2.84596 15.8198 3.18897C15.8774 3.55094 15.9117 4.00721 15.9233 4.53791C15.9466 5.60069 15.8794 6.99145 15.7097 8.58293C15.4047 11.444 14.7659 14.9755 13.7107 18.448C15.7441 16.5512 17.2307 13.7826 18.1792 11.1412C18.7205 9.63363 19.0813 8.18192 19.268 6.98157C19.4576 5.76184 19.4584 4.85619 19.3259 4.40882C19.2699 4.21995 19.3777 4.02148 19.5665 3.96552C19.7554 3.90956 19.9539 4.01731 20.0098 4.20618C20.1912 4.81826 20.1639 5.86235 19.9729 7.09118C19.7788 8.33939 19.4061 9.83507 18.8505 11.3823C17.7432 14.4659 15.8881 17.8121 13.2121 19.7913C13.087 19.8838 12.9164 19.8845 12.7905 19.7932C12.6646 19.7018 12.6124 19.5393 12.6616 19.3917C13.9222 15.6101 14.6655 11.6487 15.0004 8.5073C15.1679 6.93652 15.2325 5.57751 15.2101 4.55354C15.1989 4.04086 15.1659 3.61951 15.1153 3.30093C15.0617 2.9634 14.9961 2.7983 14.9578 2.74591C14.8415 2.58689 14.8762 2.36373 15.0352 2.24747Z" fill="#5C3317"/>
</g>
<defs>
<filter id="filter0_d_2536_125749" x="0.264648" y="0.5" width="25.4702" height="21.0391" filterUnits="userSpaceOnUse" color-interpolation-filters="sRGB">
<feFlood flood-opacity="0" result="BackgroundImageFix"/>
<feColorMatrix in="SourceAlpha" type="matrix" values="0 0 0 0 0 0 0 0 0 0 0 0 0 0 0 0 0 0 127 0" result="hardAlpha"/>
<feOffset/>
<feGaussianBlur stdDeviation="0.5"/>
<feComposite in2="hardAlpha" operator="out"/>
<feColorMatrix type="matrix" values="0 0 0 0 0 0 0 0 0 0 0 0 0 0 0 0 0 0 0.5 0"/>
<feBlend mode="normal" in2="BackgroundImageFix" result="effect1_dropShadow_2536_125749"/>
<feBlend mode="normal" in="SourceGraphic" in2="effect1_dropShadow_2536_125749" result="shape"/>
</filter>
</defs>
</svg>
