<svg width="20" height="20" viewBox="0 0 20 20" fill="none" xmlns="http://www.w3.org/2000/svg"><path fill-rule="evenodd" clip-rule="evenodd" d="M17 4H3L8.5 12V18L11.5 16V12L17 4Z" fill="#1D2654"/><path d="M3 4V3.5C2.81432 3.5 2.64393 3.60289 2.55749 3.76723C2.47105 3.93156 2.48279 4.13026 2.58798 4.28326L3 4ZM17 4L17.412 4.28326C17.5172 4.13026 17.529 3.93156 17.4425 3.76723C17.3561 3.60289 17.1857 3.5 17 3.5V4ZM8.5 12H9C9 11.8989 8.96932 11.8001 8.91202 11.7167L8.5 12ZM8.5 18H8C8 18.1844 8.10149 18.3538 8.26407 18.4408C8.42665 18.5278 8.62392 18.5183 8.77735 18.416L8.5 18ZM11.5 16L11.7774 16.416C11.9164 16.3233 12 16.1672 12 16H11.5ZM11.5 12L11.088 11.7167C11.0307 11.8001 11 11.8989 11 12H11.5ZM3 4.5H17V3.5H3V4.5ZM8.91202 11.7167L3.41202 3.71674L2.58798 4.28326L8.08798 12.2833L8.91202 11.7167ZM9 18V12H8V18H9ZM11.2226 15.584L8.22265 17.584L8.77735 18.416L11.7774 16.416L11.2226 15.584ZM11 12V16H12V12H11ZM16.588 3.71674L11.088 11.7167L11.912 12.2833L17.412 4.28326L16.588 3.71674Z" fill="#1D2654"/></svg>