<svg width="18" height="18" viewBox="0 0 18 18" fill="none" xmlns="http://www.w3.org/2000/svg">
<path d="M0 9C0 4.02944 4.02944 0 9 0C13.9706 0 18 4.02944 18 9C18 13.9706 13.9706 18 9 18C4.02944 18 0 13.9706 0 9Z" fill="#CCD4E0"/>
<path d="M7.5577 6.508C7.5417 6.516 7.5057 6.544 7.4497 6.592C7.3937 6.64 7.3337 6.68 7.2697 6.712C7.2137 6.736 7.1577 6.748 7.1017 6.748C7.0377 6.748 6.9777 6.732 6.9217 6.7C6.8417 6.652 6.7777 6.592 6.7297 6.52C6.6897 6.44 6.6697 6.356 6.6697 6.268C6.6697 6.164 6.6977 6.068 6.7537 5.98C6.8097 5.892 6.8897 5.832 6.9937 5.8C7.0177 5.672 7.1017 5.524 7.2457 5.356C7.2377 5.332 7.2337 5.292 7.2337 5.236C7.2337 5.068 7.3257 4.92 7.5097 4.792C7.7017 4.664 7.8937 4.6 8.0857 4.6C8.1497 4.6 8.1937 4.604 8.2177 4.612C8.2497 4.524 8.3217 4.452 8.4337 4.396C8.5537 4.332 8.6737 4.3 8.7937 4.3C8.8577 4.3 8.9217 4.316 8.9857 4.348C9.0417 4.316 9.1137 4.3 9.2017 4.3C9.3137 4.3 9.4257 4.332 9.5377 4.396C9.6577 4.452 9.7457 4.532 9.8017 4.636C9.9617 4.644 10.0857 4.696 10.1737 4.792C10.2617 4.888 10.3177 5 10.3417 5.128C10.5737 5.248 10.6897 5.404 10.6897 5.596C10.6897 5.628 10.6817 5.684 10.6657 5.764C10.7457 5.844 10.7857 5.952 10.7857 6.088C10.7857 6.152 10.7737 6.216 10.7497 6.28C10.8377 6.368 10.8817 6.496 10.8817 6.664C10.8817 6.784 10.8537 6.904 10.7977 7.024C10.7497 7.136 10.6817 7.224 10.5937 7.288C10.6177 7.344 10.6297 7.4 10.6297 7.456C10.6297 7.512 10.6097 7.576 10.5697 7.648C10.5537 7.752 10.5217 7.832 10.4737 7.888C10.4257 7.944 10.3577 7.992 10.2697 8.032C10.1977 8.16 10.1177 8.268 10.0297 8.356C9.9497 8.444 9.8497 8.52 9.7297 8.584C9.7457 8.648 9.7537 8.7 9.7537 8.74C9.7537 8.836 9.7257 8.928 9.6697 9.016C9.6217 9.096 9.5537 9.152 9.4657 9.184C9.4577 9.296 9.4297 9.38 9.3817 9.436C9.3337 9.492 9.2617 9.54 9.1657 9.58C9.1657 9.628 9.1537 9.672 9.1297 9.712C9.2177 9.824 9.2617 9.936 9.2617 10.048C9.2617 10.224 9.1697 10.368 8.9857 10.48C8.9777 10.616 8.9217 10.728 8.8177 10.816C8.7137 10.904 8.5977 10.948 8.4697 10.948C8.3737 10.948 8.2857 10.92 8.2057 10.864C8.0697 10.76 8.0017 10.612 8.0017 10.42C8.0017 10.228 8.0537 10.068 8.1577 9.94C8.1417 9.9 8.1337 9.836 8.1337 9.748C8.1337 9.58 8.1737 9.404 8.2537 9.22C8.3337 9.036 8.4257 8.912 8.5297 8.848C8.5457 8.672 8.6217 8.54 8.7577 8.452C8.7657 8.276 8.8377 8.108 8.9737 7.948C9.1097 7.788 9.3017 7.596 9.5497 7.372C9.5417 7.236 9.5617 7.104 9.6097 6.976C9.6657 6.848 9.7417 6.744 9.8377 6.664C9.7657 6.576 9.7297 6.468 9.7297 6.34C9.7297 6.284 9.7337 6.244 9.7417 6.22C9.6457 6.108 9.6097 5.976 9.6337 5.824C9.5857 5.792 9.5497 5.748 9.5257 5.692C9.4057 5.7 9.2937 5.672 9.1897 5.608C9.0937 5.536 9.0297 5.444 8.9977 5.332H8.8897C8.6977 5.508 8.5137 5.596 8.3377 5.596C8.3137 5.596 8.2697 5.588 8.2057 5.572C8.2377 5.66 8.2097 5.752 8.1217 5.848C8.0417 5.944 7.9537 6 7.8577 6.016C7.8737 6.112 7.8497 6.212 7.7857 6.316C7.7297 6.412 7.6537 6.476 7.5577 6.508ZM8.4577 12.868C8.6017 12.876 8.7137 12.828 8.7937 12.724C8.8817 12.612 8.9257 12.484 8.9257 12.34C8.9257 12.212 8.8897 12.104 8.8177 12.016C8.7457 11.928 8.6417 11.884 8.5057 11.884C8.4417 11.884 8.3937 11.888 8.3617 11.896C8.3137 11.88 8.2737 11.872 8.2417 11.872C8.1297 11.872 8.0257 11.924 7.9297 12.028C7.8337 12.132 7.7857 12.248 7.7857 12.376C7.7857 12.552 7.8497 12.684 7.9777 12.772C8.1057 12.852 8.2657 12.884 8.4577 12.868Z" fill="#1D2654"/>
</svg>
