<svg width="47" height="47" viewBox="0 0 47 47" fill="none" xmlns="http://www.w3.org/2000/svg">
<rect x="0.806152" width="46.1938" height="46.1938" rx="23.0969" fill="black"/>
<path d="M33.9814 15.3286C31.4709 13.352 27.501 13.0172 27.3332 13.003C27.068 12.9807 26.8164 13.1278 26.7076 13.3652C26.7035 13.3733 26.4818 14.0034 26.2674 14.6112C29.185 15.1114 31.1674 16.2214 31.273 16.2823C31.7681 16.5644 31.9338 17.1864 31.6449 17.6703C31.4533 17.993 31.1063 18.1736 30.75 18.1736C30.5729 18.1736 30.3948 18.13 30.2311 18.0366C30.2021 18.0194 27.2938 16.398 23.5021 16.398C19.7093 16.398 16.8 18.0204 16.771 18.0366C16.2769 18.3177 15.6431 18.1523 15.3562 17.6673C15.0693 17.1843 15.236 16.5644 15.729 16.2823C15.8347 16.2214 17.8243 15.1074 20.7502 14.6082C20.5244 13.9933 20.2965 13.3733 20.2924 13.3652C20.1836 13.1268 19.932 12.9766 19.6668 13.003C19.499 13.0162 15.5291 13.351 12.9854 15.3549C11.6556 16.5583 9 23.5938 9 29.6766C9 29.7842 9.02796 29.8887 9.08286 29.982C10.9171 33.1376 15.9175 33.9635 17.0568 33.999C17.0641 34 17.0703 34 17.0765 34C17.2774 34 17.467 33.9056 17.5861 33.7463L18.8186 32.1107C16.1154 31.4725 14.6861 30.469 14.6001 30.4072C14.1403 30.0754 14.0408 29.4402 14.3795 28.9887C14.7171 28.5392 15.3634 28.4398 15.8233 28.7695C15.8616 28.7939 18.4996 30.603 23.5 30.603C28.5201 30.603 31.1508 28.7868 31.1767 28.7685C31.6366 28.4418 32.2849 28.5402 32.6215 28.9927C32.9571 29.4432 32.8597 30.0744 32.402 30.4051C32.316 30.467 30.894 31.4685 28.197 32.1067L29.4139 33.7453C29.533 33.9056 29.7226 33.999 29.9235 33.999C29.9307 33.999 29.937 33.999 29.9432 33.998C31.0835 33.9625 36.0839 33.1365 37.9171 29.981C37.972 29.8877 38 29.7831 38 29.6756C38 23.5938 35.3444 16.5583 33.9814 15.3286ZM19.3571 27.5591C18.2127 27.5591 17.2857 26.4237 17.2857 25.0224C17.2857 23.6212 18.2127 22.4858 19.3571 22.4858C20.5016 22.4858 21.4286 23.6212 21.4286 25.0224C21.4286 26.4237 20.5016 27.5591 19.3571 27.5591ZM27.6429 27.5591C26.4984 27.5591 25.5714 26.4237 25.5714 25.0224C25.5714 23.6212 26.4984 22.4858 27.6429 22.4858C28.7873 22.4858 29.7143 23.6212 29.7143 25.0224C29.7143 26.4237 28.7873 27.5591 27.6429 27.5591Z" fill="white"/>
</svg>
