<svg width="14" height="14" xmlns="http://www.w3.org/2000/svg" fill="none">

 <g>
  <title>Layer 1</title>
  <path id="svg_1" fill="#000" d="m6.7746,13.5499c-1.39584,0.0024 -2.75807,-0.4282 -3.89883,-1.2326c1.28372,-0.1929 2.54592,-0.5088 3.76919,-0.9433c2.07483,-0.7426 3.96464,-1.79858 5.55564,-3.3459c0.4701,-0.4586 0.8985,-0.95818 1.28,-1.49283c0.0211,-0.02912 0.0376,-0.06576 0.0582,-0.09818c0.0057,0.1118 0.0085,0.22438 0.0085,0.33775c0,1.79644 -0.7135,3.51936 -1.9835,4.78986c-1.2701,1.2705 -2.99275,1.9846 -4.7892,1.9852zm-5.12015,-2.9082c0.17897,-0.0103 0.35794,-0.0319 0.53597,-0.0545c0.42558,-0.054 0.54677,-0.1944 0.54724,-0.62706c0,-1.14178 0,-2.28387 0,-3.42628c0,-0.46316 0.23112,-0.69052 0.69569,-0.68817c0.27385,0 0.54771,0 0.8211,0.01457c0.41009,0.01926 0.6271,0.24567 0.63227,0.65763c0.00564,0.44578 0,0.8925 0,1.33782c0,0.69615 0,1.3923 0,2.08845c0,0.05964 -0.05543,0.16724 0.0963,0.15174c0.49416,-0.0512 0.67454,-0.24521 0.67454,-0.74079c0,-1.42393 0,-2.84771 0,-4.27133c0,-0.46598 0.2283,-0.69287 0.69052,-0.69663c0.2499,-0.00235 0.50027,0 0.75158,0c0.48148,0.00282 0.70461,0.22407 0.70461,0.70226c0,1.03343 0,2.06685 0,3.10028l0,1.00712c0.75158,-0.24802 0.79339,-0.30533 0.78963,-0.98316c-0.00799,-1.55014 -0.00376,-3.10028 0,-4.64713c0,-0.40867 0.23064,-0.63509 0.64072,-0.63978c0.2499,-0.00282 0.50027,0 0.75159,0c0.54629,0 0.74549,0.2001 0.74599,0.75158c0,1.23572 0,2.47161 0,3.70765c0,0.08032 -0.0343,0.17004 0.0324,0.24332c0.6374,-0.37344 1.9705,-1.62436 2.3703,-2.22046c0.0866,-0.12469 0.1453,-0.26667 0.1719,-0.41618c-0.2586,-0.94743 -0.7201,-1.82731 -1.3526,-2.57869c-0.6324,-0.75138 -1.4206,-1.3563 -2.30995,-1.77285c-0.88938,-0.41655 -1.85868,-0.63478 -2.84077,-0.63956c-0.98208,-0.00479 -1.95347,0.20397 -2.84687,0.61183c-0.8934,0.40786 -1.68745,1.00506 -2.32716,1.75024c-0.63971,0.74518 -1.10977,1.62051 -1.37763,2.56538c-0.26786,0.94486 -0.32712,1.93666 -0.17366,2.90669c0.15346,0.97003 0.51596,1.89511 1.06239,2.71111c0.15985,0.0777 0.3378,0.1105 0.51484,0.0949l-0.00094,0z"/>
 </g>
</svg>