<svg width="47" height="47" viewBox="0 0 47 47" fill="none" xmlns="http://www.w3.org/2000/svg">
<rect width="46.1938" height="46.1938" rx="23.0969" fill="black"/>
<path d="M38 13.8408C36.8958 14.3236 35.7097 14.6484 34.4648 14.795C35.7362 14.0453 36.7112 12.8583 37.1704 11.443C35.982 12.137 34.6644 12.6413 33.2613 12.914C32.1387 11.736 30.5395 11 28.7696 11C25.3705 11 22.6152 13.7136 22.6152 17.0588C22.6152 17.5336 22.6706 17.997 22.7744 18.4389C17.6596 18.1867 13.1252 15.7741 10.0884 12.1075C9.55994 13.0026 9.25649 14.043 9.25649 15.155C9.25649 17.2564 10.3422 19.1113 11.9933 20.1972C10.9849 20.1654 10.0353 19.8928 9.20572 19.4396C9.20572 19.4657 9.20572 19.4896 9.20572 19.5157C9.20572 22.4519 11.3264 24.9009 14.1428 25.4563C13.6271 25.5949 13.0825 25.6687 12.5206 25.6687C12.1248 25.6687 11.7383 25.6301 11.3633 25.5608C12.1468 27.9678 14.4198 29.7204 17.1127 29.7693C15.007 31.3947 12.3533 32.3636 9.46879 32.3636C8.97266 32.3636 8.48229 32.3352 8 32.2784C10.7241 33.997 13.9582 35 17.4346 35C28.7557 35 34.9447 25.7676 34.9447 17.7608C34.9447 17.4984 34.939 17.2371 34.9274 16.977C36.1308 16.1217 37.175 15.0551 38 13.8408Z" fill="white"/>
</svg>
