<svg width="180" height="180" viewBox="0 0 180 180" fill="none" xmlns="http://www.w3.org/2000/svg">
<path d="M90 0L95.6445 36.2958L108.712 1.96671L106.687 38.6429L126.606 7.78091L117 43.2346L142.901 17.1885L126.133 49.8702L156.883 29.7782L133.687 58.2596L167.942 45L139.331 68.0362L175.595 62.1885L142.82 78.7728L179.507 80.5924L144 90L179.507 99.4076L142.82 101.227L175.595 117.812L139.331 111.964L167.942 135L133.687 121.74L156.883 150.222L126.133 130.13L142.901 162.812L117 136.765L126.606 172.219L106.687 141.357L108.712 178.033L95.6445 143.704L90 180L84.3555 143.704L71.2879 178.033L73.3131 141.357L53.3937 172.219L63 136.765L37.0993 162.812L53.8669 130.13L23.117 150.222L46.3131 121.74L12.0577 135L40.6685 111.964L4.40491 117.812L37.18 101.227L0.493027 99.4076L36 90L0.493027 80.5924L37.18 78.7728L4.40491 62.1885L40.6685 68.0362L12.0577 45L46.3131 58.2596L23.117 29.7782L53.8669 49.8702L37.0993 17.1885L63 43.2346L53.3937 7.78091L73.3131 38.6429L71.2879 1.96671L84.3555 36.2958L90 0Z" fill="url(#paint0_radial_741_11635)"/>
<defs>
<radialGradient id="paint0_radial_741_11635" cx="0" cy="0" r="1" gradientUnits="userSpaceOnUse" gradientTransform="translate(90 90) rotate(90) scale(90)">
<stop stop-color="#FFDC77"/>
<stop offset="1" stop-color="#FFDC77" stop-opacity="0"/>
</radialGradient>
</defs>
</svg>
