<svg width="24" height="22" viewBox="0 0 24 22" fill="none" xmlns="http://www.w3.org/2000/svg">
<path fill-rule="evenodd" clip-rule="evenodd" d="M2.78405 5.9393C2.2032 6.4704 1.90018 6.99073 1.8406 7.4654C1.80827 7.72299 1.90247 8.19025 2.19367 8.86493C2.4746 9.51582 2.90469 10.2838 3.44394 11.1073C4.52195 12.7536 6.00526 14.5751 7.50997 16.0572C7.61417 16.1599 7.67181 16.3007 7.66947 16.4469C7.66713 16.5932 7.60502 16.7321 7.49759 16.8313C6.7477 17.5242 6.33028 18.3268 6.15127 18.9691H17.8486C17.6696 18.3268 17.2522 17.5242 16.5023 16.8313C16.3948 16.7321 16.3327 16.5932 16.3304 16.4469C16.3281 16.3007 16.3857 16.1599 16.4899 16.0572C17.9946 14.5751 19.4779 12.7536 20.5559 11.1073C21.0952 10.2838 21.5253 9.51582 21.8062 8.86493C22.0974 8.19025 22.1916 7.72299 22.1593 7.4654C22.0997 6.99073 21.7967 6.4704 21.2158 5.9393C20.6395 5.41235 19.8308 4.91388 18.8582 4.48337C16.9129 3.62236 14.3956 3.07003 11.9999 3.07003C9.60423 3.07003 7.08696 3.62236 5.14169 4.48337C4.16904 4.91388 3.36037 5.41235 2.78405 5.9393ZM4.70861 3.50491C6.79251 2.58254 9.45753 2 11.9999 2C14.5423 2 17.2074 2.58254 19.2913 3.50491C20.3332 3.96609 21.2508 4.52143 21.9379 5.14962C22.6204 5.77366 23.1178 6.5098 23.221 7.33214C23.2913 7.89242 23.0917 8.58685 22.7886 9.28896C22.4753 10.0149 22.0108 10.8388 21.4511 11.6935C20.4219 13.2652 19.0448 14.9808 17.6186 16.4401C18.536 17.4567 18.9637 18.6211 19.0188 19.4694C19.0284 19.617 18.9765 19.762 18.8753 19.87C18.7742 19.9779 18.6329 20.0391 18.4849 20.0391H5.51493C5.36702 20.0391 5.2257 19.9779 5.12455 19.87C5.02341 19.762 4.97146 19.617 4.98104 19.4694C5.03613 18.6211 5.46384 17.4567 6.38125 16.4401C4.95503 14.9808 3.57795 13.2652 2.54876 11.6935C1.98908 10.8388 1.52455 10.0149 1.21124 9.28896C0.908211 8.58685 0.708578 7.89242 0.778902 7.33214C0.882119 6.5098 1.3795 5.77366 2.06201 5.14962C2.74904 4.52143 3.66667 3.96609 4.70861 3.50491Z" fill="white" stroke="white" stroke-linecap="round" stroke-linejoin="round"/>
<path fill-rule="evenodd" clip-rule="evenodd" d="M11.9999 2.5351C7.06178 2.5351 1.63528 4.80485 1.3097 7.39885C1.10438 9.03459 4.07101 13.4209 7.13447 16.4385C6.04285 17.447 5.56797 18.6865 5.51488 19.5042H11.9999H18.4849C18.4318 18.6865 17.9569 17.447 16.8653 16.4385C19.9288 13.4209 22.8954 9.03459 22.6901 7.39885C22.3645 4.80485 16.938 2.5351 11.9999 2.5351Z" fill="#FF6854"/>
<path d="M5.58002 15.0007C11.3581 16.9268 17.6177 14.1982 20.0252 12.5932L16.8152 16.6058L18.4202 19.8158H5.58002L7.18504 16.6058L5.58002 15.0007Z" fill="black" fill-opacity="0.2"/>
<path d="M3.17247 11.7907C7.02452 5.37061 14.4076 3.76559 17.6177 3.76559L16.0127 2.96307H7.98754L1.56744 6.17312V8.58066L3.17247 11.7907Z" fill="white" fill-opacity="0.7"/>
<path opacity="0.2" d="M11.9999 6.97571C7.50583 6.97571 3.70727 9.16924 2.36975 10.1858L4.29578 13.2353C5.31229 12.3258 8.01943 10.5068 11.9999 10.5068C15.9804 10.5068 18.4735 12.3258 19.383 13.2353L21.309 10.1858C20.0785 9.16924 16.494 6.97571 11.9999 6.97571Z" fill="white"/>
<path fill-rule="evenodd" clip-rule="evenodd" d="M2.78405 5.9393C2.2032 6.4704 1.90018 6.99073 1.8406 7.4654C1.80827 7.72299 1.90247 8.19025 2.19367 8.86493C2.4746 9.51582 2.90469 10.2838 3.44394 11.1073C4.52195 12.7536 6.00526 14.5751 7.50997 16.0572C7.61417 16.1599 7.67181 16.3007 7.66947 16.4469C7.66713 16.5932 7.60502 16.7321 7.49759 16.8313C6.7477 17.5242 6.33028 18.3268 6.15127 18.9691H17.8486C17.6696 18.3268 17.2522 17.5242 16.5023 16.8313C16.3948 16.7321 16.3327 16.5932 16.3304 16.4469C16.3281 16.3007 16.3857 16.1599 16.4899 16.0572C17.9946 14.5751 19.4779 12.7536 20.5559 11.1073C21.0952 10.2838 21.5253 9.51582 21.8062 8.86493C22.0974 8.19025 22.1916 7.72299 22.1593 7.4654C22.0997 6.99073 21.7967 6.4704 21.2158 5.9393C20.6395 5.41235 19.8308 4.91388 18.8582 4.48337C16.9129 3.62236 14.3956 3.07003 11.9999 3.07003C9.60423 3.07003 7.08696 3.62236 5.14169 4.48337C4.16904 4.91388 3.36037 5.41235 2.78405 5.9393ZM4.70861 3.50491C6.79251 2.58254 9.45753 2 11.9999 2C14.5423 2 17.2074 2.58254 19.2913 3.50491C20.3332 3.96609 21.2508 4.52143 21.9379 5.14962C22.6204 5.77366 23.1178 6.5098 23.221 7.33214C23.2913 7.89242 23.0917 8.58685 22.7886 9.28896C22.4753 10.0149 22.0108 10.8388 21.4511 11.6935C20.4219 13.2652 19.0448 14.9808 17.6186 16.4401C18.536 17.4567 18.9637 18.6211 19.0188 19.4694C19.0284 19.617 18.9765 19.762 18.8753 19.87C18.7742 19.9779 18.6329 20.0391 18.4849 20.0391H5.51493C5.36702 20.0391 5.2257 19.9779 5.12455 19.87C5.02341 19.762 4.97146 19.617 4.98104 19.4694C5.03613 18.6211 5.46384 17.4567 6.38125 16.4401C4.95503 14.9808 3.57795 13.2652 2.54876 11.6935C1.98908 10.8388 1.52455 10.0149 1.21124 9.28896C0.908211 8.58685 0.708578 7.89242 0.778902 7.33214C0.882119 6.5098 1.3795 5.77366 2.06201 5.14962C2.74904 4.52143 3.66667 3.96609 4.70861 3.50491Z" fill="#5C3317"/>
<path fill-rule="evenodd" clip-rule="evenodd" d="M9.96458 2.24754C9.80556 2.13128 9.5824 2.16595 9.46614 2.32497C9.31797 2.52765 9.2345 2.84602 9.17999 3.18904C9.12247 3.551 9.08815 4.00727 9.07653 4.53797C9.05324 5.60075 9.12039 6.99151 9.29008 8.58299C9.59514 11.4441 10.234 14.9755 11.2892 18.448C9.25574 16.5513 7.76916 13.7827 6.82065 11.1413C6.2793 9.63369 5.91849 8.18198 5.73184 6.98163C5.54217 5.7619 5.54139 4.85625 5.67394 4.40888C5.72989 4.22001 5.62215 4.02154 5.43327 3.96558C5.2444 3.90962 5.04593 4.01737 4.98997 4.20624C4.80863 4.81832 4.83588 5.86241 5.02696 7.09124C5.22105 8.33945 5.59369 9.83513 6.14927 11.3823C7.25657 14.466 9.11169 17.8122 11.7877 19.7913C11.9128 19.8838 12.0834 19.8846 12.2093 19.7932C12.3352 19.7018 12.3874 19.5394 12.3382 19.3918C11.0777 15.6102 10.3344 11.6487 9.99941 8.50736C9.83193 6.93658 9.76727 5.57757 9.78971 4.5536C9.80094 4.04092 9.83387 3.61957 9.8845 3.30099C9.93814 2.96347 10.0037 2.79837 10.042 2.74597C10.1583 2.58695 10.1236 2.36379 9.96458 2.24754Z" fill="#5C3317"/>
<path fill-rule="evenodd" clip-rule="evenodd" d="M14.0352 2.24754C14.1943 2.13128 14.4174 2.16595 14.5337 2.32497C14.6818 2.52765 14.7653 2.84602 14.8198 3.18904C14.8774 3.551 14.9117 4.00727 14.9233 4.53797C14.9466 5.60075 14.8794 6.99151 14.7097 8.58299C14.4047 11.4441 13.7659 14.9755 12.7107 18.448C14.7441 16.5513 16.2307 13.7827 17.1792 11.1413C17.7205 9.63369 18.0813 8.18198 18.268 6.98163C18.4576 5.7619 18.4584 4.85625 18.3259 4.40888C18.2699 4.22001 18.3777 4.02154 18.5665 3.96558C18.7554 3.90962 18.9539 4.01737 19.0098 4.20624C19.1912 4.81832 19.1639 5.86241 18.9729 7.09124C18.7788 8.33945 18.4061 9.83513 17.8505 11.3823C16.7432 14.466 14.8881 17.8122 12.2121 19.7913C12.087 19.8838 11.9164 19.8846 11.7905 19.7932C11.6646 19.7018 11.6124 19.5394 11.6616 19.3918C12.9222 15.6102 13.6655 11.6487 14.0004 8.50736C14.1679 6.93658 14.2325 5.57757 14.2101 4.5536C14.1989 4.04092 14.1659 3.61957 14.1153 3.30099C14.0617 2.96347 13.9961 2.79837 13.9578 2.74597C13.8415 2.58695 13.8762 2.36379 14.0352 2.24754Z" fill="#5C3317"/>
<path fill-rule="evenodd" clip-rule="evenodd" d="M18 12C17.4477 12 17 12.4477 17 13V15H15C14.4477 15 14 15.4477 14 16V17C14 17.5523 14.4477 18 15 18H17V20C17 20.5523 17.4477 21 18 21H19C19.5523 21 20 20.5523 20 20V18H22C22.5523 18 23 17.5523 23 17V16C23 15.4477 22.5523 15 22 15H20V13C20 12.4477 19.5523 12 19 12H18Z" fill="url(#paint0_linear_3288_37125)"/>
<path d="M17 15V15.5C17.2761 15.5 17.5 15.2761 17.5 15H17ZM17 18H17.5C17.5 17.7239 17.2761 17.5 17 17.5V18ZM20 18V17.5C19.7239 17.5 19.5 17.7239 19.5 18H20ZM20 15H19.5C19.5 15.2761 19.7239 15.5 20 15.5V15ZM17.5 13C17.5 12.7239 17.7239 12.5 18 12.5V11.5C17.1716 11.5 16.5 12.1716 16.5 13H17.5ZM17.5 15V13H16.5V15H17.5ZM15 15.5H17V14.5H15V15.5ZM14.5 16C14.5 15.7239 14.7239 15.5 15 15.5V14.5C14.1716 14.5 13.5 15.1716 13.5 16H14.5ZM14.5 17V16H13.5V17H14.5ZM15 17.5C14.7239 17.5 14.5 17.2761 14.5 17H13.5C13.5 17.8284 14.1716 18.5 15 18.5V17.5ZM17 17.5H15V18.5H17V17.5ZM17.5 20V18H16.5V20H17.5ZM18 20.5C17.7239 20.5 17.5 20.2761 17.5 20H16.5C16.5 20.8284 17.1716 21.5 18 21.5V20.5ZM19 20.5H18V21.5H19V20.5ZM19.5 20C19.5 20.2761 19.2761 20.5 19 20.5V21.5C19.8284 21.5 20.5 20.8284 20.5 20H19.5ZM19.5 18V20H20.5V18H19.5ZM22 17.5H20V18.5H22V17.5ZM22.5 17C22.5 17.2761 22.2761 17.5 22 17.5V18.5C22.8284 18.5 23.5 17.8284 23.5 17H22.5ZM22.5 16V17H23.5V16H22.5ZM22 15.5C22.2761 15.5 22.5 15.7239 22.5 16H23.5C23.5 15.1716 22.8284 14.5 22 14.5V15.5ZM20 15.5H22V14.5H20V15.5ZM19.5 13V15H20.5V13H19.5ZM19 12.5C19.2761 12.5 19.5 12.7239 19.5 13H20.5C20.5 12.1716 19.8284 11.5 19 11.5V12.5ZM18 12.5H19V11.5H18V12.5Z" fill="#5C3317"/>
<rect x="17.5" y="12.5" width="1" height="2" rx="0.5" fill="white"/>
<rect x="14.5" y="15.5" width="2" height="1" rx="0.5" fill="white"/>
<defs>
<linearGradient id="paint0_linear_3288_37125" x1="18.5" y1="12" x2="18.5" y2="21" gradientUnits="userSpaceOnUse">
<stop stop-color="#FFDC77"/>
<stop offset="1" stop-color="#EDAA23"/>
</linearGradient>
</defs>
</svg>
