<svg width="24" height="22" viewBox="0 0 24 22" fill="none" xmlns="http://www.w3.org/2000/svg"><path d="M22.4285 12.1894C22.4285 10.3345 21.4902 9.87073 20.5519 10.3345C19.6136 10.7982 17.7369 10.3345 19.6136 8.47954C21.1149 6.9956 22.2721 4.30596 22.4285 2.91477C20.2391 2.45104 13.0454 1.98731 9.29214 3.84223C4.60058 6.16089 3.66227 12.1894 1.78564 12.1894C3.66227 12.1894 4.60058 15.9482 9.29214 18.2669C13.0454 20.1218 19.1444 19.5601 21.4902 18.6816C21.3338 17.2904 20.0827 16.363 19.6136 15.4845C18.3746 13.1646 19.6136 13.1658 20.5519 13.6296C21.4902 14.0933 22.4285 13.6296 22.4285 11.7746" stroke="white" stroke-width="2" stroke-linecap="round" stroke-linejoin="round"/><path d="M9.29214 3.84223C13.0454 1.98731 20.2391 2.45104 22.4285 2.91477C22.2721 4.30596 21.1149 6.9956 19.6136 8.47954C17.7369 10.3345 19.6136 10.7982 20.5519 10.3345C21.4542 9.88853 22.3565 10.3002 22.4244 11.982C22.3565 13.6638 21.4542 14.0755 20.5519 13.6296C19.6136 13.1658 18.3746 13.1646 19.6136 15.4845C20.0827 16.363 21.3338 17.2904 21.4902 18.6816C19.1444 19.5601 13.0454 20.1218 9.29214 18.2669C4.60058 15.9482 3.66227 12.1894 1.78564 12.1894C3.66227 12.1894 4.60058 6.16089 9.29214 3.84223Z" fill="#2492EA"/><path d="M9.29214 3.84224C13.0454 1.98731 20.2391 2.45104 22.4285 2.91477C22.2721 4.30596 22.7155 4.05178 21.2142 5.53571C18.988 4.92857 12.6921 4.2 9.29214 6.14286C5.04767 8.56826 5.4275 12.1551 1.79986 12.1893C1.79513 12.1894 1.79039 12.1894 1.78564 12.1894C1.79039 12.1894 1.79513 12.1893 1.79986 12.1893C3.66704 12.1589 4.61244 6.15503 9.29214 3.84224Z" fill="white" fill-opacity="0.4"/><path d="M10.2856 18.8929C12.2285 12.5786 11.0952 5.7381 10.2856 3.10714L12.1071 2.5C14.0499 10.2714 12.9166 17.0714 12.1071 19.5L10.2856 18.8929Z" fill="white" fill-opacity="0.5"/><path d="M13.9287 18.8929C15.8716 12.5786 14.7382 5.7381 13.9287 3.10714L15.7501 2.5C17.693 10.2714 16.5597 17.0714 15.7501 19.5L13.9287 18.8929Z" fill="white" fill-opacity="0.5"/><path d="M9.29214 18.2669C13.0454 20.1219 19.1444 19.5602 21.4902 18.6817C21.3338 17.2905 20.4691 17.3428 19.9999 16.4644C19.5216 17.3981 14.8776 18.2669 10.8928 17.0715C4.82136 15.2501 5.4285 12.1895 1.78564 12.1895C3.66227 12.1895 4.60058 15.9483 9.29214 18.2669Z" fill="black" fill-opacity="0.2"/><path d="M22.4285 12.1894C22.4285 10.3345 21.4902 9.87073 20.5519 10.3345C19.6136 10.7982 17.7369 10.3345 19.6136 8.47954C21.1149 6.9956 22.2721 4.30596 22.4285 2.91477C20.2391 2.45104 13.0454 1.98731 9.29214 3.84223C4.60058 6.16089 3.66227 12.1894 1.78564 12.1894C3.66227 12.1894 4.60058 15.9482 9.29214 18.2669C13.0454 20.1218 19.1444 19.5601 21.4902 18.6816C21.3338 17.2904 20.0827 16.363 19.6136 15.4845C18.3746 13.1646 19.6136 13.1658 20.5519 13.6296C21.4902 14.0933 22.4285 13.6296 22.4285 11.7746" stroke="#5C3317" stroke-linecap="round" stroke-linejoin="round"/><circle cx="7.85686" cy="10.9999" r="1.51429" fill="#5C3317" stroke="white" stroke-width="0.6"/></svg>