<svg width="24" height="24" viewBox="0 0 24 24" fill="none" xmlns="http://www.w3.org/2000/svg">
<g filter="url(#filter0_d_2605_31946)">
<path fill-rule="evenodd" clip-rule="evenodd" d="M12 3.39535C7.24778 3.39535 3.39535 7.24778 3.39535 12C3.39535 16.7522 7.24778 20.6047 12 20.6047C16.7522 20.6047 20.6047 16.7522 20.6047 12C20.6047 7.24778 16.7522 3.39535 12 3.39535ZM2 12C2 6.47715 6.47715 2 12 2C17.5228 2 22 6.47715 22 12C22 17.5228 17.5228 22 12 22C6.47715 22 2 17.5228 2 12Z" fill="#5C3317" stroke="white" stroke-linecap="round" stroke-linejoin="round"/>
<path d="M21.3024 11.9999C21.3024 17.1374 17.1376 21.3022 12.0001 21.3022C6.86255 21.3022 2.69775 17.1374 2.69775 11.9999C2.69775 6.86235 6.86255 2.69756 12.0001 2.69756C17.1376 2.69756 21.3024 6.86235 21.3024 11.9999Z" fill="url(#paint0_radial_2605_31946)"/>
<path d="M15.612 10.2798C16.6714 8.12476 18.5254 7.71426 19.4525 7.71426C20.1145 8.35566 20.7766 10.4081 20.5117 12.9737C20.0481 17.4635 15.0823 20.927 11.3743 20.5422C7.65003 20.1556 4.48809 17.4635 3.42868 15.1545C3.8701 15.7103 5.33562 16.8477 8.72576 16.9504C12.9634 17.0786 14.2877 12.9737 15.612 10.2798Z" fill="url(#paint1_linear_2605_31946)"/>
<path fill-rule="evenodd" clip-rule="evenodd" d="M12 3.39535C7.24778 3.39535 3.39535 7.24778 3.39535 12C3.39535 16.7522 7.24778 20.6047 12 20.6047C16.7522 20.6047 20.6047 16.7522 20.6047 12C20.6047 7.24778 16.7522 3.39535 12 3.39535ZM2 12C2 6.47715 6.47715 2 12 2C17.5228 2 22 6.47715 22 12C22 17.5228 17.5228 22 12 22C6.47715 22 2 17.5228 2 12Z" fill="#5C3317"/>
</g>
<defs>
<filter id="filter0_d_2605_31946" x="0.5" y="0.5" width="23" height="23" filterUnits="userSpaceOnUse" color-interpolation-filters="sRGB">
<feFlood flood-opacity="0" result="BackgroundImageFix"/>
<feColorMatrix in="SourceAlpha" type="matrix" values="0 0 0 0 0 0 0 0 0 0 0 0 0 0 0 0 0 0 127 0" result="hardAlpha"/>
<feOffset/>
<feGaussianBlur stdDeviation="0.5"/>
<feComposite in2="hardAlpha" operator="out"/>
<feColorMatrix type="matrix" values="0 0 0 0 0 0 0 0 0 0 0 0 0 0 0 0 0 0 0.5 0"/>
<feBlend mode="normal" in2="BackgroundImageFix" result="effect1_dropShadow_2605_31946"/>
<feBlend mode="normal" in="SourceGraphic" in2="effect1_dropShadow_2605_31946" result="shape"/>
</filter>
<radialGradient id="paint0_radial_2605_31946" cx="0" cy="0" r="1" gradientUnits="userSpaceOnUse" gradientTransform="translate(9.85722 9.14287) rotate(59.0362) scale(12.4949)">
<stop stop-color="white"/>
<stop offset="0.682292" stop-color="white"/>
<stop offset="1" stop-color="#DCDCDC"/>
</radialGradient>
<linearGradient id="paint1_linear_2605_31946" x1="12.0001" y1="7.71426" x2="12.0001" y2="20.3385" gradientUnits="userSpaceOnUse">
<stop stop-color="#FFB8AE"/>
<stop offset="1" stop-color="#FFB8AE" stop-opacity="0"/>
</linearGradient>
</defs>
</svg>
