<svg width="22" height="22" viewBox="0 0 22 22" fill="none" xmlns="http://www.w3.org/2000/svg">
<path d="M11 22C17.0959 22 22 17.0959 22 11C22 4.90413 17.0959 0 11 0C4.90413 0 0 4.90413 0 11C0 17.0959 4.90413 22 11 22Z" fill="#2775CA"/>
<path d="M14.025 12.7416C14.025 11.1375 13.0625 10.5875 11.1375 10.3584C9.76249 10.175 9.48749 9.80835 9.48749 9.16661C9.48749 8.52487 9.94586 8.11248 10.8625 8.11248C11.6875 8.11248 12.1459 8.38748 12.375 9.07498C12.4209 9.21248 12.5584 9.30411 12.6959 9.30411H13.4291C13.6125 9.30411 13.75 9.16661 13.75 8.98335V8.93748C13.5666 7.92911 12.7416 7.14998 11.6875 7.05835V5.95835C11.6875 5.77498 11.55 5.63748 11.3209 5.59161H10.6334C10.45 5.59161 10.3125 5.72911 10.2666 5.95835V7.01248C8.89162 7.19585 8.02086 8.11248 8.02086 9.25835C8.02086 10.7709 8.93749 11.3666 10.8625 11.5959C12.1459 11.825 12.5584 12.1 12.5584 12.8334C12.5584 13.5667 11.9166 14.0709 11.0459 14.0709C9.85412 14.0709 9.44162 13.5666 9.30412 12.8791C9.25836 12.6959 9.12086 12.6041 8.98336 12.6041H8.20412C8.02086 12.6041 7.88336 12.7416 7.88336 12.925V12.9709C8.06662 14.1166 8.79999 14.9416 10.3125 15.1709V16.2709C10.3125 16.4541 10.45 16.5916 10.6791 16.6375H11.3666C11.55 16.6375 11.6875 16.5 11.7334 16.2709V15.1709C13.1084 14.9416 14.025 13.9791 14.025 12.7416Z" fill="white"/>
<path d="M8.66248 17.5541C5.08748 16.2709 3.25411 12.2834 4.58335 8.75413C5.27085 6.82913 6.78335 5.3625 8.66248 4.675C8.84585 4.58337 8.93748 4.44587 8.93748 4.21663V3.575C8.93748 3.39163 8.84585 3.25413 8.66248 3.20837C8.61661 3.20837 8.52498 3.20837 8.47911 3.25413C4.12498 4.62913 1.74161 9.25837 3.11661 13.6125C3.94161 16.1791 5.91248 18.15 8.47911 18.975C8.66248 19.0666 8.84585 18.975 8.89161 18.7916C8.93748 18.7459 8.93748 18.7 8.93748 18.6084V17.9666C8.93748 17.8291 8.79998 17.6459 8.66248 17.5541ZM13.5208 3.25413C13.3375 3.1625 13.1541 3.25413 13.1083 3.4375C13.0625 3.48337 13.0625 3.52913 13.0625 3.62087V4.2625C13.0625 4.44587 13.2 4.62913 13.3375 4.72087C16.9125 6.00413 18.7458 9.99163 17.4166 13.5209C16.7291 15.4459 15.2166 16.9125 13.3375 17.6C13.1541 17.6916 13.0625 17.8291 13.0625 18.0584V18.7C13.0625 18.8834 13.1541 19.0209 13.3375 19.0666C13.3833 19.0666 13.475 19.0666 13.5208 19.0209C17.875 17.6459 20.2583 13.0166 18.8833 8.6625C18.0583 6.05 16.0416 4.07913 13.5208 3.25413Z" fill="white"/>
</svg>
