<svg width="22" height="22" viewBox="0 0 22 22" fill="none" xmlns="http://www.w3.org/2000/svg">
<mask id="mask0_3156_40011" style="mask-type:alpha" maskUnits="userSpaceOnUse" x="0" y="0" width="22" height="22">
<circle cx="11" cy="11" r="11" fill="white"/>
</mask>
<g mask="url(#mask0_3156_40011)">
<circle cx="11" cy="11" r="10.5" fill="white" stroke="#CCD4E0"/>
</g>
<g clip-path="url(#clip0_3156_40011)">
<path d="M2.76534 6.40968L5.51202 4.8244L13.7413 9.57478L13.7415 9.58381C13.5263 9.69425 13.3214 9.82426 13.1103 9.94222L11.0016 11.1591C10.9834 11.1528 10.9654 11.146 10.9476 11.1386L3.11152 6.61494C2.99544 6.55135 2.88406 6.47892 2.76459 6.42153L2.76534 6.40968ZM13.7432 6.40818L16.4884 4.8244L19.2326 6.40836L19.235 6.41871L16.4872 7.99835L14.3703 6.77787C14.1628 6.65201 13.9455 6.54232 13.7432 6.40818Z" fill="#2B6DEF"/>
<path d="M13.7415 9.57475L13.7433 6.40814C13.9456 6.54229 14.1629 6.65197 14.3704 6.77784L16.4874 7.99831L16.4889 16.9474C16.4864 17.1318 16.4944 17.3166 16.4829 17.5006L13.743 15.9202L13.742 12.7534L13.7417 9.58378L13.7415 9.57475ZM2.76473 6.4215C2.8842 6.47888 2.99558 6.55132 3.11167 6.61491L10.9478 11.1386C10.9655 11.146 10.9836 11.1528 11.0018 11.1591C10.9897 11.2507 10.9961 11.3433 10.995 11.4355L10.9946 14.3349L8.25865 12.7521C8.11943 12.6578 7.96797 12.5829 7.82442 12.4955L5.61564 11.2204C5.58328 11.2012 5.5496 11.1849 5.51499 11.1704C5.51181 11.1959 5.50949 11.2215 5.50802 11.2471L5.50896 16.7027C5.51216 16.9685 5.49975 17.2353 5.51743 17.5006L5.51386 17.5121H5.50633C5.50558 17.509 5.50389 17.5032 5.50313 17.5002L2.76379 15.9181L2.76473 6.4215Z" fill="#2891F9"/>
<path d="M16.4873 7.99834L19.2351 6.4187L19.2362 15.9181L16.4969 17.5L16.4939 17.5121H16.4865L16.4828 17.5006C16.4942 17.3166 16.4863 17.1318 16.4888 16.9475L16.4873 7.99834ZM13.1103 9.94221C13.3214 9.82425 13.5263 9.69424 13.7415 9.5838L13.7419 12.7534L11.6756 13.946L10.9945 14.3349L10.9949 11.4355C10.996 11.3433 10.9896 11.2507 11.0016 11.1591L13.1103 9.94221ZM5.51488 11.1704C5.5495 11.1849 5.58317 11.2013 5.61553 11.2204L7.82431 12.4955C7.96786 12.583 8.11932 12.6578 8.25854 12.7521L8.25685 15.9206L5.51732 17.5006C5.49964 17.2353 5.51206 16.9685 5.50886 16.7027L5.50792 11.2472C5.50938 11.2215 5.5117 11.1959 5.51488 11.1704Z" fill="#2BBDF7"/>
</g>
<defs>
<clipPath id="clip0_3156_40011">
<rect width="16.5" height="12.6995" fill="white" transform="translate(2.75 4.8125)"/>
</clipPath>
</defs>
</svg>
