<svg width="32" height="32" viewBox="0 0 32 32" fill="none" xmlns="http://www.w3.org/2000/svg">
<path d="M26.4981 6.35643C24.5673 5.4705 22.4968 4.81779 20.332 4.44395C20.2926 4.43674 20.2532 4.45477 20.2329 4.49083C19.9666 4.96443 19.6716 5.58229 19.4651 6.06792C17.1367 5.71933 14.8202 5.71933 12.5396 6.06792C12.333 5.57149 12.0273 4.96443 11.7598 4.49083C11.7395 4.45597 11.7002 4.43794 11.6607 4.44395C9.4971 4.81659 7.42661 5.46931 5.49463 6.35643C5.4779 6.36364 5.46356 6.37568 5.45405 6.39129C1.52677 12.2586 0.45093 17.9816 0.978703 23.6337C0.981091 23.6613 0.996614 23.6878 1.01811 23.7046C3.60921 25.6075 6.11914 26.7627 8.58245 27.5284C8.62188 27.5404 8.66365 27.526 8.68874 27.4935C9.27144 26.6978 9.79086 25.8587 10.2362 24.9764C10.2625 24.9247 10.2374 24.8634 10.1837 24.843C9.3598 24.5304 8.57529 24.1494 7.82064 23.7166C7.76095 23.6818 7.75617 23.5964 7.81108 23.5555C7.96989 23.4365 8.12874 23.3127 8.28037 23.1877C8.30781 23.1649 8.34604 23.1601 8.37829 23.1745C13.336 25.438 18.7033 25.438 23.6025 23.1745C23.6347 23.1589 23.673 23.1637 23.7016 23.1865C23.8533 23.3115 24.0121 23.4365 24.1721 23.5555C24.227 23.5964 24.2234 23.6818 24.1637 23.7166C23.4091 24.1578 22.6246 24.5304 21.7995 24.8418C21.7458 24.8622 21.7219 24.9247 21.7482 24.9764C22.2031 25.8575 22.7225 26.6965 23.2944 27.4923C23.3183 27.526 23.3613 27.5404 23.4007 27.5284C25.876 26.7627 28.3859 25.6075 30.977 23.7046C30.9997 23.6878 31.014 23.6625 31.0164 23.6349C31.6481 17.1005 29.9585 11.4243 26.5375 6.39249C26.5291 6.37568 26.5148 6.36364 26.4981 6.35643ZM10.9766 20.1922C9.48396 20.1922 8.25409 18.8218 8.25409 17.1389C8.25409 15.456 9.46011 14.0857 10.9766 14.0857C12.5049 14.0857 13.7229 15.4681 13.699 17.1389C13.699 18.8218 12.493 20.1922 10.9766 20.1922ZM21.0424 20.1922C19.5499 20.1922 18.32 18.8218 18.32 17.1389C18.32 15.456 19.526 14.0857 21.0424 14.0857C22.5708 14.0857 23.7888 15.4681 23.7649 17.1389C23.7649 18.8218 22.5708 20.1922 21.0424 20.1922Z" fill="#6C78E2"/>
</svg>
