<svg width="42" height="42" viewBox="0 0 42 42" fill="none" xmlns="http://www.w3.org/2000/svg">
<path d="M7.69445 8.03462C7.69445 8.03462 8.83892 6.98061 10.0509 6.05789L16.7994 19.1868L14.1055 20.507L7.69445 8.03462Z" fill="#FBCB43"/>
<path d="M14.7492 3.65704C16.2303 3.25986 17.7796 2.99365 17.7796 2.99365L24.1907 15.4661L21.4977 16.7859L14.7492 3.65704Z" fill="#FF6854"/>
<path d="M9.96099 5.93558C9.96099 5.93558 11.0079 5.09502 12.1927 4.52005C13.3775 3.94509 14.7001 3.63573 14.7001 3.63573L21.5945 16.9158L16.8553 19.2156L9.96099 5.93558Z" fill="white"/>
<path d="M12.1037 4.39753C10.8901 4.98235 9.81782 5.83758 9.81782 5.83758C8.74557 6.69281 7.74398 7.68317 7.74398 7.68317L14.4593 20.5275L21.741 17.0186L24.1685 15.8488L17.4532 3.00445C17.4532 3.00445 16.027 3.18402 14.6723 3.49829C14.6723 3.49829 13.3173 3.81271 12.1037 4.39753Z" stroke="#1D2654" stroke-width="1.5" stroke-linejoin="round"/>
<path d="M24.2204 2.99336C24.2204 2.99336 25.768 3.25876 27.2481 3.65545L20.4996 16.7843L17.8093 15.4658L24.2204 2.99336Z" fill="#FBCB43"/>
<path d="M31.949 6.05762C33.1606 6.98018 34.3054 8.03435 34.3054 8.03435L27.8944 20.5068L25.2005 19.1865L31.949 6.05762Z" fill="#FF6854"/>
<path d="M27.2996 3.63535C27.2996 3.63535 28.6222 3.94472 29.807 4.51968C30.9918 5.09464 32.0387 5.93521 32.0387 5.93521L25.1444 19.2153L20.4052 16.9154L27.2996 3.63535Z" fill="white"/>
<path d="M29.896 4.39709C28.6824 3.81227 27.3274 3.49785 27.3274 3.49785C25.9724 3.18344 24.5468 3.00416 24.5468 3.00416L17.8315 15.8485L25.1131 19.3575L27.5407 20.5272L34.256 7.68288C34.256 7.68288 33.2538 6.69223 32.1819 5.83714C32.1819 5.83714 31.1096 4.98191 29.896 4.39709Z" stroke="#1D2654" stroke-width="1.5" stroke-linejoin="round"/>
<circle cx="21" cy="25" r="14" fill="#CBDBE6" stroke="#1D2654" stroke-width="1.5"/>
<path d="M21 11C13.268 11 7 17.2534 7 24.9673C7 27.9574 7.94174 30.728 9.54545 33C9.54545 33 15.2727 26.872 21 24.9673C26.7273 23.0627 35 24.9673 35 24.9673C35 17.2534 28.732 11 21 11Z" fill="#B7C9D5"/>
<circle cx="21" cy="25" r="14" stroke="#1D2654" stroke-width="1.5"/>
<circle cx="21" cy="26" r="11" fill="#B7C9D4"/>
<circle cx="21" cy="25" r="11" fill="url(#paint0_linear_1375_7904)"/>
<path d="M21 14C14.9249 14 10 18.9249 10 25C10 27.3548 10.7399 29.5368 12 31.3262C12 31.3262 16.5 26.5 21 25C25.5 23.5 32 25 32 25C32 18.9249 27.0751 14 21 14Z" fill="#CEE0EA"/>
<path d="M23.9941 29.98C24.1141 29.8733 24.2674 29.82 24.4541 29.82C24.6007 29.82 24.7074 29.8533 24.7741 29.92C25.0541 29.8933 25.2674 29.9533 25.4141 30.1C25.5607 30.2333 25.6341 30.4067 25.6341 30.62C25.6341 30.8467 25.5407 31.0533 25.3541 31.24C25.1807 31.4267 24.9407 31.52 24.6341 31.52L24.4541 31.5C24.2807 31.6333 24.0807 31.7 23.8541 31.7C23.6941 31.7 23.5407 31.6733 23.3941 31.62C23.2474 31.7267 23.0807 31.78 22.8941 31.78C22.7074 31.78 22.5407 31.72 22.3941 31.6C22.2207 31.8267 22.0207 31.94 21.7941 31.94C21.6607 31.94 21.4741 31.88 21.2341 31.76C21.1274 31.84 20.9874 31.88 20.8141 31.88C20.6674 31.88 20.5141 31.86 20.3541 31.82C20.2074 31.9667 20.0274 32.04 19.8141 32.04C19.6141 32.04 19.4274 31.9667 19.2541 31.82C19.2007 31.8467 19.1207 31.86 19.0141 31.86C18.9207 31.86 18.8541 31.8533 18.8141 31.84C18.6407 31.9867 18.4541 32.06 18.2541 32.06C18.1474 32.06 18.0407 32.04 17.9341 32C17.8007 32.0933 17.6407 32.14 17.4541 32.14C17.3207 32.14 17.1807 32.1 17.0341 32.02C16.7807 32.0067 16.5741 31.8867 16.4141 31.66C16.2541 31.42 16.1741 31.16 16.1741 30.88C16.1741 30.56 16.2741 30.3267 16.4741 30.18C16.4474 29.9267 16.5141 29.7067 16.6741 29.52C16.8474 29.3333 17.0607 29.2467 17.3141 29.26C17.3141 28.9533 17.4341 28.7 17.6741 28.5C17.9141 28.2867 18.2341 28.06 18.6341 27.82C18.6341 27.42 18.9074 27.1067 19.4541 26.88C19.4941 26.64 19.6607 26.3933 19.9541 26.14C20.2474 25.8733 20.5341 25.6733 20.8141 25.54C20.8407 25.34 20.9207 25.1733 21.0541 25.04C21.2007 24.8933 21.3674 24.8133 21.5541 24.8C21.5274 24.5467 21.6074 24.3333 21.7941 24.16C21.9807 23.9733 22.2007 23.8867 22.4541 23.9C22.4541 23.78 22.4807 23.6733 22.5341 23.58C22.5874 23.4867 22.6474 23.4 22.7141 23.32C22.7807 23.24 22.8274 23.1867 22.8541 23.16C22.8274 23.0533 22.8141 22.9733 22.8141 22.92C22.8141 22.76 22.8607 22.6133 22.9541 22.48C23.0474 22.3333 23.1674 22.2333 23.3141 22.18C23.2874 21.9933 23.2741 21.8333 23.2741 21.7C23.2741 21.3267 23.3341 21.04 23.4541 20.84C23.2941 20.76 23.1607 20.6333 23.0541 20.46C22.8807 20.4333 22.7274 20.3533 22.5941 20.22C22.4607 20.0867 22.3807 19.9333 22.3541 19.76C22.3007 19.7867 22.2007 19.8 22.0541 19.8C21.8674 19.8 21.6741 19.7667 21.4741 19.7C21.2874 19.62 21.1474 19.5267 21.0541 19.42C20.9474 19.5133 20.8007 19.5933 20.6141 19.66C20.4274 19.7267 20.2407 19.7667 20.0541 19.78C19.9741 19.9133 19.8341 20.0467 19.6341 20.18C19.4474 20.3133 19.2807 20.3933 19.1341 20.42C19.1074 20.5933 19.0007 20.78 18.8141 20.98C18.6407 21.1667 18.4674 21.2933 18.2941 21.36C18.2807 21.68 18.2141 21.94 18.0941 22.14C17.9874 22.3267 17.7741 22.42 17.4541 22.42C17.2407 22.42 17.0474 22.34 16.8741 22.18C16.7141 22.0067 16.6341 21.8133 16.6341 21.6C16.6341 21.5067 16.6541 21.4133 16.6941 21.32L16.6741 21.16C16.6741 20.8933 16.7607 20.64 16.9341 20.4C17.1207 20.16 17.3341 20 17.5741 19.92C17.5607 19.6133 17.6474 19.3667 17.8341 19.18C18.0341 18.9933 18.2674 18.9 18.5341 18.9C18.5741 18.7533 18.7407 18.5733 19.0341 18.36C19.3274 18.1467 19.6007 18.0467 19.8541 18.06C20.0941 17.9 20.4541 17.82 20.9341 17.82C21.1474 17.82 21.3474 17.8467 21.5341 17.9C21.7207 17.94 21.8541 18.0067 21.9341 18.1C22.0941 17.9533 22.2807 17.88 22.4941 17.88C22.6541 17.88 22.7941 17.92 22.9141 18C23.0474 18.0667 23.1274 18.1467 23.1541 18.24C23.4341 18.28 23.6474 18.4667 23.7941 18.8C23.9541 18.8133 24.0941 18.8733 24.2141 18.98C24.3474 19.0733 24.4341 19.1933 24.4741 19.34C24.6607 19.3933 24.8141 19.5733 24.9341 19.88C25.0674 20.1867 25.1341 20.5133 25.1341 20.86C25.1341 21.0333 25.1141 21.2 25.0741 21.36C25.1141 21.48 25.1341 21.5733 25.1341 21.64C25.1341 21.76 25.0874 21.8733 24.9941 21.98C25.0207 22.0867 25.0341 22.18 25.0341 22.26C25.0341 22.4867 24.9807 22.7133 24.8741 22.94C24.7674 23.1667 24.6341 23.3133 24.4741 23.38C24.4607 23.58 24.4074 23.78 24.3141 23.98C24.2341 24.1667 24.1207 24.32 23.9741 24.44C23.9474 24.6667 23.8607 24.88 23.7141 25.08C23.5807 25.2667 23.3941 25.3933 23.1541 25.46C23.1141 25.62 23.0074 25.7867 22.8341 25.96C22.6741 26.1333 22.5207 26.2267 22.3741 26.24C22.3207 26.4933 22.1541 26.7333 21.8741 26.96C21.5941 27.1733 21.3007 27.3133 20.9941 27.38C20.9407 27.6467 20.8607 27.84 20.7541 27.96C20.6474 28.08 20.4407 28.2133 20.1341 28.36C20.0807 28.8133 19.7807 29.1267 19.2341 29.3C19.1674 29.54 19.1007 29.7333 19.0341 29.88C18.9674 30.0267 18.8741 30.1467 18.7541 30.24C18.9407 30.1467 19.1074 30.1 19.2541 30.1C19.4007 30.1 19.5541 30.14 19.7141 30.22C19.8474 30.1267 20.0007 30.08 20.1741 30.08C20.3474 30.08 20.4807 30.1133 20.5741 30.18C20.7607 30.0867 20.9541 30.04 21.1541 30.04C21.3141 30.04 21.4407 30.08 21.5341 30.16C21.7207 30 21.9607 29.92 22.2541 29.92C22.4674 29.92 22.6674 29.9667 22.8541 30.06C23.0541 29.94 23.2741 29.88 23.5141 29.88C23.6741 29.88 23.8341 29.9133 23.9941 29.98Z" fill="white"/>
<path d="M23.9941 29.98L23.6094 30.9031L24.1891 31.1446L24.6584 30.7274L23.9941 29.98ZM24.7741 29.92L24.067 30.6271L24.4 30.9601L24.8689 30.9155L24.7741 29.92ZM25.4141 30.1L24.707 30.8071L24.7238 30.8239L24.7414 30.8399L25.4141 30.1ZM25.3541 31.24L24.647 30.5329L24.6339 30.546L24.6213 30.5595L25.3541 31.24ZM24.6341 31.52L24.5236 32.5139L24.5787 32.52H24.6341V31.52ZM24.4541 31.5L24.5645 30.5061L24.1639 30.4616L23.8444 30.7074L24.4541 31.5ZM23.3941 31.62L23.7358 30.6802L23.236 30.4985L22.8059 30.8113L23.3941 31.62ZM22.3941 31.6L23.0273 30.826L22.2275 30.1716L21.5997 30.9925L22.3941 31.6ZM21.2341 31.76L21.6813 30.8656L21.1285 30.5892L20.6341 30.96L21.2341 31.76ZM20.3541 31.82L20.5966 30.8499L20.0473 30.7125L19.647 31.1129L20.3541 31.82ZM19.2541 31.82L19.9 31.0566L19.3966 30.6307L18.8068 30.9256L19.2541 31.82ZM18.8141 31.84L19.1303 30.8913L18.5971 30.7136L18.1681 31.0766L18.8141 31.84ZM17.9341 32L18.2852 31.0637L17.7921 30.8787L17.3606 31.1808L17.9341 32ZM17.0341 32.02L17.5129 31.1421L17.3135 31.0333L17.0866 31.0214L17.0341 32.02ZM16.4141 31.66L15.582 32.2147L15.5894 32.2258L15.5971 32.2367L16.4141 31.66ZM16.4741 30.18L17.0654 30.9864L17.5287 30.6467L17.4686 30.0753L16.4741 30.18ZM16.6741 29.52L15.9413 28.8395L15.9277 28.8541L15.9148 28.8692L16.6741 29.52ZM17.3141 29.26L17.2615 30.2586L18.3141 30.314V29.26H17.3141ZM17.6741 28.5L18.3142 29.2682L18.3265 29.258L18.3384 29.2474L17.6741 28.5ZM18.6341 27.82L19.1486 28.6775L19.6341 28.3862V27.82H18.6341ZM19.4541 26.88L19.8371 27.8037L20.3493 27.5914L20.4405 27.0444L19.4541 26.88ZM19.9541 26.14L20.6077 26.8968L20.6173 26.8885L20.6267 26.8799L19.9541 26.14ZM20.8141 25.54L21.244 26.4429L21.7336 26.2097L21.8053 25.6722L20.8141 25.54ZM21.5541 24.8L21.6253 25.7975L22.6568 25.7238L22.5486 24.6953L21.5541 24.8ZM21.7941 24.16L22.4745 24.8928L22.4881 24.8802L22.5012 24.8671L21.7941 24.16ZM22.4541 23.9L22.4015 24.8986L23.4541 24.954V23.9H22.4541ZM22.5341 23.58L21.6658 23.0839L21.6658 23.0839L22.5341 23.58ZM22.7141 23.32L23.4823 23.9602L23.4823 23.9602L22.7141 23.32ZM22.8541 23.16L23.5612 23.8671L23.9615 23.4667L23.8242 22.9175L22.8541 23.16ZM22.9541 22.48L23.7733 23.0535L23.7859 23.0354L23.7977 23.0169L22.9541 22.48ZM23.3141 22.18L23.6558 23.1198L24.4188 22.8423L24.304 22.0386L23.3141 22.18ZM23.4541 20.84L24.3116 21.3545L24.8671 20.4285L23.9013 19.9456L23.4541 20.84ZM23.0541 20.46L23.9057 19.9359L23.6633 19.542L23.2061 19.4716L23.0541 20.46ZM22.5941 20.22L23.3012 19.5129L23.3012 19.5129L22.5941 20.22ZM22.3541 19.76L23.3424 19.6079L23.1338 18.2521L21.9068 18.8656L22.3541 19.76ZM21.4741 19.7L21.0801 20.6191L21.1184 20.6355L21.1578 20.6487L21.4741 19.7ZM21.0541 19.42L21.8066 18.7615L21.1481 18.0089L20.3956 18.6674L21.0541 19.42ZM20.6141 19.66L20.9504 20.6017L20.6141 19.66ZM20.0541 19.78L19.9828 18.7825L19.4641 18.8196L19.1966 19.2655L20.0541 19.78ZM19.6341 20.18L19.0794 19.3479L19.0659 19.3569L19.0528 19.3663L19.6341 20.18ZM19.1341 20.42L18.9552 19.4361L18.254 19.5636L18.1457 20.2679L19.1341 20.42ZM18.8141 20.98L18.083 20.2977L18.0813 20.2995L18.8141 20.98ZM18.2941 21.36L17.9351 20.4267L17.3223 20.6624L17.2949 21.3184L18.2941 21.36ZM18.0941 22.14L17.2366 21.6255L17.2311 21.6346L17.2258 21.6439L18.0941 22.14ZM16.8741 22.18L16.1393 22.8583L16.1664 22.8877L16.1958 22.9148L16.8741 22.18ZM16.6941 21.32L17.6132 21.7139L17.72 21.4648L17.6863 21.196L16.6941 21.32ZM16.6741 21.16H15.6741V21.2223L15.6818 21.284L16.6741 21.16ZM16.9341 20.4L16.1447 19.7861L16.1338 19.8001L16.1234 19.8145L16.9341 20.4ZM17.5741 19.92L17.8903 20.8687L18.6059 20.6302L18.5731 19.8766L17.5741 19.92ZM17.8341 19.18L17.1517 18.4489L17.1391 18.4607L17.127 18.4729L17.8341 19.18ZM18.5341 18.9V19.9H19.2979L19.4988 19.1631L18.5341 18.9ZM19.0341 18.36L18.4459 17.5513L18.4459 17.5513L19.0341 18.36ZM19.8541 18.06L19.8015 19.0586L20.1328 19.0761L20.4088 18.892L19.8541 18.06ZM21.5341 17.9L21.2593 18.8615L21.2917 18.8708L21.3245 18.8778L21.5341 17.9ZM21.9341 18.1L21.1748 18.7508L21.8477 19.5358L22.6098 18.8372L21.9341 18.1ZM22.9141 18L22.3594 18.8321L22.4112 18.8666L22.4668 18.8944L22.9141 18ZM23.1541 18.24L22.1925 18.5147L22.3707 19.1382L23.0126 19.2299L23.1541 18.24ZM23.7941 18.8L22.8787 19.2027L23.1183 19.7472L23.711 19.7965L23.7941 18.8ZM24.2141 18.98L23.5497 19.7274L23.5931 19.766L23.6406 19.7992L24.2141 18.98ZM24.4741 19.34L23.5093 19.6031L23.6576 20.1467L24.1993 20.3015L24.4741 19.34ZM24.9341 19.88L24.0028 20.2444L24.0096 20.2617L24.017 20.2787L24.9341 19.88ZM25.0741 21.36L24.1039 21.1175L24.0333 21.4L24.1254 21.6762L25.0741 21.36ZM24.9941 21.98L24.2415 21.3215L23.8971 21.7151L24.0239 22.2225L24.9941 21.98ZM24.8741 22.94L23.9692 22.5142V22.5142L24.8741 22.94ZM24.4741 23.38L24.0894 22.4569L23.5175 22.6952L23.4763 23.3135L24.4741 23.38ZM24.3141 23.98L23.4079 23.5571L23.4012 23.5715L23.3949 23.5861L24.3141 23.98ZM23.9741 24.44L23.3408 23.666L23.0281 23.9219L22.9809 24.3232L23.9741 24.44ZM23.7141 25.08L22.9076 24.4886L22.9003 24.4988L23.7141 25.08ZM23.1541 25.46L22.8864 24.4965L22.3252 24.6524L22.1839 25.2175L23.1541 25.46ZM22.8341 25.96L22.127 25.2529L22.1128 25.267L22.0993 25.2817L22.8341 25.96ZM22.3741 26.24L22.2835 25.2441L21.5477 25.311L21.3955 26.034L22.3741 26.24ZM21.8741 26.96L22.4801 27.7554L22.4918 27.7465L22.5033 27.7372L21.8741 26.96ZM20.9941 27.38L20.7816 26.4028L20.1419 26.5419L20.0135 27.1839L20.9941 27.38ZM20.7541 27.96L21.5015 28.6244L21.5015 28.6244L20.7541 27.96ZM20.1341 28.36L19.7026 27.4579L19.2053 27.6957L19.1409 28.2432L20.1341 28.36ZM19.2341 29.3L18.9318 28.3468L18.4155 28.5105L18.2705 29.0324L19.2341 29.3ZM18.7541 30.24L18.1401 29.4506L19.2013 31.1344L18.7541 30.24ZM19.7141 30.22L19.2668 31.1144L19.7996 31.3808L20.2875 31.0392L19.7141 30.22ZM20.5741 30.18L19.9928 30.9937L20.4828 31.3437L21.0213 31.0744L20.5741 30.18ZM21.5341 30.16L20.8833 30.9193L21.5341 31.4771L22.1849 30.9193L21.5341 30.16ZM22.8541 30.06L22.4068 30.9544L22.8978 31.1999L23.3686 30.9175L22.8541 30.06ZM24.6584 30.7274C24.6194 30.7621 24.5733 30.7886 24.5276 30.8045C24.4841 30.8196 24.4561 30.82 24.4541 30.82V28.82C24.0648 28.82 23.6621 28.9371 23.3297 29.2326L24.6584 30.7274ZM24.4541 30.82C24.4533 30.82 24.4435 30.82 24.4261 30.8177C24.4088 30.8154 24.381 30.8105 24.3458 30.7995C24.2734 30.7768 24.1673 30.7275 24.067 30.6271L25.4812 29.2129C25.1454 28.8771 24.7225 28.82 24.4541 28.82V30.82ZM24.8689 30.9155C24.9177 30.9108 24.9126 30.9187 24.8733 30.9076C24.8526 30.9018 24.8248 30.8914 24.7937 30.8735C24.7622 30.8554 24.7327 30.8329 24.707 30.8071L26.1212 29.3929C25.6952 28.9669 25.1442 28.8802 24.6793 28.9245L24.8689 30.9155ZM24.7414 30.8399C24.7134 30.8145 24.6808 30.7734 24.6581 30.7196C24.6361 30.6676 24.6341 30.6294 24.6341 30.62H26.6341C26.6341 30.149 26.4591 29.6986 26.0867 29.3601L24.7414 30.8399ZM24.6341 30.62C24.6341 30.6075 24.6354 30.5923 24.639 30.5757C24.6426 30.5591 24.6476 30.5447 24.6527 30.5334C24.6631 30.5103 24.6687 30.5112 24.647 30.5329L26.0612 31.9471C26.402 31.6063 26.6341 31.1556 26.6341 30.62H24.6341ZM24.6213 30.5595C24.6284 30.5518 24.6384 30.5429 24.6507 30.5346C24.663 30.5263 24.674 30.521 24.6816 30.518C24.6969 30.512 24.6865 30.52 24.6341 30.52V32.52C25.1575 32.52 25.6863 32.3519 26.0869 31.9205L24.6213 30.5595ZM24.7445 30.5261L24.5645 30.5061L24.3436 32.4939L24.5236 32.5139L24.7445 30.5261ZM23.8444 30.7074C23.8429 30.7085 23.8438 30.7077 23.8468 30.706C23.8499 30.7044 23.8538 30.7027 23.8578 30.7013C23.8619 30.7 23.8644 30.6995 23.8647 30.6995C23.8649 30.6995 23.8616 30.7 23.8541 30.7V32.7C24.2926 32.7 24.7089 32.5656 25.0638 32.2926L23.8444 30.7074ZM23.8541 30.7C23.8076 30.7 23.7702 30.6927 23.7358 30.6802L23.0523 32.5598C23.3113 32.654 23.5805 32.7 23.8541 32.7V30.7ZM22.8059 30.8113C22.8156 30.8042 22.8324 30.7946 22.8543 30.7876C22.8758 30.7807 22.8909 30.78 22.8941 30.78V32.78C23.2854 32.78 23.6594 32.6636 23.9822 32.4287L22.8059 30.8113ZM22.8941 30.78C22.9099 30.78 22.9367 30.7829 22.9678 30.7941C22.9986 30.8052 23.0188 30.8191 23.0273 30.826L21.7608 32.374C22.0832 32.6377 22.4728 32.78 22.8941 32.78V30.78ZM21.5997 30.9925C21.5757 31.024 21.5794 31.0086 21.6211 30.985C21.6423 30.9729 21.6698 30.9609 21.7023 30.9523C21.735 30.9436 21.7664 30.94 21.7941 30.94V32.94C22.4115 32.94 22.8799 32.6109 23.1884 32.2074L21.5997 30.9925ZM21.7941 30.94C21.8343 30.94 21.8604 30.9444 21.8684 30.9459C21.8768 30.9475 21.8746 30.9476 21.8601 30.943C21.8292 30.933 21.7711 30.9105 21.6813 30.8656L20.7868 32.6544C21.0525 32.7873 21.4153 32.94 21.7941 32.94V30.94ZM20.6341 30.96C20.7461 30.8759 20.8361 30.88 20.8141 30.88V32.88C21.1387 32.88 21.5086 32.8041 21.8341 32.56L20.6341 30.96ZM20.8141 30.88C20.7586 30.88 20.687 30.8724 20.5966 30.8499L20.1115 32.7901C20.3412 32.8476 20.5762 32.88 20.8141 32.88V30.88ZM19.647 31.1129C19.6615 31.0984 19.6902 31.0758 19.7318 31.0589C19.7728 31.0422 19.804 31.04 19.8141 31.04V33.04C20.2841 33.04 20.7211 32.8672 21.0612 32.5271L19.647 31.1129ZM19.8141 31.04C19.8396 31.04 19.8669 31.0453 19.8897 31.0542C19.9108 31.0625 19.9139 31.0684 19.9 31.0566L18.6081 32.5834C18.9361 32.8609 19.3456 33.04 19.8141 33.04V31.04ZM18.8068 30.9256C18.8949 30.8815 18.9642 30.8679 18.9897 30.8636C19.0179 30.8589 19.0284 30.86 19.0141 30.86V32.86C19.1718 32.86 19.439 32.8456 19.7013 32.7144L18.8068 30.9256ZM19.0141 30.86C18.9888 30.86 18.9838 30.859 18.9936 30.86C18.999 30.8605 19.013 30.8621 19.0334 30.8659C19.0528 30.8695 19.087 30.8769 19.1303 30.8913L18.4978 32.7887C18.7034 32.8572 18.9115 32.86 19.0141 32.86V30.86ZM18.1681 31.0766C18.1542 31.0884 18.1573 31.0826 18.1784 31.0742C18.2012 31.0653 18.2286 31.06 18.2541 31.06V33.06C18.7225 33.06 19.1321 32.8809 19.46 32.6034L18.1681 31.0766ZM18.2541 31.06C18.2636 31.06 18.272 31.0609 18.2784 31.0621C18.2846 31.0633 18.287 31.0644 18.2852 31.0637L17.5829 32.9363C17.7942 33.0155 18.0195 33.06 18.2541 33.06V31.06ZM17.3606 31.1808C17.3856 31.1633 17.4118 31.1515 17.4341 31.145C17.4552 31.1388 17.4638 31.14 17.4541 31.14V33.14C17.8147 33.14 18.1823 33.0469 18.5075 32.8192L17.3606 31.1808ZM17.4541 31.14C17.5252 31.14 17.5492 31.1619 17.5129 31.1421L16.5552 32.8979C16.8122 33.0381 17.1162 33.14 17.4541 33.14V31.14ZM17.0866 31.0214C17.0953 31.0218 17.1109 31.0237 17.1312 31.0295C17.1517 31.0355 17.1723 31.0442 17.1912 31.0552C17.2308 31.0782 17.2413 31.0979 17.231 31.0833L15.5971 32.2367C15.9148 32.6868 16.3908 32.9875 16.9815 33.0186L17.0866 31.0214ZM17.2461 31.1053C17.1921 31.0243 17.1741 30.9564 17.1741 30.88H15.1741C15.1741 31.3636 15.316 31.8157 15.582 32.2147L17.2461 31.1053ZM17.1741 30.88C17.1741 30.8214 17.1835 30.8232 17.1682 30.8589C17.1603 30.8775 17.1473 30.9011 17.1277 30.9259C17.108 30.9508 17.0863 30.9711 17.0654 30.9864L15.8827 29.3736C15.3535 29.7617 15.1741 30.3433 15.1741 30.88H17.1741ZM17.4686 30.0753C17.4677 30.067 17.4705 30.0841 17.4611 30.115C17.4568 30.1293 17.4511 30.1423 17.445 30.1531C17.4391 30.1638 17.4343 30.1696 17.4333 30.1708L15.9148 28.8692C15.5687 29.273 15.4253 29.769 15.4796 30.2847L17.4686 30.0753ZM17.4069 30.2005C17.4048 30.2027 17.3829 30.2242 17.3404 30.2415C17.2978 30.2588 17.2663 30.2589 17.2615 30.2586L17.3666 28.2614C16.8159 28.2324 16.3153 28.4367 15.9413 28.8395L17.4069 30.2005ZM18.3141 29.26C18.3141 29.2488 18.3151 29.246 18.3144 29.2495C18.3135 29.2534 18.3115 29.2602 18.3078 29.2681C18.3041 29.276 18.3006 29.2807 18.2997 29.2819C18.299 29.2828 18.3026 29.2779 18.3142 29.2682L17.0339 27.7318C16.5708 28.1177 16.3141 28.6502 16.3141 29.26H18.3141ZM18.3384 29.2474C18.5163 29.0893 18.7802 28.8985 19.1486 28.6775L18.1196 26.9625C17.6879 27.2215 17.3118 27.4841 17.0097 27.7526L18.3384 29.2474ZM19.6341 27.82C19.6341 27.8365 19.6308 27.8637 19.6191 27.8941C19.6077 27.9239 19.5947 27.9401 19.5926 27.9424C19.5919 27.9432 19.6052 27.9278 19.6453 27.9014C19.6856 27.8749 19.7473 27.841 19.8371 27.8037L19.071 25.9563C18.3589 26.2515 17.6341 26.8301 17.6341 27.82H19.6341ZM20.4405 27.0444C20.4322 27.094 20.4171 27.1052 20.4377 27.0749C20.4593 27.0428 20.5089 26.9822 20.6077 26.8968L19.3004 25.3832C18.9288 25.7041 18.563 26.1434 18.4677 26.7156L20.4405 27.0444ZM20.6267 26.8799C20.8667 26.6618 21.0731 26.5243 21.244 26.4429L20.3841 24.6371C19.9951 24.8224 19.6281 25.0848 19.2814 25.4001L20.6267 26.8799ZM21.8053 25.6722C21.806 25.667 21.8051 25.678 21.7956 25.6977C21.7858 25.7182 21.7727 25.7356 21.7612 25.7471L20.347 24.3329C20.0472 24.6327 19.8764 25.0064 19.8228 25.4078L21.8053 25.6722ZM21.7612 25.7471C21.7643 25.744 21.7518 25.7571 21.7218 25.7715C21.6903 25.7866 21.6559 25.7953 21.6253 25.7975L21.4828 23.8025C21.0297 23.8349 20.644 24.0359 20.347 24.3329L21.7612 25.7471ZM22.5486 24.6953C22.5495 24.7046 22.5511 24.746 22.5304 24.8011C22.5097 24.8562 22.4814 24.8864 22.4745 24.8928L21.1136 23.4272C20.6963 23.8147 20.4999 24.3383 20.5596 24.9047L22.5486 24.6953ZM22.5012 24.8671C22.5088 24.8595 22.4973 24.8729 22.4656 24.8854C22.4509 24.8912 22.4364 24.895 22.4234 24.897C22.4107 24.8989 22.4029 24.8987 22.4015 24.8986L22.5066 22.9014C21.9574 22.8725 21.4648 23.075 21.087 23.4529L22.5012 24.8671ZM23.4541 23.9C23.4541 23.9144 23.4524 23.9397 23.4442 23.9725C23.4359 24.006 23.4221 24.0415 23.4023 24.0761L21.6658 23.0839C21.5164 23.3453 21.4541 23.6267 21.4541 23.9H23.4541ZM23.4023 24.0761C23.4275 24.032 23.4543 23.9938 23.4823 23.9602L21.9458 22.6798C21.8405 22.8062 21.7473 22.9413 21.6658 23.0839L23.4023 24.0761ZM23.4823 23.9602C23.5126 23.9238 23.5354 23.897 23.5516 23.8785C23.5597 23.8693 23.5648 23.8636 23.5675 23.8607C23.5707 23.8572 23.5681 23.8602 23.5612 23.8671L22.147 22.4529C22.0836 22.5163 22.0095 22.6035 21.9458 22.6798L23.4823 23.9602ZM23.8242 22.9175C23.8199 22.9002 23.8167 22.8863 23.8144 22.8755C23.812 22.8646 23.8109 22.8581 23.8105 22.8556C23.81 22.8528 23.8107 22.8565 23.8116 22.8655C23.8121 22.8702 23.8127 22.877 23.8131 22.8858C23.8136 22.8945 23.8141 22.906 23.8141 22.92H21.8141C21.8141 23.1025 21.8537 23.2818 21.8839 23.4025L23.8242 22.9175ZM23.8141 22.92C23.8141 22.9388 23.8111 22.9647 23.802 22.9932C23.793 23.0216 23.7813 23.0421 23.7733 23.0535L22.1348 21.9065C21.926 22.2049 21.8141 22.5511 21.8141 22.92H23.8141ZM23.7977 23.0169C23.7951 23.021 23.782 23.0401 23.7542 23.0632C23.7255 23.0872 23.6912 23.1069 23.6558 23.1198L22.9723 21.2402C22.5949 21.3774 22.3078 21.6329 22.1104 21.9431L23.7977 23.0169ZM24.304 22.0386C24.2815 21.8812 24.2741 21.7711 24.2741 21.7H22.2741C22.2741 21.8956 22.2933 22.1054 22.3241 22.3214L24.304 22.0386ZM24.2741 21.7C24.2741 21.5644 24.2852 21.4704 24.2979 21.4099C24.3106 21.3491 24.3215 21.3379 24.3116 21.3545L22.5966 20.3255C22.3431 20.7479 22.2741 21.2439 22.2741 21.7H24.2741ZM23.9013 19.9456C23.9062 19.948 23.9109 19.9509 23.915 19.9538C23.9191 19.9567 23.9217 19.959 23.9228 19.96C23.9252 19.9623 23.9184 19.9566 23.9057 19.9359L22.2024 20.9841C22.393 21.2938 22.6581 21.5601 23.0069 21.7344L23.9013 19.9456ZM23.2061 19.4716C23.2263 19.4747 23.2497 19.482 23.2716 19.4934C23.2929 19.5045 23.3024 19.5141 23.3012 19.5129L21.887 20.9271C22.1587 21.1989 22.5023 21.3869 22.902 21.4484L23.2061 19.4716ZM23.3012 19.5129C23.3 19.5117 23.3096 19.5212 23.3206 19.5424C23.3321 19.5644 23.3393 19.5878 23.3424 19.6079L21.3657 19.9121C21.4272 20.3118 21.6152 20.6554 21.887 20.9271L23.3012 19.5129ZM21.9068 18.8656C21.9722 18.8329 22.0253 18.8171 22.0529 18.8099C22.0823 18.8022 22.1017 18.7995 22.1069 18.7988C22.1155 18.7976 22.1011 18.8 22.0541 18.8V20.8C22.1537 20.8 22.2627 20.7957 22.3712 20.7812C22.466 20.7686 22.6305 20.7398 22.8013 20.6544L21.9068 18.8656ZM22.0541 18.8C21.9878 18.8 21.9013 18.7883 21.7903 18.7513L21.1578 20.6487C21.4468 20.745 21.747 20.8 22.0541 20.8V18.8ZM21.868 18.7809C21.8197 18.7602 21.7938 18.7446 21.7838 18.7379C21.7738 18.7313 21.7857 18.7375 21.8066 18.7615L20.3015 20.0785C20.5265 20.3357 20.8112 20.5039 21.0801 20.6191L21.868 18.7809ZM20.3956 18.6674C20.4061 18.6582 20.4053 18.6611 20.3852 18.6721C20.3652 18.683 20.3307 18.6993 20.2777 18.7183L20.9504 20.6017C21.2117 20.5084 21.4818 20.3745 21.7126 20.1726L20.3956 18.6674ZM20.2777 18.7183C20.1714 18.7562 20.0738 18.776 19.9828 18.7825L20.1253 20.7775C20.4077 20.7573 20.6834 20.6971 20.9504 20.6017L20.2777 18.7183ZM19.1966 19.2655C19.2125 19.239 19.2194 19.2368 19.1994 19.2559C19.1798 19.2745 19.1424 19.3059 19.0794 19.3479L20.1888 21.012C20.4513 20.837 20.7251 20.6052 20.9116 20.2945L19.1966 19.2655ZM19.0528 19.3663C18.9957 19.4071 18.9571 19.4285 18.9363 19.4385C18.9151 19.4487 18.9225 19.4421 18.9552 19.4361L19.3129 21.4039C19.6617 21.3405 19.967 21.1711 20.2153 20.9937L19.0528 19.3663ZM18.1457 20.2679C18.1547 20.2096 18.1717 20.1836 18.1658 20.1939C18.1596 20.2047 18.1371 20.2397 18.083 20.2977L19.5451 21.6623C19.7978 21.3916 20.0525 21.0267 20.1224 20.5721L18.1457 20.2679ZM18.0813 20.2995C17.9752 20.4138 17.9235 20.4311 17.9351 20.4267L18.653 22.2933C19.0113 22.1555 19.3062 21.9196 19.5469 21.6605L18.0813 20.2995ZM17.2949 21.3184C17.2861 21.5307 17.2445 21.6123 17.2366 21.6255L18.9516 22.6545C19.1836 22.2677 19.2754 21.8293 19.2932 21.4016L17.2949 21.3184ZM17.2258 21.6439C17.2537 21.5951 17.2909 21.549 17.3356 21.5099C17.3795 21.4714 17.4217 21.4476 17.4532 21.4338C17.5109 21.4086 17.5245 21.42 17.4541 21.42V23.42C17.9414 23.42 18.5995 23.271 18.9623 22.6361L17.2258 21.6439ZM17.4541 21.42C17.476 21.42 17.5044 21.4248 17.5314 21.436C17.5568 21.4465 17.5633 21.4553 17.5523 21.4452L16.1958 22.9148C16.5327 23.2258 16.9619 23.42 17.4541 23.42V21.42ZM17.6089 21.5017C17.5988 21.4908 17.6076 21.4973 17.6181 21.5226C17.6292 21.5496 17.6341 21.5781 17.6341 21.6H15.6341C15.6341 22.0921 15.8283 22.5214 16.1393 22.8583L17.6089 21.5017ZM17.6341 21.6C17.6341 21.6536 17.6218 21.6938 17.6132 21.7139L15.7749 20.9261C15.6863 21.1328 15.6341 21.3597 15.6341 21.6H17.6341ZM17.6863 21.196L17.6663 21.036L15.6818 21.284L15.7018 21.444L17.6863 21.196ZM17.6741 21.16C17.6741 21.1266 17.6803 21.0748 17.7447 20.9855L16.1234 19.8145C15.8412 20.2052 15.6741 20.6601 15.6741 21.16H17.6741ZM17.7234 21.0139C17.8137 20.8979 17.8726 20.8746 17.8903 20.8687L17.2578 18.9713C16.7956 19.1254 16.4278 19.4221 16.1447 19.7861L17.7234 21.0139ZM18.5731 19.8766C18.571 19.8288 18.5781 19.8205 18.5725 19.8365C18.5698 19.8441 18.5653 19.8542 18.5586 19.8648C18.5519 19.8753 18.5454 19.8828 18.5412 19.8871L17.127 18.4729C16.7093 18.8906 16.5517 19.4267 16.575 19.9634L18.5731 19.8766ZM18.5164 19.9111C18.5257 19.9023 18.5314 19.8985 18.533 19.8974C18.5345 19.8965 18.5335 19.8973 18.5305 19.8985C18.5274 19.8997 18.5248 19.9003 18.5238 19.9005C18.5229 19.9007 18.526 19.9 18.5341 19.9V17.9C18.0069 17.9 17.5316 18.0944 17.1517 18.4489L18.5164 19.9111ZM19.4988 19.1631C19.4767 19.2443 19.4465 19.2968 19.4329 19.3184C19.4188 19.3407 19.4121 19.346 19.4228 19.3344C19.4329 19.3235 19.4532 19.3033 19.4877 19.2738C19.5218 19.2446 19.5661 19.2096 19.6222 19.1687L18.4459 17.5513C18.269 17.6799 18.0984 17.8211 17.9553 17.9756C17.8224 18.1191 17.65 18.341 17.5693 18.6369L19.4988 19.1631ZM19.6222 19.1687C19.808 19.0336 19.8578 19.0616 19.8015 19.0586L19.9066 17.0614C19.3437 17.0318 18.8468 17.2597 18.4459 17.5513L19.6222 19.1687ZM20.4088 18.892C20.4018 18.8967 20.4294 18.8765 20.521 18.8562C20.6122 18.8359 20.7465 18.82 20.9341 18.82V16.82C20.3745 16.82 19.78 16.9075 19.2994 17.2279L20.4088 18.892ZM20.9341 18.82C21.0636 18.82 21.1704 18.8361 21.2593 18.8615L21.8088 16.9385C21.5244 16.8572 21.2312 16.82 20.9341 16.82V18.82ZM21.3245 18.8778C21.3572 18.8848 21.3532 18.8876 21.3268 18.8744C21.2991 18.8605 21.2379 18.8244 21.1748 18.7508L22.6933 17.4492C22.4113 17.1201 22.0332 16.9843 21.7436 16.9222L21.3245 18.8778ZM22.6098 18.8372C22.6067 18.84 22.5898 18.8539 22.5597 18.8658C22.5293 18.8777 22.5045 18.88 22.4941 18.88V16.88C22.0258 16.88 21.5992 17.0504 21.2583 17.3628L22.6098 18.8372ZM22.4941 18.88C22.4902 18.88 22.472 18.8794 22.4443 18.8715C22.4158 18.8634 22.3863 18.85 22.3594 18.8321L23.4688 17.1679C23.1668 16.9666 22.829 16.88 22.4941 16.88V18.88ZM22.4668 18.8944C22.4661 18.894 22.4227 18.8729 22.367 18.8171C22.3068 18.757 22.2331 18.6567 22.1925 18.5147L24.1156 17.9653C23.9788 17.4865 23.612 17.231 23.3613 17.1056L22.4668 18.8944ZM23.0126 19.2299C22.9912 19.2269 22.9636 19.2198 22.9341 19.2062C22.9045 19.1926 22.8814 19.1764 22.8656 19.1626C22.8354 19.1361 22.8482 19.1333 22.8787 19.2027L24.7094 18.3973C24.469 17.851 24.0162 17.353 23.2955 17.25L23.0126 19.2299ZM23.711 19.7965C23.6897 19.7948 23.6592 19.7887 23.6251 19.7741C23.5911 19.7596 23.5657 19.7416 23.5497 19.7274L24.8784 18.2326C24.5967 17.9822 24.2527 17.8348 23.8771 17.8035L23.711 19.7965ZM23.6406 19.7992C23.6248 19.7881 23.5967 19.7647 23.5684 19.7255C23.5395 19.6855 23.52 19.6424 23.5093 19.6031L25.4388 19.0769C25.3328 18.6883 25.0977 18.3779 24.7875 18.1608L23.6406 19.7992ZM24.1993 20.3015C24.0654 20.2633 23.9908 20.1905 23.9678 20.1635C23.9503 20.1429 23.9686 20.157 24.0028 20.2444L25.8653 19.5156C25.7092 19.1167 25.3936 18.5627 24.7488 18.3785L24.1993 20.3015ZM24.017 20.2787C24.0936 20.4549 24.1341 20.6454 24.1341 20.86H26.1341C26.1341 20.3813 26.0412 19.9184 25.8511 19.4813L24.017 20.2787ZM24.1341 20.86C24.1341 20.9557 24.1231 21.0407 24.1039 21.1175L26.0442 21.6025C26.105 21.3593 26.1341 21.1109 26.1341 20.86H24.1341ZM24.1254 21.6762C24.131 21.6932 24.135 21.7063 24.1377 21.7157C24.1403 21.7253 24.1413 21.7297 24.1413 21.7295C24.1412 21.7293 24.1408 21.7275 24.1403 21.7243C24.1397 21.7211 24.1389 21.7159 24.138 21.709C24.1364 21.6961 24.1341 21.6723 24.1341 21.64H26.1341C26.1341 21.4085 26.072 21.1915 26.0227 21.0438L24.1254 21.6762ZM24.1341 21.64C24.1341 21.5666 24.1491 21.4957 24.1744 21.4342C24.1988 21.3751 24.227 21.338 24.2415 21.3215L25.7466 22.6385C25.969 22.3844 26.1341 22.0448 26.1341 21.64H24.1341ZM24.0239 22.2225C24.0302 22.2478 24.033 22.2638 24.0341 22.2714C24.0352 22.2793 24.0341 22.2748 24.0341 22.26H26.0341C26.0341 22.0742 26.0039 21.8962 25.9642 21.7375L24.0239 22.2225ZM24.0341 22.26C24.0341 22.3246 24.0199 22.4066 23.9692 22.5142L25.7789 23.3658C25.9416 23.0201 26.0341 22.6488 26.0341 22.26H24.0341ZM23.9692 22.5142C23.9477 22.5601 23.9389 22.5641 23.9541 22.5473C23.9719 22.5277 24.0159 22.4876 24.0894 22.4569L24.8587 24.3031C25.3318 24.1059 25.613 23.7182 25.7789 23.3658L23.9692 22.5142ZM23.4763 23.3135C23.472 23.3782 23.4542 23.4579 23.4079 23.5571L25.2202 24.4029C25.3606 24.1021 25.4495 23.7818 25.4718 23.4465L23.4763 23.3135ZM23.3949 23.5861C23.3736 23.6358 23.3542 23.6551 23.3408 23.666L24.6073 25.214C24.8873 24.9849 25.0945 24.6975 25.2332 24.3739L23.3949 23.5861ZM22.9809 24.3232C22.9762 24.3635 22.9612 24.4156 22.9077 24.4886L24.5205 25.6714C24.7602 25.3444 24.9186 24.9699 24.9672 24.5568L22.9809 24.3232ZM22.9003 24.4988C22.9002 24.4989 22.9016 24.4971 22.9044 24.4942C22.9073 24.4914 22.9103 24.4891 22.9126 24.4875C22.9148 24.486 22.9148 24.4863 22.9113 24.4879C22.9078 24.4895 22.8999 24.4927 22.8864 24.4965L23.4217 26.4235C23.8619 26.3012 24.2498 26.0504 24.5278 25.6612L22.9003 24.4988ZM22.1839 25.2175C22.1948 25.1738 22.208 25.1562 22.2018 25.1659C22.1952 25.1762 22.1742 25.2057 22.127 25.2529L23.5412 26.6671C23.7846 26.4237 24.0239 26.1039 24.1242 25.7025L22.1839 25.2175ZM22.0993 25.2817C22.0638 25.3201 22.0559 25.3199 22.0791 25.3058C22.1048 25.2902 22.1751 25.254 22.2835 25.2441L22.4646 27.2359C22.9695 27.19 23.3367 26.8898 23.5689 26.6383L22.0993 25.2817ZM21.3955 26.034C21.4051 25.9886 21.4153 26.0448 21.2449 26.1828L22.5033 27.7372C22.8928 27.4219 23.2364 26.9981 23.3526 26.446L21.3955 26.034ZM21.268 26.1646C21.0901 26.3001 20.9289 26.3708 20.7816 26.4028L21.2065 28.3572C21.6726 28.2559 22.098 28.0466 22.4801 27.7554L21.268 26.1646ZM20.0135 27.1839C19.996 27.2713 19.9791 27.3208 19.97 27.3426C19.9605 27.3657 19.9671 27.3401 20.0067 27.2956L21.5015 28.6244C21.7817 28.3091 21.9078 27.9103 21.9746 27.5761L20.0135 27.1839ZM20.0067 27.2956C20.0364 27.2622 20.04 27.269 19.9769 27.3097C19.9197 27.3466 19.831 27.3964 19.7026 27.4579L20.5655 29.2621C20.888 29.1079 21.2529 28.904 21.5015 28.6244L20.0067 27.2956ZM19.1409 28.2432C19.1389 28.2606 19.1363 28.2623 19.1396 28.2552C19.1431 28.2476 19.1472 28.2429 19.1468 28.2434C19.144 28.2463 19.0951 28.295 18.9318 28.3468L19.5363 30.2532C19.9197 30.1317 20.2941 29.937 20.5914 29.6266C20.8999 29.3043 21.0766 28.9074 21.1272 28.4768L19.1409 28.2432ZM18.2705 29.0324C18.2111 29.2462 18.1606 29.385 18.1237 29.4662L19.9444 30.2938C20.0408 30.0817 20.1236 29.8338 20.1976 29.5676L18.2705 29.0324ZM18.1237 29.4662C18.1208 29.4725 18.1206 29.4714 18.1247 29.4661C18.1266 29.4636 18.1291 29.4608 18.132 29.4579C18.1348 29.455 18.1376 29.4526 18.1401 29.4506L19.368 31.0294C19.6234 30.8307 19.8149 30.5787 19.9444 30.2938L18.1237 29.4662ZM19.2013 31.1344C19.2489 31.1106 19.2776 31.1011 19.2887 31.098C19.2996 31.0949 19.2865 31.1 19.2541 31.1V29.1C18.9007 29.1 18.5775 29.2102 18.3068 29.3456L19.2013 31.1344ZM19.2541 31.1C19.2357 31.1 19.2258 31.0974 19.2266 31.0976C19.228 31.098 19.2412 31.1016 19.2668 31.1144L20.1613 29.3256C19.8925 29.1912 19.5864 29.1 19.2541 29.1V31.1ZM20.2875 31.0392C20.2693 31.052 20.2459 31.0639 20.2202 31.0717C20.1951 31.0793 20.1781 31.08 20.1741 31.08V29.08C19.8096 29.08 19.4532 29.1819 19.1406 29.4008L20.2875 31.0392ZM20.1741 31.08C20.1992 31.08 20.1916 31.0827 20.1615 31.0751C20.13 31.0673 20.0663 31.0462 19.9928 30.9937L21.1553 29.3663C20.8257 29.1309 20.4554 29.08 20.1741 29.08V31.08ZM21.0213 31.0744C21.0753 31.0474 21.1161 31.04 21.1541 31.04V29.04C20.792 29.04 20.4461 29.1259 20.1268 29.2856L21.0213 31.0744ZM21.1541 31.04C21.1487 31.04 21.02 31.0365 20.8833 30.9193L22.1849 29.4007C21.8614 29.1235 21.4794 29.04 21.1541 29.04V31.04ZM22.1849 30.9193C22.182 30.9217 22.1783 30.9243 22.1743 30.9266C22.1704 30.9288 22.1686 30.9292 22.1703 30.9287C22.1735 30.9276 22.1981 30.92 22.2541 30.92V28.92C21.7703 28.92 21.2848 29.0566 20.8833 29.4007L22.1849 30.9193ZM22.2541 30.92C22.3157 30.92 22.3622 30.9321 22.4068 30.9544L23.3013 29.1656C22.9726 29.0012 22.6191 28.92 22.2541 28.92V30.92ZM23.3686 30.9175C23.4085 30.8935 23.4498 30.88 23.5141 30.88V28.88C23.0983 28.88 22.6996 28.9865 22.3396 29.2025L23.3686 30.9175ZM23.5141 30.88C23.5314 30.88 23.5611 30.8829 23.6094 30.9031L24.3787 29.0569C24.107 28.9437 23.8167 28.88 23.5141 28.88V30.88Z" fill="#1D2654"/>
<path d="M11.7 17.5415C13 16.0415 15 14.5415 17 14.0415" stroke="#DCDCDC" stroke-width="0.5" stroke-linecap="round" stroke-linejoin="round"/>
<path d="M29.5 28L30.5288 29.4712L32 30.5L30.5288 31.5288L29.5 33L28.4712 31.5288L27 30.5L28.4712 29.4712L29.5 28Z" fill="white"/>
<defs>
<linearGradient id="paint0_linear_1375_7904" x1="21" y1="14" x2="21" y2="36" gradientUnits="userSpaceOnUse">
<stop stop-color="#E9F0F3"/>
<stop offset="1" stop-color="#DBE6EC"/>
</linearGradient>
</defs>
</svg>
