<svg width="48" height="48" viewBox="0 0 48 48" fill="none" xmlns="http://www.w3.org/2000/svg">
<path fill-rule="evenodd" clip-rule="evenodd" d="M15 19C15 18.4477 15.4477 18 16 18H32C32.5523 18 33 18.4477 33 19C33 19.5523 32.5523 20 32 20H16C15.4477 20 15 19.5523 15 19Z" fill="#1D2654"/>
<path fill-rule="evenodd" clip-rule="evenodd" d="M15 24C15 23.4477 15.4477 23 16 23H32C32.5523 23 33 23.4477 33 24C33 24.5523 32.5523 25 32 25H16C15.4477 25 15 24.5523 15 24Z" fill="#1D2654"/>
<path fill-rule="evenodd" clip-rule="evenodd" d="M15 29C15 28.4477 15.4477 28 16 28H32C32.5523 28 33 28.4477 33 29C33 29.5523 32.5523 30 32 30H16C15.4477 30 15 29.5523 15 29Z" fill="#1D2654"/>
</svg>
