<svg width="238" height="68" viewBox="0 0 238 68" fill="none" xmlns="http://www.w3.org/2000/svg">
<path d="M68.0726 34C68.0726 52.7777 52.834 68 34.0363 68C15.2386 68 0 52.7777 0 34C0 15.2223 15.2386 0 34.0363 0C52.834 0 68.0726 15.2223 68.0726 34Z" fill="white"/>
<path d="M37.5615 17.85L39.1418 16.4536L41.2083 16.6358L42.4846 15.5429L49.0488 13.8429L55.7953 15.1786L57.1932 16.4536H59.2597L60.8399 17.4858L59.7459 19.7929L60.2321 23.4358C57.9428 22.6465 52.9386 20.7643 49.0488 20.7643C45.588 20.7643 40.3574 22.2012 38.1693 23.0715L38.4732 20.0965L37.5615 17.85Z" fill="#E9F0F3"/>
<path d="M49.8853 22.3775C49.712 22.4651 49.5302 22.5376 49.3607 22.5916C49.4074 22.9538 49.6493 23.3291 50.0362 23.6006C50.4689 23.9044 50.963 23.9941 51.3369 23.8613C51.6532 23.749 52.0007 23.9141 52.1132 24.2301C52.2256 24.5461 52.0603 24.8932 51.744 25.0055C50.9023 25.3043 49.9985 25.0583 49.3372 24.5941C49.1219 24.443 48.9196 24.2597 48.7446 24.0503C48.5696 24.2597 48.3673 24.443 48.152 24.5941C47.4907 25.0583 46.5869 25.3043 45.7452 25.0055C45.429 24.8932 45.2637 24.5461 45.3761 24.2301C45.4885 23.9141 45.836 23.749 46.1523 23.8613C46.5262 23.9941 47.0203 23.9044 47.4531 23.6006C47.8399 23.3291 48.0818 22.9538 48.1285 22.5916C47.9591 22.5376 47.7772 22.4651 47.6039 22.3775C47.4144 22.2816 47.2081 22.154 47.0401 21.9918C46.8822 21.8393 46.6781 21.5774 46.6781 21.2196C46.6781 20.7601 46.9605 20.289 47.2802 19.9648C47.6184 19.6218 48.1298 19.3071 48.7446 19.3071C49.3595 19.3071 49.8708 19.6218 50.209 19.9648C50.5288 20.289 50.8111 20.7601 50.8111 21.2196C50.8111 21.5774 50.607 21.8393 50.4491 21.9918C50.2811 22.154 50.0748 22.2816 49.8853 22.3775Z" fill="#1D2654"/>
<path fill-rule="evenodd" clip-rule="evenodd" d="M52.7477 19.1367C52.9031 18.9149 53.1762 18.7 53.5464 18.7C53.9167 18.7 54.1897 18.9149 54.3452 19.1367C54.502 19.3605 54.5797 19.6373 54.5797 19.9142C54.5797 20.1912 54.502 20.468 54.3452 20.6917C54.1897 20.9136 53.9167 21.1285 53.5464 21.1285C53.1762 21.1285 52.9031 20.9136 52.7477 20.6917C52.5909 20.468 52.5132 20.1912 52.5132 19.9142C52.5132 19.6373 52.5909 19.3605 52.7477 19.1367Z" fill="#1D2654"/>
<path fill-rule="evenodd" clip-rule="evenodd" d="M43.1446 19.1367C43.3001 18.9149 43.5731 18.7 43.9434 18.7C44.3137 18.7 44.5867 18.9149 44.7422 19.1367C44.899 19.3605 44.9766 19.6373 44.9766 19.9142C44.9766 20.1912 44.899 20.468 44.7422 20.6917C44.5867 20.9136 44.3137 21.1285 43.9434 21.1285C43.5731 21.1285 43.3001 20.9136 43.1446 20.6917C42.9878 20.468 42.9102 20.1912 42.9102 19.9142C42.9102 19.6373 42.9878 19.3605 43.1446 19.1367Z" fill="#1D2654"/>
<path d="M33.5499 25.0143C27.9961 25.0143 21.8931 27.5643 21.527 30.4786C21.296 32.3163 24.6325 37.2442 28.0779 40.6343C26.8502 41.7674 26.3161 43.1599 26.2564 44.0786H40.8434C40.7998 43.4088 40.5041 42.4871 39.8713 41.5977C37.3874 39.6174 38.0041 37.0103 41.9672 37.3344C44.132 34.594 45.7353 31.7715 45.5728 30.4786C45.2066 27.5643 39.1036 25.0143 33.5499 25.0143Z" fill="#FF6854"/>
<path fill-rule="evenodd" clip-rule="evenodd" d="M24.0377 37.3102L23.8981 37.2876C23.8144 37.274 23.7284 37.26 23.6399 37.2458C22.7065 37.0951 21.5832 36.925 20.3536 36.8696C18.2288 36.7737 15.7586 37.0187 13.2984 38.297C13.3232 37.544 13.5268 36.9143 13.7654 36.3198C13.8199 36.184 13.8825 36.0362 13.9474 35.883C14.0816 35.5664 14.2255 35.2268 14.3275 34.9226C14.4915 34.4336 14.6105 33.8765 14.5161 33.2636C14.3584 32.2396 13.5853 31.6616 12.7965 31.5364C12.5608 31.499 12.3083 31.5003 12.0587 31.5451C12.0407 31.5133 12.0216 31.482 12.0017 31.4511C11.7098 30.9993 11.2655 30.7202 10.8124 30.5935C10.4557 30.4937 10.046 30.4811 9.65322 30.5768C9.38443 30.1459 8.9697 29.8628 8.51032 29.7251C8.09453 29.6005 7.65336 29.6002 7.22732 29.7615C6.80962 29.9197 6.46594 30.2102 6.19111 30.5705C5.6559 31.2722 5.30378 32.3378 5.11345 33.7003C5.10839 33.7365 5.10569 33.7725 5.10525 33.8082C5.09102 33.8698 5.0835 33.934 5.0835 34C5.0835 49.2758 16.9981 61.7718 32.0508 62.7206C32.6599 62.759 33.2741 62.7785 33.8928 62.7785C48.5308 62.7785 60.6179 51.8739 62.4593 37.7527C62.4702 37.669 62.4807 37.5853 62.4909 37.5015C62.54 37.0971 62.2951 36.7149 61.9071 36.59C61.8009 36.5559 61.6923 36.5436 61.5864 36.5511C61.582 36.5513 61.5777 36.5516 61.5734 36.5518C60.7253 36.6081 59.814 36.833 59.0341 37.0835C59.9945 34.3912 60.3242 31.4943 60.0483 28.4086C60.1171 28.2749 60.2069 28.0913 60.307 27.8641C60.5221 27.3762 60.7871 26.6815 60.9912 25.8456C61.3681 24.3022 61.5482 22.2277 60.7681 20.0842C61.5767 19.0519 61.5821 17.5613 60.7048 16.517C59.8649 15.517 58.481 15.242 57.3482 15.7614C55.7001 14.3802 53.1236 13.1143 49.2698 13.1143C45.3639 13.1143 42.9655 14.3127 41.2197 15.7807C40.0795 15.2355 38.6721 15.5049 37.822 16.517C36.9469 17.5587 36.9501 19.0447 37.7528 20.0767C37.467 20.8185 37.272 21.7204 37.2348 22.6394C37.21 23.2525 37.2544 23.9005 37.4047 24.5295C36.5421 24.369 35.6601 24.2576 34.7806 24.203C34.7342 24.0286 34.6827 23.8002 34.6303 23.5184C34.5314 22.9875 34.4431 22.3494 34.3742 21.7058C34.2555 20.5974 33.6181 19.6087 32.6691 19.1247C31.6745 18.6174 30.4624 18.7273 29.4026 19.5955C27.5733 21.0939 27.373 23.2979 27.3526 25.1C26.6124 25.3252 25.9055 25.5859 25.2487 25.8763C24.0607 26.4015 23.0033 27.0387 22.2048 27.768C21.4136 28.4907 20.8089 29.3679 20.6827 30.3727C20.5947 31.0726 20.8438 31.9056 21.1874 32.7008C21.5473 33.5337 22.0777 34.4724 22.7119 35.4399C23.1122 36.0505 23.5586 36.68 24.0377 37.3102ZM56.6424 17.41C55.3307 16.1637 53.0514 14.8143 49.2698 14.8143C45.4705 14.8143 43.4064 16.0553 41.9077 17.4415C41.7399 17.5968 41.5262 17.6715 41.3142 17.6677C41.1077 17.6777 40.8971 17.613 40.7262 17.4698C40.2456 17.0669 39.529 17.1296 39.1257 17.6097C38.7223 18.0898 38.785 18.8057 39.2657 19.2085C39.5227 19.424 39.6202 19.7589 39.545 20.0637C39.5413 20.1758 39.5153 20.2889 39.4646 20.3968C39.19 20.9813 38.971 21.8254 38.9352 22.7081C38.9007 23.5608 39.0398 24.3699 39.3843 24.9932C40.2567 25.2414 41.0877 25.5388 41.8511 25.8763C43.0391 26.4015 44.0965 27.0387 44.8949 27.768C45.6862 28.4907 46.2908 29.3679 46.4171 30.3727C46.4809 30.8805 46.3668 31.4412 46.1906 31.9757C46.0087 32.5273 45.7322 33.1343 45.3922 33.7661C44.8999 34.6809 44.2551 35.6832 43.5184 36.6965C43.9809 36.792 44.4686 36.9168 44.9809 37.0725C48.5401 38.1539 51.7043 36.075 52.9482 34.5549C53.2456 34.1914 53.7816 34.1376 54.1455 34.4347C54.5093 34.7318 54.5632 35.2673 54.2658 35.6308C52.7673 37.4621 48.9426 40.0531 44.4856 38.6989C43.5091 38.4022 42.6795 38.2432 41.9892 38.1841C41.9589 38.1849 41.9284 38.184 41.8978 38.1815C41.7275 38.1676 41.5677 38.1597 41.4178 38.157C41.0914 38.155 40.8043 38.1785 40.5554 38.2218C39.7055 38.3696 39.4258 38.7118 39.3465 38.9335C39.2601 39.1752 39.2835 39.6234 39.7488 40.2239C40.205 40.8126 41.0266 41.4515 42.26 41.9563C42.6949 42.1343 42.9029 42.6307 42.7248 43.0651C42.5488 43.4941 42.0619 43.7022 41.6309 43.5358C41.662 43.7048 41.6824 43.868 41.6925 44.0235C41.7077 44.258 41.6251 44.4883 41.4642 44.6598C41.3034 44.8313 41.0786 44.9285 40.8434 44.9285H26.2564C26.0211 44.9285 25.7964 44.8313 25.6355 44.6598C25.4747 44.4883 25.392 44.258 25.4073 44.0235C25.4698 43.0617 25.9293 41.7844 26.8922 40.6452C26.4499 40.1869 26.0128 39.708 25.5876 39.2177C25.038 39.1963 24.361 39.0858 23.6591 38.9713C23.5627 38.9555 23.4657 38.9397 23.3685 38.924C22.4445 38.7749 21.4025 38.6186 20.2769 38.5678C18.0344 38.4667 15.498 38.7861 13.0531 40.4143C12.8183 40.5707 12.5212 40.6006 12.2598 40.4942C11.9985 40.3878 11.807 40.1588 11.7486 39.883C11.3656 38.0741 11.7641 36.7381 12.1858 35.6873C12.2706 35.476 12.3479 35.2943 12.4186 35.1283C12.5336 34.8582 12.631 34.6296 12.7138 34.3827C12.8348 34.0217 12.8706 33.7592 12.8341 33.5221C12.8158 33.4032 12.7718 33.3429 12.7335 33.3073C12.6889 33.2658 12.6201 33.2297 12.5294 33.2153C12.3156 33.1814 12.1934 33.2793 12.1651 33.3288C11.9563 33.6938 11.5119 33.8515 11.1195 33.6999C10.727 33.5484 10.5044 33.133 10.5957 32.7227C10.6435 32.5075 10.5964 32.411 10.5717 32.3728C10.5388 32.3219 10.4703 32.2632 10.3536 32.2305C10.2348 32.1973 10.1086 32.2043 10.0116 32.2413C9.92503 32.2743 9.8676 32.3266 9.83189 32.4059C9.65228 32.8046 9.19917 33.0022 8.78436 32.8626C8.36956 32.7231 8.12839 32.292 8.22681 31.866C8.27977 31.6367 8.23712 31.5258 8.21437 31.4852C8.19165 31.4445 8.14216 31.3896 8.02128 31.3534C7.93065 31.3262 7.87548 31.3341 7.8305 31.3512C7.77718 31.3713 7.67513 31.4299 7.54475 31.6008C7.26953 31.9617 6.97328 32.6871 6.79893 33.9353C6.79543 33.9603 6.79088 33.9849 6.78531 34.0091C6.78772 41.2786 9.6577 47.8784 14.3267 52.7412C14.0379 51.5808 13.9318 50.4009 13.9981 49.2944C14.1368 46.9818 15.0626 44.7089 17.0049 43.8017C17.7322 43.462 18.5664 43.5383 19.1736 44.021C19.3984 44.1998 19.5756 44.4203 19.7009 44.6703C20.034 44.6161 20.3737 44.6406 20.681 44.7357C21.084 44.8604 21.4685 45.1145 21.7327 45.5081C22.5515 45.2995 23.4682 45.609 24.0125 46.4137C24.2835 46.8143 24.4187 47.2322 24.4319 47.6693C24.4446 48.0865 24.3442 48.472 24.2275 48.8079C24.1437 49.0488 24.0333 49.3112 23.9282 49.5611L23.9282 49.5613C23.8922 49.6468 23.8568 49.731 23.8233 49.8122C23.684 50.1506 23.5498 50.502 23.443 50.8944C23.0166 52.4627 23.2958 53.5985 23.4314 54.0166C23.5762 54.4632 23.3312 54.9425 22.8841 55.0872C22.437 55.2318 21.9572 54.9871 21.8124 54.5405C21.6052 53.9013 21.2651 52.4184 21.8007 50.4488C21.9346 49.9567 22.0992 49.5304 22.2495 49.1654C22.2961 49.0523 22.3393 48.9495 22.3795 48.8539C22.4762 48.6241 22.5551 48.4363 22.6198 48.2501C22.7072 47.9989 22.7345 47.8392 22.7309 47.7208C22.7279 47.6222 22.7029 47.514 22.6025 47.3656C22.4866 47.1942 22.3462 47.1449 22.2422 47.1449C22.1398 47.1449 22.0114 47.1918 21.9076 47.3518C21.6893 47.6884 21.2651 47.8268 20.8899 47.6837C20.5148 47.5406 20.2908 47.155 20.3527 46.7587C20.3821 46.5707 20.3403 46.4877 20.3218 46.4587C20.2989 46.4229 20.2552 46.3837 20.1775 46.3596C19.9936 46.3027 19.8153 46.3754 19.7378 46.4955C19.5138 46.8434 19.0716 46.9797 18.6903 46.8183C18.309 46.657 18.0994 46.2448 18.1937 45.8421C18.2351 45.6652 18.22 45.5495 18.1995 45.4834C18.1793 45.418 18.1471 45.3776 18.1138 45.3512C18.0497 45.3002 17.9125 45.2545 17.7257 45.3417C16.6189 45.8587 15.8203 47.3373 15.6969 49.396C15.5762 51.4081 16.1336 53.7063 17.4081 55.4835C17.4152 55.4935 17.4221 55.5035 17.4287 55.5136C18.5375 56.3616 19.7138 57.1261 20.9481 57.7975C23.5676 58.5947 26.7729 58.8355 30.1771 57.4949C31.8295 56.8442 32.9378 56.1309 33.7984 55.3781C34.6688 54.6166 35.3095 53.7962 36.0347 52.8633L36.0396 52.8569C37.2159 51.3438 38.5389 49.6419 41.2109 47.9181C44.4527 45.8267 47.2038 45.1914 49.735 44.607L49.7541 44.6026C50.773 44.3673 51.7476 44.1413 52.7146 43.8373C52.748 43.6832 52.8246 43.5366 52.9445 43.4168C57.1973 39.1685 58.9131 34.1395 58.3302 28.3167C58.3123 28.1374 58.3518 27.957 58.4432 27.8017L58.4451 27.7983C58.4479 27.7934 58.4528 27.7847 58.4597 27.7724C58.4734 27.7477 58.4949 27.7082 58.5226 27.6549C58.578 27.5483 58.6578 27.3871 58.7495 27.1791C58.9333 26.762 59.1621 26.1626 59.3379 25.4428C59.691 23.9964 59.8173 22.1211 59.0043 20.2532C58.903 20.0205 58.9142 19.7672 59.0139 19.5541C59.0639 19.424 59.1467 19.3044 59.2612 19.2085C59.7418 18.8057 59.8045 18.0898 59.4012 17.6097C58.9979 17.1296 58.2813 17.0669 57.8006 17.4698C57.4562 17.7585 56.9501 17.7281 56.6424 17.41ZM29.0665 24.6558C30.3546 24.3774 31.6991 24.2074 33.0249 24.1714C33.001 24.0582 32.9784 23.9435 32.9571 23.8292C32.8481 23.2434 32.7541 22.5599 32.682 21.8866C32.6184 21.2919 32.2833 20.8367 31.8952 20.6387C31.5526 20.464 31.0629 20.4339 30.4817 20.91C29.3929 21.8019 29.1243 23.0998 29.0665 24.6558ZM41.5713 36.4591C41.4418 36.4561 41.3153 36.4561 41.1917 36.4591C40.642 36.4694 40.1311 36.5388 39.6755 36.6699C39.9128 36.1179 40.1289 35.5666 40.3243 35.0232C40.9533 33.2735 41.3758 31.5804 41.5962 30.1643C41.7398 29.2421 41.8046 28.3956 41.7673 27.7158C42.5733 28.1204 43.2449 28.5644 43.7465 29.0226C44.3761 29.5976 44.6717 30.132 44.7285 30.5844C44.7459 30.723 44.7205 31 44.5742 31.444C44.4334 31.8708 44.2043 32.3832 43.8932 32.9611C43.3256 34.0158 42.5158 35.2326 41.5713 36.4591ZM37.7709 40.291C37.09 41.3532 36.3173 42.3525 35.4496 43.2285H39.7851C39.6642 42.9009 39.4868 42.5426 39.2411 42.1812C38.5815 41.6342 38.055 40.9806 37.7709 40.291ZM33.5499 42.0415C34.6169 38.391 35.273 34.7102 35.5942 31.7016C35.7819 29.9429 35.8539 28.4253 35.8289 27.2861C35.8174 26.7628 35.7857 26.3298 35.7381 25.9952C35.0091 25.9098 34.2744 25.8643 33.5499 25.8643C32.8254 25.8643 32.0907 25.9098 31.3616 25.9952C31.3141 26.3298 31.2823 26.7628 31.2708 27.2861C31.2459 28.4253 31.3179 29.9429 31.5056 31.7016C31.8267 34.7102 32.4829 38.391 33.5499 42.0415ZM36.984 26.1807C37.0156 26.5015 37.0355 26.8634 37.0442 27.2595C37.0706 28.4647 36.9944 30.0364 36.8029 31.8304C36.4813 34.8434 35.8311 38.5158 34.7757 42.1785C36.7412 40.1141 38.2097 37.3126 39.1802 34.6129C39.7849 32.9306 40.1873 31.3124 40.3951 29.9777C40.608 28.61 40.6012 27.6326 40.4663 27.1776C40.4625 27.165 40.4592 27.1523 40.4563 27.1396C39.3938 26.7309 38.2102 26.4021 36.984 26.1807ZM26.7755 35.0232C27.8047 37.8865 29.4112 40.968 31.6502 43.2285H27.3146C27.5421 42.6127 27.9663 41.8946 28.6553 41.2586C28.8262 41.1009 28.925 40.8802 28.9287 40.6479C28.9324 40.4155 28.8407 40.1918 28.675 40.0287C26.9953 38.3759 25.3383 36.3433 24.1357 34.5086C23.534 33.5907 23.0583 32.7409 22.7499 32.0271C22.4251 31.2755 22.3437 30.8034 22.3712 30.5844C22.4281 30.132 22.7236 29.5976 23.3532 29.0226C23.8548 28.5644 24.5264 28.1204 25.3324 27.7158C25.2951 28.3956 25.36 29.2421 25.5035 30.1643C25.724 31.5804 26.1465 33.2735 26.7755 35.0232ZM26.6335 27.1776C26.6373 27.165 26.6406 27.1523 26.6435 27.1396C27.706 26.7309 28.8895 26.4021 30.1157 26.1807C30.0841 26.5015 30.0642 26.8634 30.0556 27.2595C30.0291 28.4647 30.1054 30.0364 30.2969 31.8304C30.6185 34.8434 31.2686 38.5158 32.324 42.1785C30.3586 40.1141 28.89 37.3126 27.9195 34.6129C27.3148 32.9306 26.9124 31.3124 26.7047 29.9777C26.4918 28.61 26.4986 27.6326 26.6335 27.1776ZM59.9121 38.5925C58.936 40.0058 57.7013 41.3435 56.2064 42.2681C56.9395 41.3017 57.5682 40.3005 58.0942 39.2657C58.0972 39.2643 58.1003 39.2629 58.1033 39.2614C58.4713 39.0878 59.1527 38.8135 59.9121 38.5925Z" fill="#1D2654"/>
<path fill-rule="evenodd" clip-rule="evenodd" d="M56.6004 21.1784C56.628 21.013 56.7845 20.9013 56.9501 20.9289C57.3407 20.9939 58.0734 21.2545 58.5339 21.5612C58.6736 21.6542 58.7113 21.8426 58.6182 21.9821C58.5251 22.1216 58.3364 22.1593 58.1968 22.0663C57.8134 21.811 57.1629 21.5798 56.8502 21.5277C56.6846 21.5002 56.5728 21.3438 56.6004 21.1784Z" fill="#1D2654"/>
<path fill-rule="evenodd" clip-rule="evenodd" d="M41.6159 20.979C41.5751 20.8164 41.4102 20.7175 41.2473 20.7582C40.7233 20.889 40.1697 21.2204 39.7459 21.5026C39.6062 21.5956 39.5685 21.7841 39.6616 21.9236C39.7547 22.0631 39.9434 22.1008 40.083 22.0078C40.5031 21.728 40.9811 21.4505 41.3947 21.3472C41.5576 21.3065 41.6566 21.1417 41.6159 20.979Z" fill="#1D2654"/>
<path fill-rule="evenodd" clip-rule="evenodd" d="M56.608 22.3289C56.6541 22.1677 56.8223 22.0743 56.9837 22.1204C57.4198 22.2449 58.0237 22.503 58.4753 22.8037C58.615 22.8967 58.6527 23.0852 58.5596 23.2247C58.4665 23.3642 58.2778 23.4019 58.1382 23.3089C57.7458 23.0476 57.201 22.8139 56.8167 22.7042C56.6553 22.6581 56.5619 22.4901 56.608 22.3289Z" fill="#1D2654"/>
<path fill-rule="evenodd" clip-rule="evenodd" d="M41.6679 22.1406C41.6148 21.9816 41.4427 21.8956 41.2835 21.9486C40.8965 22.0775 40.297 22.3976 39.8631 22.6866C39.7234 22.7796 39.6857 22.9681 39.7788 23.1076C39.8719 23.2471 40.0605 23.2848 40.2002 23.1918C40.6103 22.9187 41.1594 22.6299 41.4757 22.5246C41.6349 22.4716 41.721 22.2997 41.6679 22.1406Z" fill="#1D2654"/>
<path d="M101.327 45.3333C107.457 45.3333 112.428 40.5197 112.428 34.2437C112.428 27.9677 107.457 23.1541 101.327 23.1541C95.1968 23.1541 90.2256 27.9677 90.2256 34.2437C90.2256 40.5197 95.1968 45.3333 101.327 45.3333ZM101.327 40.5806C97.8502 40.5806 95.1053 38.0519 95.1053 34.2437C95.1053 30.4354 97.8502 27.9068 101.327 27.9068C104.804 27.9068 107.549 30.4354 107.549 34.2437C107.549 38.0519 104.804 40.5806 101.327 40.5806Z" fill="white"/>
<path d="M123.96 34.0609V29.6738H120.818V25.4086L116.243 26.7795V29.6738H113.804V34.0609H116.243V39.4534C116.243 43.7186 117.982 45.5161 123.96 44.9068V40.7634C121.947 40.8853 120.818 40.7634 120.818 39.4534V34.0609H123.96Z" fill="white"/>
<path d="M135.009 34.0609V29.6738H131.868V25.4086L127.293 26.7795V29.6738H124.853V34.0609H127.293V39.4534C127.293 43.7186 129.032 45.5161 135.009 44.9068V40.7634C132.996 40.8853 131.868 40.7634 131.868 39.4534V34.0609H135.009Z" fill="white"/>
<path d="M141.388 39.1182H152.215C152.337 38.5394 152.398 37.9301 152.398 37.2903C152.398 32.6899 149.105 29.2473 144.652 29.2473C139.833 29.2473 136.539 32.7509 136.539 37.2903C136.539 41.8297 139.772 45.3333 144.987 45.3333C147.885 45.3333 150.141 44.267 151.636 42.1953L147.976 40.0931C147.366 40.7634 146.299 41.2509 145.048 41.2509C143.371 41.2509 141.968 40.7025 141.388 39.1182ZM141.297 35.7061C141.724 34.1523 142.883 33.2992 144.621 33.2992C145.994 33.2992 147.366 33.939 147.854 35.7061H141.297Z" fill="white"/>
<path d="M159.568 32.3853V29.6738H154.993V44.9068H159.568V38.0215C159.568 35.0053 162.252 34.2437 164.143 34.5483V29.3691C162.221 29.3691 160.178 30.344 159.568 32.3853Z" fill="white"/>
<path d="M188.202 44.9068H192.777V22.6666H188.202V44.9068Z" fill="white"/>
<path d="M207.195 29.6738V31.1057C206.189 29.948 204.694 29.2473 202.651 29.2473C198.656 29.2473 195.362 32.7509 195.362 37.2903C195.362 41.8297 198.656 45.3333 202.651 45.3333C204.694 45.3333 206.189 44.6326 207.195 43.4749V44.9068H211.77V29.6738H207.195ZM203.566 41.0071C201.462 41.0071 199.937 39.5752 199.937 37.2903C199.937 35.0053 201.462 33.5734 203.566 33.5734C205.67 33.5734 207.195 35.0053 207.195 37.2903C207.195 39.5752 205.67 41.0071 203.566 41.0071Z" fill="white"/>
<path d="M232.205 29.2473C230.04 29.2473 228.637 30.0394 227.783 31.258C226.929 29.9785 225.587 29.2473 223.788 29.2473C221.745 29.2473 220.403 30.0394 219.701 31.0752V29.6738H215.126V44.9068H219.701V36.3154C219.701 34.5179 220.555 33.4516 222.08 33.4516C223.544 33.4516 224.276 34.4265 224.276 35.9498V44.9068H228.851V36.3154C228.851 34.5179 229.705 33.4516 231.23 33.4516C232.693 33.4516 233.425 34.4265 233.425 35.9498V44.9068H238V35.5537C238 31.7455 235.713 29.2473 232.205 29.2473Z" fill="white"/>
<path d="M177.357 45.2597C181.294 45.2597 184.739 43.324 186.585 40.2821L182.34 37.824C181.417 39.4832 179.541 40.4665 177.357 40.4665C173.543 40.4665 171.083 37.9162 171.083 34.0755C171.083 30.2347 173.543 27.6845 177.357 27.6845C179.541 27.6845 181.387 28.6677 182.34 30.3269L186.585 27.8688C184.709 24.827 181.264 22.8912 177.357 22.8912C170.867 22.8912 166.161 27.7459 166.161 34.0755C166.161 40.405 170.867 45.2597 177.357 45.2597Z" fill="white"/>
</svg>
