<svg width="280" height="280" viewBox="0 0 280 280" fill="none" xmlns="http://www.w3.org/2000/svg">
<path d="M280 140C280 217.32 217.32 280 140 280C62.6801 280 0 217.32 0 140C0 62.6801 62.6801 0 140 0C217.32 0 280 62.6801 280 140Z" fill="white"/>
<path d="M154.5 73.5L161 67.75L169.5 68.5L174.75 64L201.75 57L229.5 62.5L235.25 67.75H243.75L250.25 72L245.75 81.5L247.75 96.5C238.333 93.25 217.75 85.5 201.75 85.5C187.515 85.5 166 91.4167 157 95L158.25 82.75L154.5 73.5Z" fill="#E9F0F3"/>
<path d="M205.192 92.1427C204.479 92.5036 203.731 92.8018 203.034 93.0242C203.226 94.5159 204.221 96.061 205.812 97.1791C207.592 98.43 209.625 98.7992 211.163 98.2526C212.464 97.7902 213.893 98.47 214.356 99.771C214.818 101.072 214.138 102.502 212.837 102.964C209.375 104.194 205.657 103.181 202.937 101.27C202.052 100.648 201.22 99.893 200.5 99.0309C199.78 99.893 198.948 100.648 198.062 101.27C195.342 103.181 191.625 104.194 188.163 102.964C186.862 102.502 186.182 101.072 186.644 99.771C187.107 98.47 188.536 97.7902 189.837 98.2526C191.375 98.7992 193.407 98.43 195.187 97.1791C196.779 96.061 197.774 94.5159 197.966 93.0242C197.269 92.8018 196.521 92.5036 195.808 92.1427C195.028 91.7479 194.18 91.2224 193.489 90.5544C192.839 89.9264 192 88.8482 192 87.375C192 85.4829 193.161 83.543 194.476 82.2081C195.868 80.7959 197.971 79.5 200.5 79.5C203.029 79.5 205.132 80.7959 206.523 82.2081C207.839 83.543 209 85.4829 209 87.375C209 88.8482 208.161 89.9264 207.511 90.5544C206.82 91.2224 205.971 91.7479 205.192 92.1427Z" fill="#1D2654"/>
<path fill-rule="evenodd" clip-rule="evenodd" d="M216.964 78.7986C217.604 77.8851 218.727 77 220.25 77C221.773 77 222.896 77.8851 223.535 78.7986C224.18 79.7199 224.5 80.8596 224.5 82C224.5 83.1404 224.18 84.2801 223.535 85.2014C222.896 86.1149 221.773 87 220.25 87C218.727 87 217.604 86.1149 216.964 85.2014C216.319 84.2801 216 83.1404 216 82C216 80.8596 216.319 79.7199 216.964 78.7986Z" fill="#1D2654"/>
<path fill-rule="evenodd" clip-rule="evenodd" d="M177.464 78.7986C178.104 77.8851 179.227 77 180.75 77C182.273 77 183.396 77.8851 184.035 78.7986C184.68 79.7199 185 80.8596 185 82C185 83.1404 184.68 84.2801 184.035 85.2014C183.396 86.1149 182.273 87 180.75 87C179.227 87 178.104 86.1149 177.464 85.2014C176.819 84.2801 176.5 83.1404 176.5 82C176.5 80.8596 176.819 79.7199 177.464 78.7986Z" fill="#1D2654"/>
<path d="M138 103C115.156 103 90.0528 113.5 88.5466 125.5C87.5968 133.067 101.321 153.359 115.492 167.318C110.442 171.983 108.246 177.717 108 181.5H168C167.821 178.742 166.605 174.947 164.001 171.285C153.785 163.13 156.321 152.395 172.623 153.73C181.527 142.446 188.122 130.824 187.453 125.5C185.947 113.5 160.844 103 138 103Z" fill="#FF6854"/>
<path fill-rule="evenodd" clip-rule="evenodd" d="M98.8741 153.63L98.2997 153.537C97.9555 153.481 97.6016 153.424 97.2379 153.365C93.3982 152.745 88.7778 152.044 83.7204 151.816C74.9803 151.421 64.8198 152.43 54.7004 157.694C54.8024 154.593 55.6401 152 56.6214 149.552C56.8455 148.993 57.1031 148.384 57.3701 147.754C57.9219 146.45 58.5138 145.051 58.9333 143.799C59.6078 141.786 60.0976 139.492 59.7094 136.968C59.0607 132.751 55.8806 130.371 52.6359 129.856C51.6664 129.702 50.6278 129.707 49.6014 129.892C49.527 129.761 49.4488 129.632 49.3667 129.505C48.1662 127.644 46.3386 126.495 44.475 125.973C43.0078 125.563 41.3224 125.511 39.7069 125.905C38.6013 124.13 36.8954 122.964 35.0058 122.398C33.2956 121.884 31.481 121.883 29.7285 122.548C28.0104 123.199 26.5968 124.395 25.4663 125.879C23.2649 128.768 21.8165 133.156 21.0336 138.766C21.0128 138.915 21.0017 139.064 20.9999 139.21C20.9414 139.464 20.9104 139.728 20.9104 140C20.9104 202.901 69.9185 254.355 131.834 258.262C134.339 258.42 136.866 258.5 139.411 258.5C199.62 258.5 249.338 213.598 256.912 155.452C256.957 155.108 257 154.763 257.042 154.418C257.244 152.753 256.237 151.179 254.64 150.665C254.204 150.524 253.757 150.474 253.321 150.505C253.304 150.505 253.286 150.507 253.268 150.508C249.78 150.739 246.031 151.665 242.823 152.697C246.773 141.611 248.13 129.682 246.995 116.977C247.278 116.426 247.647 115.67 248.059 114.735C248.944 112.725 250.034 109.865 250.873 106.423C252.423 100.068 253.164 91.526 249.956 82.6998C253.282 78.4491 253.304 72.3112 249.695 68.0111C246.24 63.8937 240.548 62.7613 235.889 64.9001C229.109 59.2128 218.512 54 202.66 54C186.594 54 176.729 58.9348 169.548 64.9794C164.858 62.7343 159.069 63.8438 155.572 68.0111C151.973 72.3007 151.986 78.4193 155.288 82.6689C154.112 85.7233 153.31 89.437 153.157 93.221C153.055 95.7458 153.238 98.414 153.856 101.004C150.308 100.343 146.68 99.8845 143.062 99.6595C142.871 98.9414 142.66 98.0009 142.444 96.8404C142.037 94.6545 141.674 92.0269 141.391 89.3769C140.902 84.8128 138.281 80.742 134.377 78.7488C130.286 76.66 125.301 77.1125 120.941 80.6875C113.417 86.8575 112.593 95.9325 112.509 103.353C109.464 104.28 106.557 105.354 103.855 106.549C98.9686 108.712 94.6192 111.336 91.3349 114.339C88.0802 117.315 85.5931 120.927 85.0738 125.064C84.7121 127.946 85.7366 131.376 87.1498 134.65C88.6302 138.08 90.8121 141.945 93.4208 145.929C95.0671 148.443 96.9035 151.035 98.8741 153.63ZM232.985 71.6884C227.59 66.5567 218.215 61 202.66 61C187.033 61 178.542 66.1102 172.378 71.8182C171.687 72.4573 170.809 72.7652 169.937 72.7494C169.087 72.7907 168.221 72.5244 167.518 71.9347C165.541 70.2757 162.594 70.5336 160.935 72.5106C159.276 74.4877 159.534 77.4352 161.511 79.0941C162.568 79.9812 162.969 81.3602 162.659 82.6155C162.644 83.0768 162.537 83.5427 162.329 83.987C161.199 86.3936 160.298 89.8694 160.151 93.5041C160.009 97.0151 160.581 100.347 161.998 102.913C165.587 103.935 169.005 105.16 172.145 106.549C177.031 108.712 181.381 111.336 184.665 114.339C187.92 117.315 190.407 120.927 190.926 125.064C191.189 127.155 190.719 129.464 189.995 131.665C189.247 133.936 188.109 136.435 186.71 139.037C184.685 142.804 182.033 146.931 179.003 151.104C180.906 151.497 182.911 152.011 185.019 152.651C199.659 157.105 212.674 148.544 217.79 142.285C219.013 140.788 221.218 140.567 222.715 141.79C224.212 143.013 224.433 145.218 223.21 146.715C217.046 154.256 201.314 164.925 182.981 159.349C178.965 158.127 175.552 157.472 172.713 157.229C172.588 157.232 172.463 157.228 172.337 157.218C171.637 157.161 170.979 157.128 170.363 157.117C169.02 157.109 167.839 157.206 166.816 157.384C163.32 157.993 162.169 159.402 161.843 160.315C161.488 161.31 161.584 163.155 163.498 165.628C165.374 168.052 168.754 170.683 173.827 172.761C175.616 173.494 176.472 175.538 175.739 177.327C175.015 179.094 173.012 179.95 171.239 179.265C171.367 179.961 171.451 180.633 171.493 181.273C171.555 182.239 171.215 183.187 170.554 183.893C169.892 184.599 168.968 185 168 185H108C107.032 185 106.108 184.599 105.446 183.893C104.785 183.187 104.445 182.239 104.507 181.273C104.765 177.313 106.655 172.054 110.615 167.363C108.796 165.476 106.998 163.504 105.249 161.485C102.988 161.397 100.204 160.942 97.3169 160.47C96.92 160.405 96.5212 160.34 96.1215 160.275C92.3206 159.661 88.0348 159.018 83.4046 158.809C74.1808 158.392 63.7481 159.708 53.6915 166.412C52.7257 167.056 51.5035 167.179 50.4286 166.741C49.3537 166.303 48.5661 165.36 48.3258 164.224C46.7502 156.776 48.3895 151.275 50.1239 146.948C50.4727 146.078 50.7909 145.33 51.0817 144.646C51.5548 143.534 51.9552 142.592 52.2958 141.576C52.7937 140.089 52.941 139.008 52.7908 138.032C52.7154 137.543 52.5345 137.295 52.3768 137.148C52.1932 136.977 51.9102 136.828 51.5373 136.769C50.6579 136.629 50.1555 137.032 50.0389 137.236C49.1802 138.739 47.3522 139.389 45.738 138.764C44.1237 138.14 43.208 136.43 43.5834 134.741C43.7803 133.855 43.5864 133.457 43.485 133.3C43.3496 133.09 43.0678 132.849 42.5876 132.714C42.0989 132.577 41.5801 132.606 41.181 132.758C40.8249 132.894 40.5887 133.11 40.4418 133.436C39.703 135.078 37.8392 135.891 36.1331 135.317C34.4269 134.742 33.4349 132.967 33.8397 131.213C34.0575 130.269 33.8821 129.812 33.7885 129.645C33.6951 129.478 33.4915 129.252 32.9943 129.102C32.6215 128.991 32.3946 129.023 32.2096 129.093C31.9902 129.176 31.5705 129.417 31.0342 130.121C29.9022 131.607 28.6836 134.594 27.9665 139.734C27.9521 139.837 27.9333 139.938 27.9104 140.038C27.9203 169.971 39.7253 197.146 58.93 217.17C57.7423 212.392 57.3056 207.533 57.5785 202.977C58.1489 193.454 61.9569 184.096 69.9462 180.36C72.938 178.961 76.369 179.275 78.8666 181.263C79.7915 181.999 80.5202 182.907 81.0357 183.937C82.4057 183.714 83.8028 183.814 85.0671 184.206C86.7246 184.72 88.3062 185.766 89.3929 187.386C92.7607 186.528 96.5313 187.802 98.7705 191.115C99.8851 192.765 100.441 194.486 100.496 196.285C100.548 198.003 100.135 199.591 99.6545 200.974C99.31 201.966 98.8559 203.046 98.4237 204.075L98.4234 204.076C98.2753 204.428 98.1298 204.775 97.9922 205.109C97.419 206.502 96.8669 207.949 96.428 209.565C94.6738 216.023 95.8224 220.7 96.3801 222.422C96.9757 224.26 95.9678 226.234 94.1289 226.83C92.2899 227.425 90.3163 226.417 89.7207 224.578C88.8683 221.947 87.4696 215.841 89.6728 207.73C90.2232 205.704 90.9003 203.949 91.5187 202.446C91.7102 201.98 91.8881 201.557 92.0534 201.163C92.451 200.217 92.7757 199.444 93.042 198.677C93.4013 197.643 93.5135 196.985 93.4987 196.497C93.4864 196.092 93.3837 195.646 92.9707 195.035C92.4937 194.329 91.9165 194.126 91.4884 194.126C91.0673 194.126 90.5391 194.319 90.1124 194.978C89.2144 196.364 87.4694 196.934 85.9263 196.345C84.3833 195.756 83.4621 194.168 83.7166 192.536C83.8373 191.762 83.6656 191.42 83.5894 191.301C83.4953 191.153 83.3155 190.992 82.9958 190.893C82.2396 190.658 81.5059 190.957 81.1876 191.452C80.266 192.885 78.4471 193.446 76.8787 192.781C75.3104 192.117 74.4481 190.42 74.8361 188.762C75.0064 188.033 74.9442 187.557 74.86 187.285C74.7767 187.015 74.6445 186.849 74.5076 186.74C74.2438 186.53 73.6796 186.342 72.9111 186.701C68.3584 188.83 65.0738 194.918 64.566 203.396C64.0698 211.68 66.3622 221.144 71.6047 228.462C71.634 228.503 71.6623 228.544 71.6895 228.586C76.2503 232.077 81.0887 235.225 86.1657 237.99C96.9405 241.273 110.125 242.264 124.127 236.744C130.924 234.064 135.482 231.128 139.022 228.028C142.603 224.892 145.238 221.514 148.221 217.673L148.241 217.646C153.079 211.416 158.521 204.408 169.512 197.31C182.846 188.698 194.162 186.083 204.574 183.676L204.652 183.658C208.843 182.689 212.852 181.758 216.829 180.506C216.967 179.872 217.282 179.268 217.775 178.775C235.268 161.282 242.325 140.575 239.928 116.598C239.854 115.86 240.017 115.117 240.392 114.478L240.401 114.464C240.412 114.444 240.432 114.408 240.46 114.357C240.517 114.255 240.605 114.093 240.719 113.873C240.947 113.434 241.275 112.771 241.652 111.914C242.409 110.196 243.35 107.729 244.073 104.764C245.525 98.809 246.045 91.0868 242.701 83.3956C242.284 82.4373 242.33 81.3945 242.74 80.5169C242.946 79.9814 243.286 79.489 243.757 79.0941C245.734 77.4352 245.992 74.4877 244.333 72.5106C242.674 70.5336 239.727 70.2757 237.75 71.9347C236.333 73.1233 234.251 72.9981 232.985 71.6884ZM119.559 101.524C124.857 100.378 130.387 99.6775 135.841 99.5295C135.742 99.0633 135.649 98.591 135.562 98.1202C135.113 95.7083 134.727 92.8937 134.43 90.1213C134.168 87.6727 132.79 85.7983 131.194 84.9832C129.785 84.2637 127.77 84.1399 125.38 86.1002C120.901 89.7726 119.796 95.1169 119.559 101.524ZM170.994 150.126C170.461 150.113 169.941 150.113 169.433 150.126C167.172 150.168 165.07 150.454 163.196 150.994C164.172 148.721 165.061 146.451 165.865 144.213C168.452 137.009 170.19 130.037 171.097 124.206C171.687 120.409 171.954 116.923 171.8 114.124C175.116 115.79 177.878 117.618 179.942 119.505C182.531 121.873 183.747 124.073 183.981 125.936C184.052 126.507 183.948 127.647 183.346 129.475C182.767 131.233 181.824 133.343 180.545 135.722C178.21 140.065 174.879 145.076 170.994 150.126ZM155.362 165.904C152.561 170.278 149.383 174.393 145.814 178H163.647C163.15 176.651 162.42 175.175 161.409 173.687C158.696 171.435 156.531 168.744 155.362 165.904ZM138 173.112C142.389 158.081 145.088 142.925 146.409 130.536C147.181 123.294 147.477 117.045 147.374 112.355C147.327 110.2 147.196 108.417 147.001 107.039C144.002 106.687 140.98 106.5 138 106.5C135.02 106.5 131.998 106.687 128.999 107.039C128.804 108.417 128.673 110.2 128.626 112.355C128.523 117.045 128.819 123.294 129.591 130.536C130.912 142.925 133.611 158.081 138 173.112ZM152.126 107.803C152.256 109.124 152.337 110.614 152.373 112.245C152.482 117.208 152.168 123.679 151.381 131.066C150.058 143.473 147.383 158.594 143.042 173.676C151.127 165.176 157.167 153.64 161.159 142.524C163.646 135.597 165.301 128.934 166.156 123.438C167.032 117.806 167.004 113.781 166.449 111.908C166.433 111.856 166.42 111.804 166.408 111.751C162.037 110.068 157.169 108.715 152.126 107.803ZM110.135 144.213C114.369 156.003 120.976 168.692 130.186 178H112.353C113.289 175.464 115.033 172.507 117.867 169.889C118.57 169.239 118.977 168.33 118.992 167.374C119.007 166.417 118.63 165.496 117.948 164.824C111.039 158.019 104.224 149.649 99.277 142.094C96.802 138.315 94.8453 134.816 93.5767 131.876C92.241 128.782 91.9062 126.838 92.0193 125.936C92.2532 124.073 93.4688 121.873 96.0585 119.505C98.1217 117.618 100.884 115.79 104.2 114.124C104.046 116.923 104.313 120.409 104.903 124.206C105.81 130.037 107.548 137.009 110.135 144.213ZM109.551 111.908C109.567 111.856 109.58 111.804 109.592 111.751C113.963 110.068 118.831 108.715 123.874 107.803C123.744 109.124 123.663 110.614 123.627 112.245C123.518 117.208 123.832 123.679 124.619 131.066C125.942 143.473 128.617 158.594 132.958 173.676C124.873 165.176 118.833 153.64 114.841 142.524C112.354 135.597 110.699 128.934 109.844 123.438C108.968 117.806 108.996 113.781 109.551 111.908ZM246.434 158.911C242.42 164.73 237.341 170.238 231.192 174.045C234.207 170.066 236.794 165.943 238.957 161.682C238.97 161.677 238.982 161.671 238.995 161.665C240.508 160.95 243.311 159.82 246.434 158.911Z" fill="#1D2654"/>
<path fill-rule="evenodd" clip-rule="evenodd" d="M232.812 87.2053C232.925 86.5244 233.569 86.0644 234.25 86.1778C235.857 86.4456 238.87 87.5185 240.765 88.7815C241.339 89.1644 241.494 89.9405 241.111 90.5149C240.728 91.0893 239.952 91.2446 239.378 90.8616C237.801 89.8103 235.125 88.8582 233.839 88.6438C233.158 88.5303 232.698 87.8863 232.812 87.2053Z" fill="#1D2654"/>
<path fill-rule="evenodd" clip-rule="evenodd" d="M171.177 86.3844C171.009 85.7146 170.331 85.3074 169.661 85.4749C167.505 86.0138 165.229 87.378 163.485 88.5403C162.911 88.9233 162.756 89.6994 163.138 90.2738C163.521 90.8482 164.297 91.0034 164.872 90.6205C166.6 89.4685 168.566 88.3256 170.267 87.9002C170.937 87.7328 171.344 87.0541 171.177 86.3844Z" fill="#1D2654"/>
<path fill-rule="evenodd" clip-rule="evenodd" d="M232.843 91.9423C233.032 91.2785 233.724 90.8942 234.388 91.0838C236.182 91.5964 238.666 92.659 240.524 93.8974C241.098 94.2804 241.253 95.0565 240.87 95.6309C240.487 96.2053 239.711 96.3605 239.137 95.9776C237.523 94.9017 235.282 93.9393 233.701 93.4876C233.037 93.298 232.653 92.6061 232.843 91.9423Z" fill="#1D2654"/>
<path fill-rule="evenodd" clip-rule="evenodd" d="M171.391 91.1671C171.173 90.5121 170.465 90.1582 169.81 90.3765C168.218 90.9071 165.752 92.2253 163.967 93.4151C163.393 93.7981 163.238 94.5742 163.62 95.1486C164.003 95.723 164.78 95.8782 165.354 95.4953C167.041 94.3708 169.3 93.1818 170.6 92.7482C171.255 92.5299 171.609 91.822 171.391 91.1671Z" fill="#1D2654"/>
</svg>
