<svg width="24" height="24" viewBox="0 0 24 24" fill="none" xmlns="http://www.w3.org/2000/svg"><path d="M19.8736 4.76732C18.4255 4.10288 16.8726 3.61334 15.249 3.33296C15.2194 3.32755 15.1899 3.34107 15.1747 3.36812C14.975 3.72332 14.7537 4.18672 14.5988 4.55094C12.8525 4.2895 11.1152 4.2895 9.40468 4.55094C9.24974 4.17862 9.02049 3.72332 8.81988 3.36812C8.80465 3.34198 8.77511 3.32845 8.74555 3.33296C7.12282 3.61244 5.56996 4.10198 4.12097 4.76732C4.10842 4.77273 4.09767 4.78176 4.09054 4.79347C1.14508 9.19392 0.338197 13.4862 0.734027 17.7253C0.735818 17.746 0.74746 17.7659 0.76358 17.7785C2.70691 19.2056 4.58935 20.072 6.43684 20.6463C6.46641 20.6553 6.49774 20.6445 6.51655 20.6201C6.95358 20.0233 7.34314 19.394 7.67716 18.7323C7.69687 18.6935 7.67806 18.6475 7.63777 18.6322C7.01985 18.3978 6.43147 18.112 5.86548 17.7875C5.82071 17.7613 5.81713 17.6973 5.85831 17.6667C5.97742 17.5774 6.09655 17.4845 6.21028 17.3908C6.23086 17.3737 6.25953 17.37 6.28372 17.3809C10.002 19.0785 14.0275 19.0785 17.7019 17.3809C17.7261 17.3691 17.7547 17.3728 17.7762 17.3899C17.89 17.4836 18.0091 17.5774 18.1291 17.6667C18.1702 17.6973 18.1676 17.7613 18.1228 17.7875C17.5568 18.1183 16.9684 18.3978 16.3496 18.6313C16.3093 18.6467 16.2914 18.6935 16.3111 18.7323C16.6523 19.3931 17.0419 20.0224 17.4708 20.6192C17.4887 20.6445 17.521 20.6553 17.5505 20.6463C19.407 20.072 21.2894 19.2056 23.2327 17.7785C23.2498 17.7659 23.2605 17.7469 23.2623 17.7262C23.736 12.8253 22.4688 8.56825 19.9031 4.79436C19.8968 4.78176 19.8861 4.77273 19.8736 4.76732ZM8.23243 15.1441C7.11297 15.1441 6.19057 14.1164 6.19057 12.8542C6.19057 11.592 7.09508 10.5643 8.23243 10.5643C9.3787 10.5643 10.2922 11.6011 10.2742 12.8542C10.2742 14.1164 9.36974 15.1441 8.23243 15.1441ZM15.7818 15.1441C14.6624 15.1441 13.74 14.1164 13.74 12.8542C13.74 11.592 14.6445 10.5643 15.7818 10.5643C16.9281 10.5643 17.8416 11.6011 17.8237 12.8542C17.8237 14.1164 16.9281 15.1441 15.7818 15.1441Z" fill="#E9F0F3"/></svg>