<svg width="24" height="24" viewBox="0 0 24 24" fill="none" xmlns="http://www.w3.org/2000/svg"><g clip-path="url(#clip0_257_35203)"><path fill-rule="evenodd" clip-rule="evenodd" d="M12 0.545423C9.14837 0.542525 6.3889 1.55524 4.21611 3.40209C2.04331 5.24895 0.599216 7.80921 0.142633 10.6241C-0.313951 13.4389 0.246818 16.3244 1.72443 18.7633C3.20205 21.2023 5.49993 23.0354 8.20629 23.934C8.80297 24.0445 9.02397 23.6688 9.02397 23.352C9.02397 23.0353 9.02397 22.3134 9.02397 21.3115C5.68695 22.0482 4.97976 19.7056 4.97976 19.7056C4.75741 18.9796 4.28502 18.3559 3.64643 17.9451C2.56356 17.2084 3.73483 17.2084 3.73483 17.2084C4.11442 17.262 4.47683 17.4013 4.79462 17.6157C5.11242 17.8301 5.37726 18.1141 5.56909 18.446C5.73208 18.7415 5.95182 19.002 6.21571 19.2124C6.4796 19.4228 6.78245 19.579 7.10687 19.6721C7.43128 19.7652 7.77089 19.7933 8.10619 19.7548C8.4415 19.7163 8.7659 19.612 9.06079 19.4478C9.10702 18.8418 9.36828 18.2723 9.79744 17.8419C7.13077 17.5399 4.33151 16.5086 4.33151 11.9119C4.3132 10.7207 4.75367 9.56813 5.56171 8.69275C5.2011 7.65715 5.24318 6.52381 5.67958 5.5178C5.67958 5.5178 6.68878 5.19367 8.97976 6.748C10.947 6.20786 13.0235 6.20786 14.9908 6.748C17.2818 5.19367 18.2836 5.5178 18.2836 5.5178C18.7246 6.52238 18.7693 7.65656 18.4089 8.69275C19.2169 9.56813 19.6574 10.7207 19.6391 11.9119C19.6391 16.5233 16.8324 17.5325 14.1584 17.8051C14.4451 18.0933 14.6665 18.4398 14.8076 18.8211C14.9487 19.2024 15.0061 19.6096 14.9761 20.015C14.9761 21.6209 14.9761 22.9174 14.9761 23.3078C14.9761 23.6983 15.1897 24.0003 15.8011 23.8898C18.499 22.9827 20.7868 21.1467 22.2567 18.7094C23.7266 16.272 24.2828 13.3918 23.8262 10.5824C23.3696 7.77301 21.9299 5.21715 19.7639 3.3707C17.5978 1.52426 14.8463 0.507304 12 0.501221V0.545423Z" fill="#E9F0F3"/></g><defs><clipPath id="clip0_257_35203"><rect width="24" height="24" fill="white"/></clipPath></defs></svg>