<svg width="24" height="24" viewBox="0 0 24 24" fill="none" xmlns="http://www.w3.org/2000/svg"><path d="M13.5376 12.0653C13.5376 15.8292 10.5071 18.8805 6.76893 18.8805C3.03077 18.8805 0 15.8292 0 12.0653C0 8.30145 3.03054 5.25 6.76893 5.25C10.5073 5.25 13.5376 8.30145 13.5376 12.0653Z" fill="#E9F0F3"/><path d="M20.9628 12.0651C20.9628 15.608 19.4475 18.4812 17.5783 18.4812C15.7091 18.4812 14.1938 15.608 14.1938 12.0651C14.1938 8.52221 15.7089 5.64899 17.5781 5.64899C19.4473 5.64899 20.9626 8.52129 20.9626 12.0651" fill="#E9F0F3"/><path d="M24 12.0651C24 15.2387 23.4672 17.8129 22.8097 17.8129C22.1522 17.8129 21.6196 15.2393 21.6196 12.0651C21.6196 8.89079 22.1525 6.3172 22.8097 6.3172C23.467 6.3172 24 8.89056 24 12.0651Z" fill="#E9F0F3"/></svg>