<svg width="24" height="24" viewBox="0 0 24 24" fill="none" xmlns="http://www.w3.org/2000/svg"><path fill-rule="evenodd" clip-rule="evenodd" d="M18.384 22.2847C18.706 22.507 19.121 22.5626 19.491 22.4261C19.8609 22.2886 20.1329 21.9805 20.2149 21.6071C21.0839 17.6252 23.1919 7.54657 23.9829 3.92445C24.0429 3.65145 23.9429 3.36772 23.7229 3.18539C23.5029 3.00307 23.1979 2.95042 22.9259 3.04889C18.733 4.5621 5.82027 9.28598 0.542386 11.1902C0.207393 11.3111 -0.0106019 11.625 0.000397845 11.9692C0.0123976 12.3143 0.250392 12.6137 0.593384 12.7141C2.96033 13.4044 6.06726 14.3648 6.06726 14.3648C6.06726 14.3648 7.51923 18.6401 8.27621 20.8144C8.37121 21.0874 8.5902 21.3019 8.8792 21.376C9.16719 21.4491 9.47518 21.3721 9.69018 21.1742C10.9061 20.0549 12.7861 18.3242 12.7861 18.3242C12.7861 18.3242 16.358 20.8778 18.384 22.2847ZM7.37423 13.8246L9.05319 19.2242L9.42618 15.8048C9.42618 15.8048 15.913 10.1001 19.611 6.84847C19.719 6.75292 19.7339 6.59302 19.644 6.4809C19.555 6.36877 19.391 6.34245 19.268 6.4185C14.9821 9.08708 7.37423 13.8246 7.37423 13.8246Z" fill="#E9F0F3"/></svg>