<svg width="97" height="32" viewBox="0 0 97 32" fill="none" xmlns="http://www.w3.org/2000/svg"><path fill-rule="evenodd" clip-rule="evenodd" d="M15.2 30.2C22.932 30.2 29.2 23.932 29.2 16.2C29.2 8.46801 22.932 2.2 15.2 2.2C7.46801 2.2 1.2 8.46801 1.2 16.2C1.2 23.932 7.46801 30.2 15.2 30.2ZM15.2 31.2C23.4843 31.2 30.2 24.4843 30.2 16.2C30.2 7.91573 23.4843 1.2 15.2 1.2C6.91573 1.2 0.2 7.91573 0.2 16.2C0.2 24.4843 6.91573 31.2 15.2 31.2Z" fill="#fff"/><path fill-rule="evenodd" clip-rule="evenodd" d="M15.2 30C22.8215 30 29 23.8215 29 16.2C29 8.57847 22.8215 2.4 15.2 2.4C7.57847 2.4 1.4 8.57847 1.4 16.2C1.4 23.8215 7.57847 30 15.2 30ZM30.4 16.2C30.4 24.5947 23.5947 31.4 15.2 31.4C6.80527 31.4 0 24.5947 0 16.2C0 7.80527 6.80527 1 15.2 1C23.5947 1 30.4 7.80527 30.4 16.2ZM29.2 16.2C29.2 23.932 22.932 30.2 15.2 30.2C7.46801 30.2 1.2 23.932 1.2 16.2C1.2 8.46801 7.46801 2.2 15.2 2.2C22.932 2.2 29.2 8.46801 29.2 16.2ZM30.2 16.2C30.2 24.4843 23.4843 31.2 15.2 31.2C6.91573 31.2 0.2 24.4843 0.2 16.2C0.2 7.91573 6.91573 1.2 15.2 1.2C23.4843 1.2 30.2 7.91573 30.2 16.2Z" fill="#fff"/><path fill-rule="evenodd" clip-rule="evenodd" d="M5.35693 11.3491C4.73654 11.9085 4.41289 12.4566 4.34925 12.9565C4.31472 13.2278 4.41534 13.72 4.72636 14.4306C5.02641 15.1162 5.48579 15.9251 6.06175 16.7924C7.21313 18.5264 8.79742 20.4449 10.4046 22.006C10.5159 22.1141 10.5774 22.2624 10.5749 22.4165C10.5724 22.5705 10.5061 22.7168 10.3913 22.8214C9.59041 23.5511 9.14457 24.3965 8.95337 25.073H21.447C21.2558 24.3965 20.81 23.5511 20.009 22.8214C19.8943 22.7168 19.8279 22.5705 19.8254 22.4165C19.823 22.2624 19.8845 22.1141 19.9958 22.006C21.603 20.4449 23.1872 18.5264 24.3386 16.7924C24.9146 15.9251 25.374 15.1162 25.674 14.4306C25.985 13.72 26.0857 13.2278 26.0511 12.9565C25.9875 12.4566 25.6638 11.9085 25.0434 11.3491C24.4279 10.7941 23.5642 10.2691 22.5253 9.81566C20.4476 8.90879 17.759 8.32703 15.2002 8.32703C12.6414 8.32703 9.95276 8.90879 7.87507 9.81566C6.83621 10.2691 5.97249 10.7941 5.35693 11.3491ZM7.4125 8.78508C9.63827 7.81358 12.4847 7.20001 15.2002 7.20001C17.9157 7.20001 20.7621 7.81358 22.9879 8.78508C24.1007 9.27082 25.0808 9.85575 25.8146 10.5174C26.5436 11.1747 27.0749 11.95 27.1851 12.8162C27.2602 13.4063 27.047 14.1377 26.7233 14.8772C26.3887 15.6418 25.8925 16.5096 25.2948 17.4098C24.1955 19.0653 22.7247 20.8723 21.2014 22.4093C22.1812 23.48 22.6381 24.7065 22.6969 25.6C22.7071 25.7554 22.6516 25.9082 22.5436 26.0218C22.4356 26.1355 22.2846 26.2 22.1267 26.2H8.27372C8.11573 26.2 7.9648 26.1355 7.85677 26.0218C7.74873 25.9082 7.69325 25.7554 7.70348 25.6C7.76232 24.7065 8.21915 23.48 9.19901 22.4093C7.6757 20.8723 6.20487 19.0653 5.10562 17.4098C4.50784 16.5096 4.01169 15.6418 3.67706 14.8772C3.35339 14.1377 3.14017 13.4063 3.21528 12.8162C3.32553 11.95 3.85677 11.1747 4.58573 10.5174C5.31954 9.85575 6.29964 9.27082 7.4125 8.78508Z" fill="#fff"/><path fill-rule="evenodd" clip-rule="evenodd" d="M7.3525 8.6476C9.59754 7.66769 12.4644 7.05001 15.2002 7.05001C17.9359 7.05001 20.8028 7.66769 23.0479 8.6476C24.1704 9.13754 25.1657 9.73031 25.9151 10.406C26.6582 11.076 27.2174 11.8817 27.3339 12.7972C27.4145 13.4303 27.1861 14.1939 26.8607 14.9374C26.5215 15.7125 26.0204 16.5882 25.4197 17.4928C24.3388 19.1207 22.9016 20.8927 21.4072 22.4143C22.3431 23.4826 22.7873 24.6899 22.8466 25.5901C22.8596 25.7877 22.789 25.9814 22.6523 26.1252C22.5158 26.2689 22.3254 26.35 22.1267 26.35H8.27372C8.07497 26.35 7.88462 26.2689 7.74804 26.1252C7.61137 25.9814 7.5408 25.7877 7.55381 25.5901C7.61308 24.6899 8.05731 23.4826 8.99321 22.4143C7.4988 20.8927 6.06159 19.1207 4.98066 17.4928C4.37998 16.5882 3.87891 15.7125 3.53964 14.9374C3.21426 14.1939 2.9859 13.4303 3.06648 12.7972C3.18301 11.8817 3.74219 11.076 4.48529 10.406C5.23466 9.73031 6.23002 9.13754 7.3525 8.6476ZM15.2002 7.35001C12.505 7.35001 9.67899 7.95947 7.47251 8.92255C6.36925 9.4041 5.40441 9.98119 4.68618 10.6288C3.97134 11.2733 3.46804 12.0184 3.36408 12.8351C3.29444 13.3823 3.49253 14.0815 3.81447 14.8171C4.14447 15.5711 4.63571 16.431 5.23058 17.3269C6.32425 18.9739 7.78885 20.7733 9.30555 22.3037C9.36187 22.3605 9.36368 22.4516 9.30966 22.5106C8.35096 23.5581 7.90958 24.753 7.85316 25.6098C7.84569 25.7232 7.8861 25.835 7.9655 25.9185C8.04497 26.0021 8.15649 26.05 8.27372 26.05H22.1267C22.2439 26.05 22.3554 26.0021 22.4349 25.9185C22.5143 25.835 22.5547 25.7232 22.5472 25.6098C22.4908 24.753 22.0494 23.5581 21.0907 22.5106C21.0367 22.4516 21.0385 22.3605 21.0948 22.3037C22.6115 20.7733 24.0761 18.9739 25.1698 17.3269C25.7647 16.431 26.2559 15.5711 26.5859 14.8171C26.9079 14.0815 27.1059 13.3823 27.0363 12.8351C26.9323 12.0184 26.429 11.2733 25.7142 10.6288C24.996 9.98119 24.0311 9.4041 22.9279 8.92255C20.7214 7.95947 17.8954 7.35001 15.2002 7.35001ZM15.2002 8.47703C12.6617 8.47703 9.99349 9.05468 7.93508 9.95314C6.90583 10.4024 6.05736 10.9196 5.45738 11.4605C4.85125 12.0071 4.55542 12.5248 4.49805 12.9755C4.48407 13.0854 4.4963 13.256 4.55398 13.4934C4.61114 13.7287 4.71079 14.0209 4.86378 14.3705C5.15919 15.0454 5.61365 15.8464 6.18671 16.7095C7.33214 18.4345 8.90956 20.3447 10.5091 21.8984C10.6498 22.0351 10.7281 22.2232 10.7249 22.4189C10.7217 22.6147 10.6374 22.8001 10.4924 22.9322C9.78758 23.5744 9.36724 24.3071 9.15725 24.923H21.2431C21.0331 24.3071 20.6128 23.5744 19.908 22.9322C19.763 22.8001 19.6786 22.6147 19.6755 22.4189C19.6723 22.2232 19.7506 22.0351 19.8913 21.8984C21.4908 20.3447 23.0682 18.4345 24.2137 16.7095C24.7867 15.8464 25.2412 15.0454 25.5366 14.3705C25.6896 14.0209 25.7892 13.7287 25.8464 13.4934C25.9041 13.256 25.9163 13.0854 25.9023 12.9755C25.845 12.5248 25.5491 12.0071 24.943 11.4605C24.343 10.9196 23.4945 10.4024 22.4653 9.95314C20.4069 9.05468 17.7387 8.47703 15.2002 8.47703ZM7.81506 9.67819C9.91204 8.7629 12.6211 8.17703 15.2002 8.17703C17.7792 8.17703 20.4883 8.7629 22.5853 9.67819C23.6338 10.1358 24.5128 10.6687 25.1439 11.2377C25.7785 11.81 26.13 12.3884 26.1999 12.9376C26.2205 13.099 26.1997 13.3101 26.1379 13.5642C26.0756 13.8206 25.9695 14.1297 25.8114 14.4908C25.5067 15.1869 25.0424 16.0037 24.4636 16.8754C23.3062 18.6184 21.7151 20.5451 20.1003 22.1136C20.0185 22.1931 19.9736 22.3017 19.9754 22.414C19.9772 22.5264 20.0256 22.6336 20.11 22.7105C20.9328 23.4601 21.393 24.3302 21.5914 25.0322C21.6041 25.0774 21.595 25.126 21.5666 25.1635C21.5383 25.201 21.494 25.223 21.447 25.223H8.95337C8.90638 25.223 8.8621 25.201 8.83375 25.1635C8.8054 25.126 8.79624 25.0774 8.80902 25.0322C9.00743 24.3302 9.46759 23.4601 10.2903 22.7105C10.3748 22.6336 10.4231 22.5264 10.4249 22.414C10.4268 22.3017 10.3819 22.1931 10.3001 22.1136C8.68529 20.5451 7.09413 18.6184 5.93679 16.8754C5.35793 16.0037 4.89363 15.1869 4.58895 14.4908C4.43091 14.1297 4.32474 13.8206 4.26246 13.5642C4.20072 13.3101 4.17991 13.099 4.20045 12.9376C4.27036 12.3884 4.62184 11.81 5.25649 11.2377C5.88761 10.6687 6.76659 10.1358 7.81506 9.67819Z" fill="#fff"/><path fill-rule="evenodd" clip-rule="evenodd" d="M13.4769 7.27001C13.2958 7.15166 13.0417 7.18696 12.9094 7.34883C12.7407 7.55515 12.6456 7.87924 12.5836 8.22841C12.5181 8.59688 12.479 9.06134 12.4658 9.60157C12.4392 10.6834 12.5157 12.0992 12.7089 13.7192C13.0562 16.6317 13.7836 20.2266 14.985 23.7614C12.6698 21.8306 10.9773 19.0123 9.89733 16.3234C9.28097 14.7888 8.87017 13.311 8.65766 12.0891C8.44172 10.8475 8.44083 9.92557 8.59174 9.47017C8.65545 9.2779 8.53277 9.07587 8.31773 9.0189C8.10269 8.96194 7.87672 9.07162 7.81301 9.26389C7.60654 9.88696 7.63756 10.9498 7.85512 12.2007C8.0761 13.4713 8.50037 14.9939 9.13293 16.5688C10.3936 19.7078 12.5058 23.1142 15.5526 25.1288C15.695 25.223 15.8893 25.2238 16.0326 25.1308C16.176 25.0377 16.2353 24.8724 16.1793 24.7221C14.7441 20.8726 13.8979 16.84 13.5165 13.6422C13.3258 12.0433 13.2522 10.6598 13.2778 9.61748C13.2905 9.0956 13.328 8.66668 13.3857 8.34238C13.4467 7.99879 13.5214 7.83073 13.565 7.77739C13.6974 7.61552 13.6579 7.38835 13.4769 7.27001Z" fill="#fff"/><path fill-rule="evenodd" clip-rule="evenodd" d="M17.6209 7.27001C17.7819 7.15166 18.0077 7.18696 18.1254 7.34883C18.2753 7.55515 18.3598 7.87924 18.415 8.22841C18.4732 8.59688 18.5079 9.06134 18.5197 9.60157C18.5432 10.6834 18.4753 12.0992 18.3036 13.7192C17.9948 16.6317 17.3483 20.2266 16.2804 23.7614C18.3383 21.8306 19.8428 19.0123 20.8027 16.3234C21.3506 14.7888 21.7158 13.311 21.9047 12.0891C22.0966 10.8475 22.0974 9.92557 21.9633 9.47017C21.9066 9.2779 22.0157 9.07587 22.2068 9.0189C22.398 8.96194 22.5988 9.07162 22.6555 9.26389C22.839 9.88696 22.8114 10.9498 22.618 12.2007C22.4216 13.4713 22.0445 14.9939 21.4822 16.5688C20.3616 19.7078 18.4841 23.1142 15.7758 25.1288C15.6492 25.223 15.4766 25.2238 15.3491 25.1308C15.2217 25.0377 15.1689 24.8724 15.2187 24.7221C16.4944 20.8726 17.2467 16.84 17.5857 13.6422C17.7552 12.0433 17.8206 10.6598 17.7979 9.61748C17.7865 9.0956 17.7532 8.66668 17.702 8.34238C17.6477 7.99879 17.5813 7.83073 17.5426 7.77739C17.4249 7.61552 17.46 7.38835 17.6209 7.27001Z" fill="#fff"/><path fill-rule="evenodd" clip-rule="evenodd" d="M25.55 6.2C25.55 5.84101 25.841 5.55 26.2 5.55H94.2C95.6636 5.55 96.85 6.73645 96.85 8.2V24.2C96.85 25.6636 95.6636 26.85 94.2 26.85H26.2C25.841 26.85 25.55 26.559 25.55 26.2C25.55 25.841 25.841 25.55 26.2 25.55H94.2C94.9456 25.55 95.55 24.9456 95.55 24.2V8.2C95.55 7.45442 94.9456 6.85 94.2 6.85H26.2C25.841 6.85 25.55 6.55898 25.55 6.2Z" fill="#fff"/></svg>