<svg width="16" height="16" fill="none" xmlns="http://www.w3.org/2000/svg"><path d="M16 8A8 8 0 1 1 0 8a8 8 0 0 1 16 0Z" fill="#F7F9FB"/><path fill-rule="evenodd" clip-rule="evenodd" d="M8 15.467A7.467 7.467 0 1 0 8 .533a7.467 7.467 0 0 0 0 14.934ZM8 16A8 8 0 1 0 8 0a8 8 0 0 0 0 16Z" fill="#C7D6E4"/><path fill-rule="evenodd" clip-rule="evenodd" d="M8 3.319c-2.735 0-5.74 1.257-5.92 2.693-.114.906 1.529 3.335 3.225 5.006-.604.56-.867 1.245-.897 1.698h7.183c-.029-.452-.292-1.139-.896-1.697 1.696-1.672 3.34-4.1 3.225-5.007C13.74 4.576 10.735 3.32 8 3.32Z" fill="#FF6854"/><path opacity=".2" d="M8 5.778c-2.489 0-4.593 1.215-5.333 1.778l1.066 1.689C4.296 8.74 5.796 7.732 8 7.732s3.585 1.008 4.089 1.512l1.067-1.69c-.682-.56-2.667-1.775-5.156-1.775Z" fill="#fff"/><path fill-rule="evenodd" clip-rule="evenodd" d="M2.896 5.204c-.322.294-.49.582-.522.845-.018.143.034.401.195.775.156.36.394.786.693 1.242.597.912 1.418 1.92 2.251 2.741a.297.297 0 0 1-.006.43 2.604 2.604 0 0 0-.746 1.183h6.478c-.099-.356-.33-.8-.746-1.184a.296.296 0 0 1-.006-.429 17.51 17.51 0 0 0 2.252-2.741c.298-.456.536-.881.692-1.242.161-.374.213-.632.196-.775-.034-.263-.201-.551-.523-.845-.32-.292-.767-.568-1.306-.806C10.721 3.92 9.327 3.615 8 3.615s-2.72.306-3.798.783c-.539.238-.987.514-1.306.806Zm1.066-1.348c1.154-.511 2.63-.834 4.038-.834 1.408 0 2.884.323 4.038.834.577.255 1.085.563 1.466.91.378.346.653.754.71 1.21.04.31-.071.694-.239 1.083-.173.402-.43.858-.74 1.332a18.14 18.14 0 0 1-2.123 2.628c.508.563.745 1.208.775 1.678a.296.296 0 0 1-.295.316H4.409a.296.296 0 0 1-.296-.316c.03-.47.267-1.115.775-1.678a18.136 18.136 0 0 1-2.122-2.628 9.132 9.132 0 0 1-.74-1.332c-.169-.389-.28-.773-.24-1.084.057-.455.332-.863.71-1.208.38-.348.889-.656 1.466-.911Z" fill="#1D2654"/><path fill-rule="evenodd" clip-rule="evenodd" d="M6.873 3.16a.198.198 0 0 0-.276.042c-.082.112-.129.289-.159.479-.032.2-.05.453-.057.747a18.21 18.21 0 0 0 .118 2.24 30.57 30.57 0 0 0 1.107 5.463c-1.126-1.05-1.949-2.583-2.474-4.046-.3-.835-.5-1.64-.603-2.304-.105-.676-.106-1.177-.032-1.425a.198.198 0 0 0-.38-.112c-.1.339-.085.917.021 1.598.108.691.314 1.52.622 2.376.613 1.708 1.64 3.561 3.123 4.657a.197.197 0 0 0 .304-.221c-.698-2.094-1.11-4.288-1.295-6.028a17.828 17.828 0 0 1-.116-2.19c.006-.284.024-.517.052-.693.03-.187.066-.279.088-.308a.198.198 0 0 0-.043-.276Z" fill="#1D2654"/><path fill-rule="evenodd" clip-rule="evenodd" d="M9.127 3.16a.198.198 0 0 1 .276.042c.082.112.129.289.159.479.032.2.05.453.057.747.013.588-.024 1.358-.118 2.24a30.442 30.442 0 0 1-1.107 5.463c1.126-1.05 1.949-2.583 2.474-4.046.3-.835.5-1.64.603-2.304.105-.676.106-1.177.032-1.425a.198.198 0 0 1 .38-.112c.1.339.085.917-.021 1.598a13.23 13.23 0 0 1-.622 2.376c-.613 1.708-1.64 3.561-3.123 4.657a.197.197 0 0 1-.304-.221c.698-2.094 1.11-4.288 1.295-6.028.093-.87.128-1.623.116-2.19a5.337 5.337 0 0 0-.052-.693c-.03-.187-.066-.279-.088-.308a.198.198 0 0 1 .043-.276Z" fill="#1D2654"/></svg>