<svg width="36" height="50" viewBox="0 0 36 50" fill="none" xmlns="http://www.w3.org/2000/svg"><path d="M35.5 23.1213C35.5 33.5942 29.7087 43.2143 20.4379 48.1389L18 49.4338L15.5621 48.1389C6.29133 43.2143 0.499999 33.5941 0.5 23.1213L0.500002 0.5L35.5 0.500003L35.5 23.1213Z" fill="url(#paint0_linear_6008_72544)" stroke="#5C3317" stroke-linejoin="round"/><g filter="url(#filter0_i_6008_72544)"><path d="M33 22.5C33 32.1077 27.8994 40.9023 19.7029 45.5L18 46.4552L16.2971 45.5C8.10059 40.9023 3 32.1077 3 22.5L3 3L33 3L33 22.5Z" fill="url(#paint1_linear_6008_72544)"/></g><path d="M17.7554 46.8913L18 47.0285L18.2446 46.8913L19.9475 45.9361C28.3053 41.2479 33.5 32.2845 33.5 22.5L33.5 3V2.5L33 2.5L3 2.5L2.5 2.5L2.5 3L2.5 22.5C2.5 32.2845 7.69474 41.2479 16.0525 45.9361L17.7554 46.8913Z" stroke="#5C3317"/><g filter="url(#filter1_i_6008_72544)"><path d="M3 3V22.5C3 32.1077 8.10059 40.9023 16.2971 45.5L18 46.4552V3H3Z" fill="url(#paint2_linear_6008_72544)"/></g><path opacity="0.6" d="M5 3V12.118C5 12.118 6.99811 15.2894 10.9943 13.7037C14.9905 12.118 13.5 3 13.5 3H5Z" fill="white"/><rect x="3" y="3" width="30" height="1" fill="white" fill-opacity="0.6"/><rect x="18" y="3" width="15" height="1" fill="white"/><rect x="17" y="32" width="1" height="14" rx="0.5" fill="white" fill-opacity="0.3"/><path d="M19.7657 31.2585C17.9658 31.2585 16.3278 30.8355 14.8518 29.9895C13.3939 29.1256 12.2329 27.9556 11.3689 26.4796C10.5229 24.9857 10.0999 23.3387 10.0999 21.5387C10.0999 19.7028 10.5139 18.0468 11.3419 16.5708C12.1699 15.0949 13.3039 13.9429 14.7438 13.1149C16.1838 12.2689 17.8038 11.8459 19.6037 11.8459C20.5757 11.8459 21.5297 11.9629 22.4657 12.1969C23.4016 12.4309 24.2026 12.7639 24.8686 13.1959L24.1396 17.3808C22.8437 16.8948 21.6737 16.6518 20.6297 16.6518C19.1897 16.6518 18.0828 17.0748 17.3088 17.9208C16.5348 18.7488 16.1478 19.9458 16.1478 21.5117C16.1478 23.0417 16.5528 24.2387 17.3628 25.1027C18.1908 25.9486 19.3337 26.3716 20.7917 26.3716C21.3497 26.3716 21.8717 26.3176 22.3577 26.2096C22.8437 26.1016 23.4376 25.9036 24.1396 25.6156L24.8956 29.8815C23.3296 30.7995 21.6197 31.2585 19.7657 31.2585Z" fill="url(#paint3_linear_6008_72544)"/><ellipse cx="15.3008" cy="13.9635" rx="3.5" ry="1.92773" transform="rotate(-20.3676 15.3008 13.9635)" fill="white"/><path fill-rule="evenodd" clip-rule="evenodd" d="M14.106 31.2909L14.0872 31.28C12.4082 30.285 11.0658 28.9309 10.0745 27.2374L10.0637 27.2188C9.08382 25.4883 8.60001 23.5847 8.60001 21.5388C8.60001 19.4682 9.0695 17.5559 10.0338 15.837C10.9903 14.1319 12.3139 12.7833 13.9901 11.8181C15.6768 10.8287 17.5606 10.346 19.6038 10.346C20.6975 10.346 21.7736 10.4778 22.8295 10.7418L22.4657 12.197C21.5297 11.963 20.5757 11.846 19.6038 11.846C17.8038 11.846 16.1838 12.269 14.7439 13.1149C13.3039 13.9429 12.1699 15.0949 11.3419 16.5709C10.514 18.0468 10.1 19.7028 10.1 21.5388C10.1 23.3387 10.523 24.9857 11.3689 26.4796C12.2329 27.9556 13.3939 29.1256 14.8519 29.9896C16.3278 30.8356 17.9658 31.2585 19.7658 31.2585C21.6197 31.2585 23.3297 30.7996 24.8956 29.8816L24.1397 25.6157C23.5973 25.8382 23.1195 26.0069 22.7061 26.122C22.5843 26.1559 22.4682 26.1851 22.3577 26.2097C21.8717 26.3177 21.3497 26.3717 20.7917 26.3717C19.3338 26.3717 18.1908 25.9487 17.3628 25.1027C16.5528 24.2387 16.1478 23.0417 16.1478 21.5118C16.1478 19.9458 16.5348 18.7488 17.3088 17.9208C18.0828 17.0749 19.1898 16.6519 20.6297 16.6519C21.271 16.6519 21.9598 16.7436 22.6962 16.9269C23.1586 17.0421 23.6398 17.1934 24.1397 17.3809L24.8686 13.1959C24.2027 12.764 23.4017 12.431 22.4657 12.197L22.8295 10.7418C23.8927 11.0076 24.8538 11.3984 25.6849 11.9375C26.1892 12.2646 26.4495 12.8612 26.3464 13.4534L25.6174 17.6383C25.5408 18.0781 25.2722 18.461 24.8847 18.6827C24.4972 18.9045 24.031 18.9421 23.613 18.7853C22.4337 18.3431 21.4459 18.1518 20.6297 18.1518C19.4955 18.1518 18.8359 18.4738 18.4155 18.9333L18.4046 18.9452C17.9756 19.4042 17.6478 20.1796 17.6478 21.5118C17.6478 22.766 17.972 23.5526 18.4461 24.065C18.9291 24.5521 19.6466 24.8717 20.7917 24.8717C21.2532 24.8717 21.6651 24.827 22.0323 24.7454C22.4038 24.6629 22.9109 24.4985 23.5703 24.2279C23.9901 24.0557 24.4653 24.0828 24.8628 24.3015C25.2603 24.5203 25.5374 24.9072 25.6166 25.3539L26.3726 29.6198C26.4821 30.2376 26.1955 30.8583 25.6542 31.1756C23.8531 32.2314 21.8804 32.7585 19.7658 32.7585C17.7199 32.7585 15.8223 32.2747 14.106 31.2909Z" fill="#5C3317"/><defs><filter id="filter0_i_6008_72544" x="2" y="2" width="32" height="45.6018" filterUnits="userSpaceOnUse" color-interpolation-filters="sRGB"><feFlood flood-opacity="0" result="BackgroundImageFix"/><feBlend mode="normal" in="SourceGraphic" in2="BackgroundImageFix" result="shape"/><feColorMatrix in="SourceAlpha" type="matrix" values="0 0 0 0 0 0 0 0 0 0 0 0 0 0 0 0 0 0 127 0" result="hardAlpha"/><feOffset dx="-2"/><feComposite in2="hardAlpha" operator="arithmetic" k2="-1" k3="1"/><feColorMatrix type="matrix" values="0 0 0 0 0.55 0 0 0 0 0.372977 0 0 0 0 0.252083 0 0 0 1 0"/><feBlend mode="normal" in2="shape" result="effect1_innerShadow_6008_72544"/></filter><filter id="filter1_i_6008_72544" x="3" y="3" width="15" height="43.4552" filterUnits="userSpaceOnUse" color-interpolation-filters="sRGB"><feFlood flood-opacity="0" result="BackgroundImageFix"/><feBlend mode="normal" in="SourceGraphic" in2="BackgroundImageFix" result="shape"/><feColorMatrix in="SourceAlpha" type="matrix" values="0 0 0 0 0 0 0 0 0 0 0 0 0 0 0 0 0 0 127 0" result="hardAlpha"/><feOffset dx="2"/><feComposite in2="hardAlpha" operator="arithmetic" k2="-1" k3="1"/><feColorMatrix type="matrix" values="0 0 0 0 1 0 0 0 0 1 0 0 0 0 1 0 0 0 0.4 0"/><feBlend mode="normal" in2="shape" result="effect1_innerShadow_6008_72544"/></filter><linearGradient id="paint0_linear_6008_72544" x1="18" y1="0" x2="18" y2="50" gradientUnits="userSpaceOnUse"><stop stop-color="#EFEFEF"/><stop offset="1" stop-color="#C4C4C4"/></linearGradient><linearGradient id="paint1_linear_6008_72544" x1="18" y1="3" x2="18" y2="46.4552" gradientUnits="userSpaceOnUse"><stop stop-color="#A86B41"/><stop offset="0.572917" stop-color="#E1A865"/><stop offset="0.84375" stop-color="#B16915"/></linearGradient><linearGradient id="paint2_linear_6008_72544" x1="10.5" y1="3" x2="10.5" y2="46.4552" gradientUnits="userSpaceOnUse"><stop stop-color="#BC7F55"/><stop offset="1" stop-color="#B1641C"/></linearGradient><linearGradient id="paint3_linear_6008_72544" x1="17.4103" y1="6.82705" x2="17.4103" y2="33.8264" gradientUnits="userSpaceOnUse"><stop stop-color="#F9BA7F"/><stop offset="1" stop-color="#D87431"/></linearGradient></defs></svg>