<svg width="36" height="50" viewBox="0 0 36 50" fill="none" xmlns="http://www.w3.org/2000/svg">
<path d="M35.5 23.1213C35.5 33.5942 29.7087 43.2143 20.4379 48.1389L18 49.4338L15.5621 48.1389C6.29133 43.2143 0.499999 33.5941 0.5 23.1213L0.500002 0.5L35.5 0.500003L35.5 23.1213Z" fill="url(#paint0_linear_6008_70981)" stroke="#5C3317" stroke-linejoin="round"/>
<g filter="url(#filter0_i_6008_70981)">
<path d="M33 22.5C33 32.1077 27.8994 40.9023 19.7029 45.5L18 46.4552L16.2971 45.5C8.10059 40.9023 3 32.1077 3 22.5L3 3L33 3L33 22.5Z" fill="#6A6A6A"/>
</g>
<path d="M17.7554 46.8913L18 47.0285L18.2446 46.8913L19.9475 45.9361C28.3053 41.2479 33.5 32.2845 33.5 22.5L33.5 3V2.5L33 2.5L3 2.5L2.5 2.5L2.5 3L2.5 22.5C2.5 32.2845 7.69474 41.2479 16.0525 45.9361L17.7554 46.8913Z" stroke="#5C3317"/>
<g filter="url(#filter1_i_6008_70981)">
<path d="M3 3V22.5C3 32.1077 8.10059 40.9023 16.2971 45.5L18 46.4552V3H3Z" fill="#7C7C7C"/>
</g>
<path opacity="0.6" d="M5 3V12.118C5 12.118 6.99811 15.2894 10.9943 13.7037C14.9905 12.118 13.5 3 13.5 3H5Z" fill="white"/>
<rect x="3" y="3" width="30" height="1" fill="white" fill-opacity="0.6"/>
<rect x="18" y="3" width="15" height="1" fill="white"/>
<rect x="17" y="32" width="1" height="14" rx="0.5" fill="white" fill-opacity="0.3"/>
<path d="M9.09995 12.1159H17.1726C19.1165 12.1159 20.8354 12.5029 22.3293 13.2769C23.8413 14.0508 25.0112 15.1308 25.8392 16.5167C26.6851 17.9026 27.1081 19.4866 27.1081 21.2685C27.1081 23.1404 26.6941 24.7873 25.8662 26.2093C25.0562 27.6312 23.8953 28.7381 22.3833 29.5301C20.8894 30.3041 19.1525 30.691 17.1726 30.691H9.09995V12.1159ZM16.9026 25.8313C18.2525 25.8313 19.2785 25.4083 19.9804 24.5623C20.7004 23.6984 21.0604 22.5824 21.0604 21.2145C21.0604 19.9185 20.7094 18.8926 20.0074 18.1366C19.3235 17.3627 18.2885 16.9757 16.9026 16.9757H15.0667V25.8313H16.9026Z" fill="url(#paint1_linear_6008_70981)"/>
<ellipse cx="11.5" cy="13.5" rx="3.5" ry="2.5" fill="white"/>
<path fill-rule="evenodd" clip-rule="evenodd" d="M7.60001 12.116C7.60001 11.2876 8.27155 10.616 9.09994 10.616H17.1726C19.3178 10.616 21.2787 11.0441 23.016 11.9434C24.761 12.8374 26.144 14.105 27.1231 15.7413C28.124 17.3837 28.608 19.2411 28.608 21.2685C28.608 23.3658 28.1425 25.278 27.1661 26.9577C26.2078 28.6373 24.832 29.9407 23.0793 30.8588L23.0733 30.862C21.3315 31.7644 19.3502 32.191 17.1726 32.191H9.09994C8.27155 32.191 7.60001 31.5195 7.60001 30.6911V12.116ZM25.8662 26.2093C26.6941 24.7874 27.1081 23.1404 27.1081 21.2685C27.1081 19.4866 26.6851 17.9027 25.8392 16.5168C25.0112 15.1308 23.8413 14.0509 22.3293 13.2769C20.8354 12.5029 19.1165 12.116 17.1726 12.116H9.09994V30.6911H17.1726C19.1525 30.6911 20.8894 30.3041 22.3833 29.5302C23.8953 28.7382 25.0562 27.6312 25.8662 26.2093ZM18.8261 23.6046L18.8282 23.6021C19.2777 23.0626 19.5605 22.3104 19.5605 21.2145C19.5605 20.196 19.2912 19.5697 18.9083 19.1573C18.8999 19.1483 18.8916 19.1392 18.8835 19.1299C18.5727 18.7782 18.0131 18.4757 16.9026 18.4757H16.5666V24.3314H16.9026C17.9178 24.3314 18.4734 24.0297 18.8261 23.6046ZM15.0667 25.8313V16.9757H16.9026C18.2885 16.9757 19.3235 17.3627 20.0074 18.1367C20.7094 18.8926 21.0604 19.9186 21.0604 21.2145C21.0604 22.5825 20.7004 23.6984 19.9804 24.5624C19.2785 25.4083 18.2525 25.8313 16.9026 25.8313H15.0667Z" fill="#5C3317"/>
<defs>
<filter id="filter0_i_6008_70981" x="2" y="2" width="32" height="45.6018" filterUnits="userSpaceOnUse" color-interpolation-filters="sRGB">
<feFlood flood-opacity="0" result="BackgroundImageFix"/>
<feBlend mode="normal" in="SourceGraphic" in2="BackgroundImageFix" result="shape"/>
<feColorMatrix in="SourceAlpha" type="matrix" values="0 0 0 0 0 0 0 0 0 0 0 0 0 0 0 0 0 0 127 0" result="hardAlpha"/>
<feOffset dx="-2"/>
<feComposite in2="hardAlpha" operator="arithmetic" k2="-1" k3="1"/>
<feColorMatrix type="matrix" values="0 0 0 0 0 0 0 0 0 0 0 0 0 0 0 0 0 0 0.3 0"/>
<feBlend mode="normal" in2="shape" result="effect1_innerShadow_6008_70981"/>
</filter>
<filter id="filter1_i_6008_70981" x="3" y="3" width="15" height="43.4552" filterUnits="userSpaceOnUse" color-interpolation-filters="sRGB">
<feFlood flood-opacity="0" result="BackgroundImageFix"/>
<feBlend mode="normal" in="SourceGraphic" in2="BackgroundImageFix" result="shape"/>
<feColorMatrix in="SourceAlpha" type="matrix" values="0 0 0 0 0 0 0 0 0 0 0 0 0 0 0 0 0 0 127 0" result="hardAlpha"/>
<feOffset dx="2"/>
<feComposite in2="hardAlpha" operator="arithmetic" k2="-1" k3="1"/>
<feColorMatrix type="matrix" values="0 0 0 0 1 0 0 0 0 1 0 0 0 0 1 0 0 0 0.4 0"/>
<feBlend mode="normal" in2="shape" result="effect1_innerShadow_6008_70981"/>
</filter>
<linearGradient id="paint0_linear_6008_70981" x1="18" y1="0" x2="18" y2="50" gradientUnits="userSpaceOnUse">
<stop stop-color="#EFEFEF"/>
<stop offset="1" stop-color="#C4C4C4"/>
</linearGradient>
<linearGradient id="paint1_linear_6008_70981" x1="17.6541" y1="6.69212" x2="17.6541" y2="33.6909" gradientUnits="userSpaceOnUse">
<stop stop-color="#B1B1B1"/>
<stop offset="1" stop-color="#8E8E8E"/>
</linearGradient>
</defs>
</svg>
