<svg width="36" height="50" viewBox="0 0 36 50" fill="none" xmlns="http://www.w3.org/2000/svg"><path d="M35.5 23.1213C35.5 33.5942 29.7087 43.2143 20.4379 48.1389L18 49.4338L15.5621 48.1389C6.29133 43.2143 0.499999 33.5941 0.5 23.1213L0.500002 0.5L35.5 0.500003L35.5 23.1213Z" fill="url(#paint0_linear_6008_72506)" stroke="#5C3317" stroke-linejoin="round"/><g filter="url(#filter0_i_6008_72506)"><path d="M33 22.5C33 32.1077 27.8994 40.9023 19.7029 45.5L18 46.4552L16.2971 45.5C8.10059 40.9023 3 32.1077 3 22.5L3 3L33 3L33 22.5Z" fill="url(#paint1_linear_6008_72506)"/></g><path d="M17.7554 46.8913L18 47.0285L18.2446 46.8913L19.9475 45.9361C28.3053 41.2479 33.5 32.2845 33.5 22.5L33.5 3V2.5L33 2.5L3 2.5L2.5 2.5L2.5 3L2.5 22.5C2.5 32.2845 7.69474 41.2479 16.0525 45.9361L17.7554 46.8913Z" stroke="#5C3317"/><g filter="url(#filter1_i_6008_72506)"><path d="M3 3V22.5C3 32.1077 8.10059 40.9023 16.2971 45.5L18 46.4552V3H3Z" fill="url(#paint2_linear_6008_72506)"/></g><path opacity="0.6" d="M5 3V12.118C5 12.118 6.99811 15.2894 10.9943 13.7037C14.9905 12.118 13.5 3 13.5 3H5Z" fill="white"/><rect x="3" y="3" width="30" height="1" fill="white" fill-opacity="0.6"/><rect x="18" y="3" width="15" height="1" fill="white"/><rect x="17" y="32" width="1" height="14" rx="0.5" fill="white" fill-opacity="0.2"/><path d="M7.5 8L8.01314 8.79373L8.92658 9.03647L8.33027 9.76977L8.38168 10.7135L7.5 10.373L6.61832 10.7135L6.66973 9.76977L6.07342 9.03647L6.98686 8.79373L7.5 8Z" fill="white"/><path d="M28.5 10L29.0131 10.7937L29.9266 11.0365L29.3303 11.7698L29.3817 12.7135L28.5 12.373L27.6183 12.7135L27.6697 11.7698L27.0734 11.0365L27.9869 10.7937L28.5 10Z" fill="white"/><path d="M18.5 17L19.1173 17.8827L20 18.5L19.1173 19.1173L18.5 20L17.8827 19.1173L17 18.5L17.8827 17.8827L18.5 17Z" fill="white"/><path d="M17.1778 31.2585C14.6399 31.2585 12.4979 30.7905 10.752 29.8545L12.1019 25.6696C13.9559 26.3356 15.6119 26.6686 17.0698 26.6686C17.8618 26.6686 18.4378 26.5786 18.7978 26.3986C19.1758 26.2006 19.3648 25.9126 19.3648 25.5346C19.3648 25.2826 19.2658 25.0667 19.0678 24.8867C18.8698 24.6887 18.4738 24.4727 17.8798 24.2387C17.2858 24.0047 16.3948 23.7167 15.2069 23.3747C13.7489 22.9427 12.6149 22.2407 11.8049 21.2687C10.995 20.2788 10.59 19.1448 10.59 17.8668C10.59 15.8869 11.238 14.3929 12.5339 13.3849C13.8479 12.3589 15.6119 11.8459 17.8258 11.8459C18.9778 11.8459 20.1118 11.9719 21.2277 12.2239C22.3437 12.4579 23.3337 12.8089 24.1977 13.2769L22.7397 17.3538C21.7317 17.0118 20.8497 16.7688 20.0938 16.6248C19.3558 16.4628 18.6358 16.3818 17.9338 16.3818C16.7458 16.3818 16.1518 16.7058 16.1518 17.3538C16.1518 17.6778 16.3408 17.9568 16.7188 18.1908C17.1148 18.4068 17.9158 18.6858 19.1218 19.0278C21.0117 19.5318 22.4427 20.3058 23.4147 21.3497C24.3867 22.3757 24.8726 23.6087 24.8726 25.0487C24.8726 27.0466 24.2247 28.5856 22.9287 29.6656C21.6327 30.7275 19.7158 31.2585 17.1778 31.2585Z" fill="url(#paint3_linear_6008_72506)"/><ellipse cx="13.5" cy="14" rx="3.5" ry="2" transform="rotate(-16.5921 13.5 14)" fill="white"/><path fill-rule="evenodd" clip-rule="evenodd" d="M10.0433 31.1766C9.4045 30.8341 9.10194 30.0839 9.32446 29.3941L10.6744 25.2092C10.7992 24.8224 11.0755 24.5029 11.4402 24.3236C11.8048 24.1443 12.2266 24.1206 12.6091 24.258C13.6963 24.6486 14.6808 24.906 15.5675 25.0446C15.3276 24.9721 15.0692 24.896 14.7919 24.8161L14.7808 24.8129C13.097 24.314 11.6876 23.471 10.6527 22.229L10.644 22.2186C9.61498 20.9609 9.09003 19.4914 9.09003 17.8668C9.09003 15.5309 9.87491 13.5535 11.6118 12.2019C13.2643 10.912 15.3875 10.346 17.8258 10.346C19.0843 10.346 20.3254 10.4833 21.5469 10.7583C22.7783 11.0175 23.9051 11.4126 24.9121 11.958C25.5629 12.3106 25.8593 13.0851 25.6101 13.782L24.1521 17.8589C23.9229 18.4999 23.3015 18.8896 22.6529 18.8517C23.3558 19.2669 23.9781 19.7547 24.508 20.3228C25.7465 21.6324 26.3726 23.2351 26.3726 25.0487C26.3726 27.4009 25.5911 29.3994 23.889 30.8179L23.8795 30.8258C22.2078 32.1957 19.8916 32.7585 17.1778 32.7585C14.4603 32.7585 12.06 32.2577 10.0433 31.1766ZM23.4147 21.3498C22.4427 20.3058 21.0118 19.5318 19.1218 19.0278C17.9158 18.6858 17.1148 18.4068 16.7189 18.1908C16.3409 17.9568 16.1519 17.6778 16.1519 17.3539C16.1519 16.7059 16.7459 16.3819 17.9338 16.3819C18.6358 16.3819 19.3558 16.4629 20.0938 16.6249C20.8498 16.7689 21.7317 17.0119 22.7397 17.3539L24.1977 13.2769C23.3337 12.809 22.3437 12.458 21.2278 12.224C20.1118 11.972 18.9778 11.846 17.8258 11.846C15.6119 11.846 13.8479 12.359 12.5339 13.3849C11.238 14.3929 10.59 15.8869 10.59 17.8668C10.59 19.1448 10.995 20.2788 11.805 21.2688C12.6149 22.2407 13.7489 22.9427 15.2069 23.3747C16.3949 23.7167 17.2858 24.0047 17.8798 24.2387C18.4738 24.4727 18.8698 24.6887 19.0678 24.8867C19.2658 25.0667 19.3648 25.2827 19.3648 25.5347C19.3648 25.9127 19.1758 26.2007 18.7978 26.3987C18.4378 26.5786 17.8618 26.6686 17.0698 26.6686C15.9799 26.6686 14.7793 26.4825 13.4681 26.1103C13.0253 25.9847 12.5699 25.8378 12.102 25.6697L10.752 29.8546C12.498 30.7906 14.6399 31.2585 17.1778 31.2585C19.7158 31.2585 21.6327 30.7276 22.9287 29.6656C24.2247 28.5856 24.8727 27.0466 24.8727 25.0487C24.8727 23.6087 24.3867 22.3757 23.4147 21.3498ZM17.4742 16.8921C17.4742 16.8921 17.4747 16.8925 17.4756 16.8932L17.4742 16.8921Z" fill="#5C3317"/><path d="M23.5 20L24.1173 20.8827L25 21.5L24.1173 22.1173L23.5 23L22.8827 22.1173L22 21.5L22.8827 20.8827L23.5 20Z" fill="white"/><defs><filter id="filter0_i_6008_72506" x="2" y="2" width="32" height="45.6018" filterUnits="userSpaceOnUse" color-interpolation-filters="sRGB"><feFlood flood-opacity="0" result="BackgroundImageFix"/><feBlend mode="normal" in="SourceGraphic" in2="BackgroundImageFix" result="shape"/><feColorMatrix in="SourceAlpha" type="matrix" values="0 0 0 0 0 0 0 0 0 0 0 0 0 0 0 0 0 0 127 0" result="hardAlpha"/><feOffset dx="-2"/><feComposite in2="hardAlpha" operator="arithmetic" k2="-1" k3="1"/><feColorMatrix type="matrix" values="0 0 0 0 1 0 0 0 0 1 0 0 0 0 1 0 0 0 0.3 0"/><feBlend mode="normal" in2="shape" result="effect1_innerShadow_6008_72506"/></filter><filter id="filter1_i_6008_72506" x="3" y="3" width="15" height="43.4552" filterUnits="userSpaceOnUse" color-interpolation-filters="sRGB"><feFlood flood-opacity="0" result="BackgroundImageFix"/><feBlend mode="normal" in="SourceGraphic" in2="BackgroundImageFix" result="shape"/><feColorMatrix in="SourceAlpha" type="matrix" values="0 0 0 0 0 0 0 0 0 0 0 0 0 0 0 0 0 0 127 0" result="hardAlpha"/><feOffset dx="2"/><feComposite in2="hardAlpha" operator="arithmetic" k2="-1" k3="1"/><feColorMatrix type="matrix" values="0 0 0 0 1 0 0 0 0 1 0 0 0 0 1 0 0 0 0.4 0"/><feBlend mode="normal" in2="shape" result="effect1_innerShadow_6008_72506"/></filter><linearGradient id="paint0_linear_6008_72506" x1="18" y1="0" x2="18" y2="50" gradientUnits="userSpaceOnUse"><stop stop-color="white"/><stop offset="0.473958" stop-color="#7DEA87"/><stop offset="1" stop-color="#FFC7C7"/></linearGradient><linearGradient id="paint1_linear_6008_72506" x1="18.0001" y1="3.00011" x2="18.0004" y2="47.5" gradientUnits="userSpaceOnUse"><stop stop-color="#9CFE9F"/><stop offset="0.5" stop-color="#9CE0FF"/><stop offset="1" stop-color="#FFADA9"/></linearGradient><linearGradient id="paint2_linear_6008_72506" x1="10.9988" y1="3.00015" x2="10.9995" y2="47" gradientUnits="userSpaceOnUse"><stop stop-color="#CDFFCF"/><stop offset="0.5" stop-color="#CEF0FF"/><stop offset="1" stop-color="#FFADA9"/></linearGradient><linearGradient id="paint3_linear_6008_72506" x1="10.59" y1="21.5523" x2="24.8726" y2="21.5523" gradientUnits="userSpaceOnUse"><stop stop-color="#9CFE9F"/><stop offset="0.5" stop-color="#9CE0FF"/><stop offset="1" stop-color="#FFADA9"/></linearGradient></defs></svg>