<svg width="36" height="50" viewBox="0 0 36 50" fill="none" xmlns="http://www.w3.org/2000/svg"><path d="M35.5 23.1213C35.5 33.5942 29.7087 43.2143 20.4379 48.1389L18 49.4338L15.5621 48.1389C6.29133 43.2143 0.499999 33.5941 0.5 23.1213L0.500002 0.5L35.5 0.500003L35.5 23.1213Z" fill="url(#paint0_linear_6008_72558)" stroke="#5C3317" stroke-linejoin="round"/><g filter="url(#filter0_i_6008_72558)"><path d="M33 22.5C33 32.1077 27.8994 40.9023 19.7029 45.5L18 46.4552L16.2971 45.5C8.10059 40.9023 3 32.1077 3 22.5L3 3L33 3L33 22.5Z" fill="url(#paint1_linear_6008_72558)"/></g><path d="M17.7554 46.8913L18 47.0285L18.2446 46.8913L19.9475 45.9361C28.3053 41.2479 33.5 32.2845 33.5 22.5L33.5 3V2.5L33 2.5L3 2.5L2.5 2.5L2.5 3L2.5 22.5C2.5 32.2845 7.69474 41.2479 16.0525 45.9361L17.7554 46.8913Z" stroke="#5C3317"/><g filter="url(#filter1_i_6008_72558)"><path d="M3 3V22.5C3 32.1077 8.10059 40.9023 16.2971 45.5L18 46.4552V3H3Z" fill="url(#paint2_linear_6008_72558)"/></g><path opacity="0.6" d="M5 3V12.118C5 12.118 6.99811 15.2894 10.9943 13.7037C14.9905 12.118 13.5 3 13.5 3H5Z" fill="white"/><rect x="3" y="3" width="30" height="1" fill="white" fill-opacity="0.6"/><rect x="18" y="3" width="15" height="1" fill="white"/><rect x="17" y="32" width="1" height="14" rx="0.5" fill="white" fill-opacity="0.3"/><path d="M16.52 31.016C15.404 31.016 14.369 30.998 13.415 30.962C12.461 30.926 11.156 30.845 9.5 30.719V12.116H18.788C20.102 12.116 21.281 12.305 22.325 12.683C23.387 13.043 24.215 13.565 24.809 14.249C25.403 14.933 25.7 15.725 25.7 16.625C25.7 17.741 25.457 18.623 24.971 19.271C24.485 19.901 23.747 20.342 22.757 20.594C25.277 20.99 26.537 22.475 26.537 25.049C26.537 26.831 25.718 28.271 24.08 29.369C22.46 30.467 19.94 31.016 16.52 31.016ZM17.654 19.46C18.356 19.46 18.932 19.289 19.382 18.947C19.85 18.605 20.084 18.164 20.084 17.624C20.084 16.346 19.292 15.707 17.708 15.707H15.521V19.46H17.654ZM17.546 26.777C18.536 26.777 19.292 26.597 19.814 26.237C20.354 25.859 20.624 25.337 20.624 24.671C20.624 23.951 20.381 23.402 19.895 23.024C19.409 22.628 18.716 22.43 17.816 22.43H15.494V26.696C16.304 26.75 16.988 26.777 17.546 26.777Z" fill="url(#paint3_linear_6008_72558)"/><ellipse cx="11.5" cy="13" rx="3.5" ry="2" fill="white"/><path fill-rule="evenodd" clip-rule="evenodd" d="M9.3862 32.2147C8.60418 32.1552 8 31.5033 8 30.719V12.116C8 11.2876 8.67157 10.616 9.5 10.616H18.788C20.2392 10.616 21.5904 10.8239 22.8212 11.2674C24.0694 11.6927 25.1393 12.3417 25.9415 13.2655C26.7708 14.2204 27.2 15.361 27.2 16.625C27.2 17.9452 26.9133 19.1813 26.171 20.171L26.1588 20.1873C26.1159 20.2429 26.0719 20.2971 26.0269 20.3501C26.2827 20.5523 26.5198 20.7798 26.7358 21.0343C27.6609 22.1247 28.037 23.5223 28.037 25.049C28.037 27.3897 26.9177 29.2715 24.9183 30.613C22.9254 31.9621 20.0403 32.516 16.52 32.516C15.3882 32.516 14.3341 32.4978 13.3584 32.461C12.3764 32.4239 11.0496 32.3413 9.3862 32.2147ZM24.08 29.369C25.718 28.271 26.537 26.831 26.537 25.049C26.537 23.3282 25.9739 22.0942 24.8476 21.3468C24.2892 20.9762 23.5923 20.7253 22.757 20.594C23.5768 20.3854 24.2238 20.0471 24.698 19.5792C24.7964 19.4821 24.8874 19.3793 24.971 19.271C25.457 18.623 25.7 17.741 25.7 16.625C25.7 15.725 25.403 14.933 24.809 14.249C24.215 13.565 23.387 13.043 22.325 12.683C21.281 12.305 20.102 12.116 18.788 12.116H9.5V30.719C11.156 30.845 12.461 30.926 13.415 30.962C14.369 30.998 15.404 31.016 16.52 31.016C19.94 31.016 22.46 30.467 24.08 29.369ZM18.4744 17.7528L18.497 17.7359C18.5517 17.696 18.5744 17.6691 18.5817 17.6592C18.5826 17.6541 18.584 17.6428 18.584 17.624C18.584 17.4568 18.5579 17.3792 18.5492 17.3581C18.5482 17.3558 18.5474 17.354 18.5468 17.3526C18.5228 17.3345 18.3235 17.207 17.708 17.207H17.021V17.96H17.654C18.109 17.96 18.3431 17.8525 18.4744 17.7528ZM15.521 19.46V15.707H17.708C19.292 15.707 20.084 16.346 20.084 17.624C20.084 18.164 19.85 18.605 19.382 18.947C18.932 19.289 18.356 19.46 17.654 19.46H15.521ZM19.895 23.024C20.381 23.402 20.624 23.951 20.624 24.671C20.624 25.337 20.354 25.859 19.814 26.237C19.292 26.597 18.536 26.777 17.546 26.777C16.988 26.777 16.304 26.75 15.494 26.696V22.43H17.816C18.716 22.43 19.409 22.628 19.895 23.024ZM16.994 23.93V25.2688C17.1928 25.2743 17.3767 25.277 17.546 25.277C18.3832 25.277 18.7888 25.12 18.9583 25.005C19.0505 24.9396 19.0787 24.8931 19.0892 24.8729C19.1001 24.8518 19.124 24.7965 19.124 24.671C19.124 24.3256 19.0303 24.2517 18.9741 24.2081L18.9475 24.1869C18.8243 24.0865 18.5176 23.93 17.816 23.93H16.994Z" fill="#5C3317"/><defs><filter id="filter0_i_6008_72558" x="2" y="2" width="32" height="45.6018" filterUnits="userSpaceOnUse" color-interpolation-filters="sRGB"><feFlood flood-opacity="0" result="BackgroundImageFix"/><feBlend mode="normal" in="SourceGraphic" in2="BackgroundImageFix" result="shape"/><feColorMatrix in="SourceAlpha" type="matrix" values="0 0 0 0 0 0 0 0 0 0 0 0 0 0 0 0 0 0 127 0" result="hardAlpha"/><feOffset dx="-2"/><feComposite in2="hardAlpha" operator="arithmetic" k2="-1" k3="1"/><feColorMatrix type="matrix" values="0 0 0 0 0 0 0 0 0 0 0 0 0 0 0 0 0 0 0.2 0"/><feBlend mode="normal" in2="shape" result="effect1_innerShadow_6008_72558"/></filter><filter id="filter1_i_6008_72558" x="3" y="3" width="15" height="43.4552" filterUnits="userSpaceOnUse" color-interpolation-filters="sRGB"><feFlood flood-opacity="0" result="BackgroundImageFix"/><feBlend mode="normal" in="SourceGraphic" in2="BackgroundImageFix" result="shape"/><feColorMatrix in="SourceAlpha" type="matrix" values="0 0 0 0 0 0 0 0 0 0 0 0 0 0 0 0 0 0 127 0" result="hardAlpha"/><feOffset dx="2"/><feComposite in2="hardAlpha" operator="arithmetic" k2="-1" k3="1"/><feColorMatrix type="matrix" values="0 0 0 0 1 0 0 0 0 1 0 0 0 0 1 0 0 0 0.4 0"/><feBlend mode="normal" in2="shape" result="effect1_innerShadow_6008_72558"/></filter><linearGradient id="paint0_linear_6008_72558" x1="18" y1="0" x2="18" y2="50" gradientUnits="userSpaceOnUse"><stop stop-color="#EFEFEF"/><stop offset="1" stop-color="#C4C4C4"/></linearGradient><linearGradient id="paint1_linear_6008_72558" x1="18" y1="3" x2="18" y2="46.4552" gradientUnits="userSpaceOnUse"><stop stop-color="#B8B8B8"/><stop offset="0.572917" stop-color="#EFEFEF"/><stop offset="0.84375" stop-color="#A5A5A5"/></linearGradient><linearGradient id="paint2_linear_6008_72558" x1="10.5" y1="3" x2="10.5" y2="46.4552" gradientUnits="userSpaceOnUse"><stop stop-color="#E7E7E7"/><stop offset="1" stop-color="#D1D1D1"/></linearGradient><linearGradient id="paint3_linear_6008_72558" x1="17.4745" y1="6.69199" x2="17.4745" y2="33.692" gradientUnits="userSpaceOnUse"><stop stop-color="#EFEFEF"/><stop offset="1" stop-color="#BDBDBD"/></linearGradient></defs></svg>