<svg width="18" height="18" viewBox="0 0 18 18" fill="none" xmlns="http://www.w3.org/2000/svg">
<path d="M6.31818 2L6.7654 1.77639C6.66456 1.57472 6.44122 1.46549 6.22012 1.50971L6.31818 2ZM0.5 7.09091L0.0527864 6.8673C-0.00651781 6.98591 -0.0162761 7.12322 0.0256584 7.24902C0.0675928 7.37483 0.157785 7.47882 0.276393 7.53812L0.5 7.09091ZM3.40909 8.54545L3.18548 8.99267C3.43247 9.11616 3.73281 9.01605 3.8563 8.76906L3.40909 8.54545ZM4.13636 7.09091H4.63636C4.63636 6.85902 4.47693 6.65756 4.25124 6.60428C4.02555 6.55101 3.79285 6.65989 3.68915 6.8673L4.13636 7.09091ZM4.13636 15H3.63636C3.63636 15.2761 3.86022 15.5 4.13636 15.5V15ZM12.8636 7.09091L13.3109 6.8673C13.2071 6.65989 12.9744 6.55101 12.7488 6.60428C12.5231 6.65756 12.3636 6.85902 12.3636 7.09091H12.8636ZM13.5909 8.54545L13.1437 8.76906C13.2672 9.01605 13.5675 9.11616 13.8145 8.99267L13.5909 8.54545ZM16.5 7.09091L16.7236 7.53812C16.9706 7.41463 17.0707 7.11429 16.9472 6.8673L16.5 7.09091ZM10.6818 2L10.7799 1.50971C10.5588 1.46549 10.3354 1.57472 10.2346 1.77639L10.6818 2ZM12.3636 10.0455C12.3636 10.3216 12.5875 10.5455 12.8636 10.5455C13.1398 10.5455 13.3636 10.3216 13.3636 10.0455H12.3636ZM8.5 15.5C8.77614 15.5 9 15.2761 9 15C9 14.7239 8.77614 14.5 8.5 14.5V15.5ZM14.9744 4.03962L14.5271 4.26323L14.9744 4.03962ZM2.02564 4.03962L2.47286 4.26323L2.02564 4.03962ZM6.22012 1.50971L4.02252 1.94923L4.21863 2.92981L6.41624 2.49029L6.22012 1.50971ZM1.57843 3.81602L0.0527864 6.8673L0.947214 7.31452L2.47286 4.26323L1.57843 3.81602ZM0.276393 7.53812L3.18548 8.99267L3.6327 8.09824L0.723607 6.6437L0.276393 7.53812ZM3.8563 8.76906L4.58358 7.31452L3.68915 6.8673L2.96188 8.32185L3.8563 8.76906ZM3.63636 7.09091V15H4.63636V7.09091H3.63636ZM12.4164 7.31452L13.1437 8.76906L14.0381 8.32185L13.3109 6.8673L12.4164 7.31452ZM13.8145 8.99267L16.7236 7.53812L16.2764 6.6437L13.3673 8.09824L13.8145 8.99267ZM16.9472 6.8673L15.4216 3.81602L14.5271 4.26323L16.0528 7.31452L16.9472 6.8673ZM12.9775 1.94923L10.7799 1.50971L10.5838 2.49029L12.7814 2.92981L12.9775 1.94923ZM10.6818 2C10.2346 1.77639 10.2347 1.77622 10.2348 1.77606C10.2348 1.77601 10.2349 1.77585 10.2349 1.77576C10.235 1.77557 10.2351 1.7754 10.2352 1.77525C10.2353 1.77496 10.2354 1.77475 10.2355 1.77462C10.2356 1.77437 10.2356 1.77445 10.2354 1.77485C10.235 1.77566 10.2339 1.77775 10.2321 1.78104C10.2286 1.78763 10.2224 1.79899 10.2136 1.81443C10.1959 1.84538 10.1678 1.89233 10.1294 1.94992C10.0521 2.06596 9.93602 2.22051 9.78281 2.37372C9.47367 2.68286 9.04789 2.95455 8.5 2.95455V3.95455C9.40665 3.95455 10.0718 3.49896 10.4899 3.08083C10.7003 2.8704 10.857 2.66131 10.9615 2.50462C11.014 2.42586 11.0541 2.35916 11.0818 2.31057C11.0958 2.28624 11.1066 2.26635 11.1145 2.25163C11.1184 2.24427 11.1216 2.23819 11.124 2.23349C11.1252 2.23114 11.1262 2.22914 11.1271 2.22749C11.1275 2.22666 11.1279 2.22592 11.1282 2.22528C11.1284 2.22495 11.1285 2.22465 11.1286 2.22437C11.1287 2.22423 11.1288 2.22404 11.1288 2.22397C11.1289 2.22379 11.129 2.22361 10.6818 2ZM8.5 2.95455C7.95211 2.95455 7.52633 2.68286 7.21719 2.37372C7.06398 2.22051 6.94793 2.06596 6.87057 1.94992C6.83217 1.89233 6.80408 1.84538 6.78639 1.81443C6.77757 1.79899 6.7714 1.78763 6.76788 1.78104C6.76613 1.77775 6.76504 1.77566 6.76462 1.77485C6.76442 1.77445 6.76438 1.77437 6.7645 1.77462C6.76457 1.77475 6.76467 1.77496 6.76482 1.77525C6.7649 1.7754 6.76498 1.77557 6.76508 1.77576C6.76513 1.77585 6.76521 1.77601 6.76523 1.77606C6.76531 1.77622 6.7654 1.77639 6.31818 2C5.87097 2.22361 5.87106 2.22379 5.87115 2.22397C5.87119 2.22404 5.87128 2.22423 5.87135 2.22437C5.87149 2.22465 5.87164 2.22495 5.87181 2.22528C5.87213 2.22592 5.87251 2.22666 5.87293 2.22749C5.87376 2.22914 5.87479 2.23114 5.876 2.23349C5.87843 2.23819 5.8816 2.24427 5.88553 2.25163C5.89338 2.26635 5.90425 2.28624 5.91815 2.31057C5.94592 2.35916 5.98601 2.42586 6.03852 2.50462C6.14298 2.66131 6.29966 2.8704 6.51008 3.08083C6.92822 3.49896 7.59335 3.95455 8.5 3.95455V2.95455ZM13.3636 10.0455V7.09091H12.3636V10.0455H13.3636ZM4.13636 15.5H8.5V14.5H4.13636V15.5ZM15.4216 3.81602C14.9385 2.84997 14.0366 2.16105 12.9775 1.94923L12.7814 2.92981C13.5379 3.08111 14.1821 3.5732 14.5271 4.26323L15.4216 3.81602ZM4.02252 1.94923C2.96342 2.16105 2.06145 2.84997 1.57843 3.81602L2.47286 4.26323C2.81787 3.5732 3.46214 3.08111 4.21863 2.92981L4.02252 1.94923Z" fill="#1D2654"/>
<path d="M13.8574 16.3573L14.9107 18L9.5 16.8793L10.599 11.2759L11.6755 12.9547C14.7999 11.9505 15.587 9.24513 15.587 8C17.8243 12.093 15.4414 15.2122 13.8574 16.3573Z" fill="#1D2654"/>
<path d="M2 1.5L17.5 17" stroke="#1D2654" stroke-linecap="round" stroke-linejoin="round"/>
</svg>
